<svg xmlns="http://www.w3.org/2000/svg" xmlns:xlink="http://www.w3.org/1999/xlink" width="140.576" height="173.365" viewBox="0 0 140.576 173.365">
  <defs>
    <filter id="Path_278955" x="0" y="0" width="140.576" height="173.365" filterUnits="userSpaceOnUse">
      <feOffset dy="5" input="SourceAlpha"/>
      <feGaussianBlur stdDeviation="5" result="blur"/>
      <feFlood flood-opacity="0.161"/>
      <feComposite operator="in" in2="blur"/>
      <feComposite in="SourceGraphic"/>
    </filter>
  </defs>
  <g id="Group_222277" data-name="Group 222277" transform="translate(19941.447 21341.137)">
    <g transform="matrix(1, 0, 0, 1, -19941.45, -21341.14)" filter="url(#Path_278955)">
      <path id="Path_278955-2" data-name="Path 278955" d="M375,250.4a133.308,133.308,0,0,1-28.989-3.176,11.338,11.338,0,0,0-13.087,7.241L304,334.233a11.356,11.356,0,0,0,7.635,14.835,241.367,241.367,0,0,0,126.723,0A11.356,11.356,0,0,0,446,334.233l-28.921-79.765a11.337,11.337,0,0,0-13.087-7.241A133.285,133.285,0,0,1,375,250.4Z" transform="translate(372.53 -293.32) rotate(90)" fill="#d8dbe8"/>
    </g>
    <path id="Path_278960" data-name="Path 278960" d="M375,247.4a133.308,133.308,0,0,1-28.989-3.176,11.338,11.338,0,0,0-13.087,7.241L304,331.233a11.356,11.356,0,0,0,7.635,14.835,241.367,241.367,0,0,0,126.723,0A11.356,11.356,0,0,0,446,331.233l-28.921-79.765a11.337,11.337,0,0,0-13.087-7.241A133.285,133.285,0,0,1,375,247.4Z" transform="translate(-19568.914 -21634.318) rotate(90)" fill="#f1c518"/>
  </g>
</svg>
