<svg xmlns="http://www.w3.org/2000/svg" width="35" height="35" viewBox="0 0 35 35">
  <g id="Group_221517" data-name="Group 221517" transform="translate(-690.473 -2739)">
    <rect id="Rectangle_24142" data-name="Rectangle 24142" width="35" height="35" transform="translate(690.473 2738.999)" fill="none" opacity="0"/>
    <g id="chat" transform="translate(690.473 2738.999)">
      <path id="Path_278991" data-name="Path 278991" d="M143.136,139.291a1.182,1.182,0,0,1,.821.332,5.482,5.482,0,0,0,5.408,1.274,10.476,10.476,0,0,1-.437-8.027,13.786,13.786,0,0,0,.13-9.937,12.744,12.744,0,0,0-6.207-6.724,15.277,15.277,0,0,1-17.023,17.939,12.973,12.973,0,0,0,11.038,6.512,12.794,12.794,0,0,0,5.761-1.253A1.179,1.179,0,0,1,143.136,139.291Z" transform="translate(-114.927 -106.141)" fill="#f1c518"/>
      <path id="Path_278992" data-name="Path 278992" d="M13.176,0A12.942,12.942,0,0,0,0,12.858a12.788,12.788,0,0,0,1.018,5.058c.01.023.019.047.027.071a10.476,10.476,0,0,1-.437,8.027A5.483,5.483,0,0,0,6.016,24.74a1.182,1.182,0,0,1,1.331-.216,12.777,12.777,0,0,0,5.761,1.254A12.8,12.8,0,0,0,25.822,12.889,12.965,12.965,0,0,0,13.176,0ZM6.024,14.814a1.866,1.866,0,1,1,1.869-1.866A1.868,1.868,0,0,1,6.024,14.814Zm6.887,0a1.866,1.866,0,1,1,1.869-1.866A1.868,1.868,0,0,1,12.911,14.814Zm6.887,0a1.866,1.866,0,1,1,1.869-1.866A1.868,1.868,0,0,1,19.8,14.814Z" transform="translate(0 0)" fill="#f1c518"/>
    </g>
  </g>
</svg>
