<svg xmlns="http://www.w3.org/2000/svg" width="206.695" height="207.631" viewBox="0 0 206.695 207.631">
  <g id="Group_222297" data-name="Group 222297" transform="translate(19784.348 21363.268)">
    <path id="Path_278944" data-name="Path 278944" d="M290.018,167.445a99.845,99.845,0,0,1-15.333-53.326" transform="translate(-19568.914 -21634.453) rotate(90)" fill="none" stroke="#f1c518" stroke-width="2"/>
    <path id="Path_278945" data-name="Path 278945" d="M334.528,205.934a100.707,100.707,0,0,1-44.51-38.489" transform="translate(-19568.914 -21634.453) rotate(90)" fill="none" stroke="#f1c518" stroke-width="2"/>
    <path id="Path_278946" data-name="Path 278946" d="M416.021,205.69a100.6,100.6,0,0,1-81.493.244" transform="translate(-19568.914 -21634.453) rotate(90)" fill="none" stroke="#f1c518" stroke-width="2"/>
    <path id="Path_278947" data-name="Path 278947" d="M459.193,168.681a100.715,100.715,0,0,1-43.172,37.009" transform="translate(-19568.914 -21634.453) rotate(90)" fill="none" stroke="#f1c518" stroke-width="2"/>
    <path id="Path_278948" data-name="Path 278948" d="M475.315,114.119a99.849,99.849,0,0,1-16.122,54.562" transform="translate(-19568.914 -21634.453) rotate(90)" fill="none" stroke="#f1c518" stroke-width="2"/>
    <path id="Path_278951" data-name="Path 278951" d="M461.641,168.119a3,3,0,1,1-3-3A3,3,0,0,1,461.641,168.119Z" transform="translate(-19569.994 -21634.453) rotate(90)" fill="#fff" stroke="#f1c518" stroke-width="1"/>
    <path id="Path_278952" data-name="Path 278952" d="M293.9,169.2a3,3,0,1,1-3-3A3,3,0,0,1,293.9,169.2Z" transform="translate(-19568.914 -21634.453) rotate(90)" fill="#fff" stroke="#f1c518" stroke-width="1"/>
    <path id="Path_278953" data-name="Path 278953" d="M417.675,204.188a3,3,0,1,1-3-3A3,3,0,0,1,417.675,204.188Z" transform="translate(-19570.76 -21634.25) rotate(90)" fill="#fff" stroke="#f1c518" stroke-width="1"/>
    <path id="Path_278954" data-name="Path 278954" d="M336.922,205.034a3,3,0,1,1-3-3A3,3,0,0,1,336.922,205.034Z" transform="translate(-19569.914 -21633.25) rotate(90)" fill="#fff" stroke="#f1c518" stroke-width="1"/>
    <path id="Path_278944-2" data-name="Path 278944" d="M15.333,0A99.845,99.845,0,0,0,0,53.326" transform="translate(-19625.641 -21359.768) rotate(90)" fill="none" stroke="#315e8a" stroke-width="2"/>
    <path id="Path_278945-2" data-name="Path 278945" d="M44.51,0A100.707,100.707,0,0,0,0,38.489" transform="translate(-19587.152 -21344.434) rotate(90)" fill="none" stroke="#315e8a" stroke-width="2"/>
    <path id="Path_278946-2" data-name="Path 278946" d="M81.493,8.744A100.6,100.6,0,0,0,0,8.5" transform="translate(-19578.652 -21299.926) rotate(90)" fill="none" stroke="#315e8a" stroke-width="2"/>
    <path id="Path_278947-2" data-name="Path 278947" d="M43.172,37.009A100.715,100.715,0,0,0,0,0" transform="translate(-19587.396 -21218.432) rotate(90)" fill="none" stroke="#315e8a" stroke-width="2"/>
    <path id="Path_278948-2" data-name="Path 278948" d="M16.122,54.562A99.848,99.848,0,0,0,0,0" transform="translate(-19624.404 -21175.26) rotate(90)" fill="none" stroke="#315e8a" stroke-width="2"/>
    <path id="Path_278951-2" data-name="Path 278951" d="M6,3A3,3,0,1,0,3,6,3,3,0,0,0,6,3Z" transform="translate(-19620.887 -21178.813) rotate(90)" fill="#fff" stroke="#315e8a" stroke-width="1"/>
    <path id="Path_278952-2" data-name="Path 278952" d="M6,3A3,3,0,1,0,3,6,3,3,0,0,0,6,3Z" transform="translate(-19620.887 -21346.547) rotate(90)" fill="#fff" stroke="#315e8a" stroke-width="1"/>
    <path id="Path_278953-2" data-name="Path 278953" d="M6,3A3,3,0,1,0,3,6,3,3,0,0,0,6,3Z" transform="translate(-19584.053 -21222.576) rotate(90)" fill="#fff" stroke="#315e8a" stroke-width="1"/>
    <path id="Path_278954-2" data-name="Path 278954" d="M6,3A3,3,0,1,0,3,6,3,3,0,0,0,6,3Z" transform="translate(-19584.053 -21302.328) rotate(90)" fill="#fff" stroke="#315e8a" stroke-width="1"/>
    <path id="Path_278949" data-name="Path 278949" d="M6,3A3,3,0,1,0,3,6,3,3,0,0,0,6,3Z" transform="translate(-19678.473 -21162.137) rotate(90)" fill="#fff" stroke="#f1c518" stroke-width="1"/>
    <path id="Path_278949-2" data-name="Path 278949" d="M6,3A3,3,0,1,0,3,6,3,3,0,0,0,6,3Z" transform="translate(-19678.283 -21362.768) rotate(90)" fill="#fff" stroke="#315e8a" stroke-width="1"/>
  </g>
</svg>
