<svg xmlns="http://www.w3.org/2000/svg" width="35" height="35" viewBox="0 0 35 35">
  <g id="Group_221509" data-name="Group 221509" transform="translate(-754.473 -2968)">
    <rect id="Rectangle_24143" data-name="Rectangle 24143" width="35" height="35" transform="translate(754.473 2967.999)" fill="none" opacity="0"/>
    <g id="Group_221508" data-name="Group 221508" transform="translate(637.156 2695.359)">
      <path id="Path_278839" data-name="Path 278839" d="M120.878,295.38a13.809,13.809,0,0,1-.6-4.053,13.47,13.47,0,0,1,9.69-12.855v1.683l7.416-3.759-7.416-3.757v2.67a16.706,16.706,0,0,0-12.656,16.017,16.349,16.349,0,0,0,.3,3.164l.3-1.582Zm0,0" fill="#f1c518"/>
      <path id="Path_278840" data-name="Path 278840" d="M148.729,294.313l-.495,8.307,6.922-4.548-2.273-1.386a14.925,14.925,0,0,0,.692-4.745A16.49,16.49,0,0,0,142.6,276.517l1.186.89-3.558,1.483a13.456,13.456,0,0,1,10.382,13.051,16.3,16.3,0,0,1-.4,3.164Zm0,0" transform="translate(-3.629 -0.614)" fill="#f1c518"/>
      <path id="Path_278841" data-name="Path 278841" d="M143.835,304.642a13.273,13.273,0,0,1-19.083.592l1.484-.79-6.92-4.548.493,8.3,2.273-1.384a16.279,16.279,0,0,0,11.865,5.141A16.079,16.079,0,0,0,144.527,308l-1.185.4Zm0,0" transform="translate(-0.316 -4.317)" fill="#f1c518"/>
      <path id="Path_278842" data-name="Path 278842" d="M134.647,283.8v2.175c-2.473.5-3.856,2.077-3.856,4.054,0,2.176,1.682,3.362,4.054,4.152,1.682.6,2.373,1.089,2.373,1.979s-.892,1.384-2.177,1.384a8.411,8.411,0,0,1-3.756-.99l-.692,2.67a9.96,9.96,0,0,0,3.855.987v2.176h2.274v-2.372c2.571-.493,4.054-2.175,4.054-4.153,0-2.075-1.088-3.263-3.757-4.25-1.979-.692-2.769-1.187-2.769-1.979,0-.592.495-1.284,1.979-1.284a6.7,6.7,0,0,1,3.263.791l.692-2.572a8.29,8.29,0,0,0-3.263-.79V283.8Zm0,0" transform="translate(-2.103 -1.768)" fill="#f1c518"/>
    </g>
  </g>
</svg>
