<svg xmlns="http://www.w3.org/2000/svg" width="35" height="35" viewBox="0 0 35 35">
  <g id="Group_221512" data-name="Group 221512" transform="translate(-720.473 -2840)">
    <rect id="Rectangle_24144" data-name="Rectangle 24144" width="35" height="35" transform="translate(720.473 2839.999)" fill="none"/>
    <g id="Group_221510" data-name="Group 221510" transform="translate(326.717 2228.897)">
      <path id="Path_278835" data-name="Path 278835" d="M418.117,617.476a4.09,4.09,0,1,1-4.094-4.086,4.1,4.1,0,0,1,4.094,4.086Zm0,0" transform="translate(-2.835)" fill="#f1c518"/>
      <path id="Path_278836" data-name="Path 278836" d="M425.666,630.773l-3.806-.793a3.12,3.12,0,0,0-3.256,1.38,14.025,14.025,0,0,0-2.12-.873v-2.259a3.122,3.122,0,0,0-3.111-3.117h-3.894a3.123,3.123,0,0,0-3.117,3.117V630.5a13.65,13.65,0,0,0-2.1.865A3.123,3.123,0,0,0,401,629.98l-3.816.793a3.139,3.139,0,0,0-2.413,3.69l.962,4.578a3.118,3.118,0,0,0,3.682,2.405l1.2-.25a8.982,8.982,0,0,0,2.508,2.413,15.267,15.267,0,0,0,8.3,2.259c4.782,0,8.9-1.921,10.789-4.679l1.227.257a3.117,3.117,0,0,0,3.682-2.405l.959-4.578a3.13,3.13,0,0,0-2.413-3.69Zm-14.244,13.54a13.668,13.668,0,0,1-7.437-2.009,8.148,8.148,0,0,1-1.686-1.459l.924-.2a3.112,3.112,0,0,0,2.413-3.682l-.858-4.106a11.656,11.656,0,0,1,1.584-.712v.755a3.122,3.122,0,0,0,3.117,3.11h3.894a3.121,3.121,0,0,0,3.111-3.11v-.793a13.1,13.1,0,0,1,1.6.7l-.873,4.159a3.137,3.137,0,0,0,2.414,3.69l.939.191c-1.746,2.06-5.187,3.468-9.141,3.468Zm0,0" transform="translate(-0.167 -2.053)" fill="#f1c518"/>
      <g id="Group_221211" data-name="Group 221211" transform="translate(393.756 618.759)">
        <g id="Group_221511" data-name="Group 221511" transform="translate(0 0)">
          <path id="Path_278837" data-name="Path 278837" d="M434.454,623.993a4.086,4.086,0,1,1-4.085-4.086,4.082,4.082,0,0,1,4.085,4.086Zm0,0" transform="translate(-399.454 -619.901)" fill="#f1c518"/>
          <path id="Path_278838" data-name="Path 278838" d="M398.684,627.989a4.089,4.089,0,1,0-4.841-3.16,4.083,4.083,0,0,0,4.841,3.16Zm0,0" transform="translate(-393.756 -619.899)" fill="#f1c518"/>
        </g>
      </g>
    </g>
  </g>
</svg>
