<svg xmlns="http://www.w3.org/2000/svg" width="35" height="35.002" viewBox="0 0 35 35.002">
  <g id="Group_221505" data-name="Group 221505" transform="translate(-1103.473 -3068)">
    <rect id="Rectangle_24141" data-name="Rectangle 24141" width="35" height="35" transform="translate(1103.473 3067.999)" fill="none"/>
    <g id="megaphone" transform="translate(1075.396 3067.999)">
      <g id="Group_221492" data-name="Group 221492" transform="translate(42.853 0.28)">
        <g id="Group_221491" data-name="Group 221491">
          <path id="Path_278984" data-name="Path 278984" d="M233.315,18.352,219.664,4.7a2.052,2.052,0,1,0-2.9,2.9l13.653,13.652a2.051,2.051,0,0,0,2.9-2.9Z" transform="translate(-216.163 -4.1)" fill="#315e8a"/>
        </g>
      </g>
      <g id="Group_221494" data-name="Group 221494" transform="translate(37.475 5.667)">
        <g id="Group_221493" data-name="Group 221493" transform="translate(0)">
          <path id="Path_278985" data-name="Path 278985" d="M142.458,82.9l-.1.515a22.043,22.043,0,0,1-4.862,9.847l7.427,7.427a21.97,21.97,0,0,1,9.8-4.909l.516-.1Z" transform="translate(-137.494 -82.905)" fill="#315e8a"/>
        </g>
      </g>
      <g id="Group_221496" data-name="Group 221496" transform="translate(30.136 17.568)">
        <g id="Group_221495" data-name="Group 221495" transform="translate(0)">
          <path id="Path_278986" data-name="Path 278986" d="M36.113,256.989l-5.076,5.075a3.076,3.076,0,0,0,0,4.351l2.9,2.9a3.076,3.076,0,0,0,4.351,0l5.075-5.075Zm.725,7.976a1.025,1.025,0,0,1-1.45-1.45l1.45-1.45a1.025,1.025,0,0,1,1.45,1.45Z" transform="translate(-30.136 -256.989)" fill="#315e8a"/>
        </g>
      </g>
      <g id="Group_221498" data-name="Group 221498" transform="translate(41.188 23.658)">
        <g id="Group_221497" data-name="Group 221497">
          <path id="Path_278987" data-name="Path 278987" d="M198.27,352.857l1.395-1.395a3.074,3.074,0,0,0,0-4.35l-1.036-1.037a19.422,19.422,0,0,0-1.651,1.249l1.237,1.239a1.023,1.023,0,0,1,0,1.449L196.8,351.43l-2.084-2.019-2.9,2.9,4.652,4.508a2.051,2.051,0,0,0,2.9-2.9Z" transform="translate(-191.813 -346.075)" fill="#315e8a"/>
        </g>
      </g>
      <g id="Group_221500" data-name="Group 221500" transform="translate(50.762)">
        <g id="Group_221499" data-name="Group 221499">
          <path id="Path_278988" data-name="Path 278988" d="M332.889,0a1.025,1.025,0,0,0-1.025,1.025V3.076a1.025,1.025,0,0,0,2.051,0V1.025A1.025,1.025,0,0,0,332.889,0Z" transform="translate(-331.864)" fill="#315e8a"/>
        </g>
      </g>
      <g id="Group_221502" data-name="Group 221502" transform="translate(56.914 8.203)">
        <g id="Group_221501" data-name="Group 221501" transform="translate(0)">
          <path id="Path_278989" data-name="Path 278989" d="M424.94,120h-2.051a1.025,1.025,0,0,0,0,2.051h2.051a1.025,1.025,0,0,0,0-2.051Z" transform="translate(-421.864 -120)" fill="#315e8a"/>
        </g>
      </g>
      <g id="Group_221504" data-name="Group 221504" transform="translate(54.863 2.051)">
        <g id="Group_221503" data-name="Group 221503" transform="translate(0)">
          <path id="Path_278990" data-name="Path 278990" d="M395.665,30.3a1.025,1.025,0,0,0-1.45,0l-2.051,2.051a1.025,1.025,0,0,0,1.45,1.45l2.051-2.051A1.025,1.025,0,0,0,395.665,30.3Z" transform="translate(-391.864 -30)" fill="#315e8a"/>
        </g>
      </g>
    </g>
  </g>
</svg>
