<svg xmlns="http://www.w3.org/2000/svg" width="35" height="35" viewBox="0 0 35 35">
  <g id="Group_221488" data-name="Group 221488" transform="translate(-1134.473 -2856)">
    <rect id="Rectangle_24139" data-name="Rectangle 24139" width="35" height="35" transform="translate(1134.473 2855.999)" fill="none" opacity="0"/>
    <g id="Group_221487" data-name="Group 221487" transform="translate(598.174 2712.538)">
      <g id="Group_221424" data-name="Group 221424" transform="translate(536.299 147.016)">
        <path id="Path_278973" data-name="Path 278973" d="M539.976,157.441a3.677,3.677,0,1,0,3.678,3.678A3.677,3.677,0,0,0,539.976,157.441Zm2.414,2.843-2.918,2.918a.583.583,0,0,1-.824,0l-1.284-1.284a.583.583,0,0,1,.823-.824l.873.872,2.506-2.505a.582.582,0,0,1,.823.823Zm-2.414,7.268a3.677,3.677,0,1,0,3.678,3.677A3.677,3.677,0,0,0,539.976,167.552Zm11.4-13.982h17.045a2.875,2.875,0,0,0,0-5.751H551.379a2.875,2.875,0,0,0,0,5.751Zm17.045,4.424H551.379a2.875,2.875,0,0,0,0,5.751h17.045a2.875,2.875,0,0,0,0-5.751Zm0,10.175H551.379a2.875,2.875,0,0,0,0,5.751h17.045a2.875,2.875,0,0,0,0-5.751Zm-28.448-21.152a3.677,3.677,0,1,0,3.678,3.677A3.677,3.677,0,0,0,539.976,147.016Z" transform="translate(-536.299 -147.016)" fill="#315e8a"/>
      </g>
    </g>
  </g>
</svg>
