<svg xmlns="http://www.w3.org/2000/svg" width="35" height="35" viewBox="0 0 35 35">
  <g id="Group_221507" data-name="Group 221507" transform="translate(-883.473 -3032)">
    <rect id="Rectangle_24138" data-name="Rectangle 24138" width="35" height="35" transform="translate(883.473 3031.999)" fill="none" opacity="0"/>
    <g id="Group_221506" data-name="Group 221506" transform="translate(263.902 2780.179)">
      <path id="Path_278844" data-name="Path 278844" d="M652.083,254.673H638.772a1.851,1.851,0,0,0,.25-.9,1.955,1.955,0,1,0-3.659.9h-13.3a1.8,1.8,0,0,0-1.8,1.8v19.8a1.8,1.8,0,0,0,1.8,1.8h10.884l-2.119,7.459a.873.873,0,0,0,.7,1.113l.836.161a1.092,1.092,0,0,0,1.233-.755l2.259-7.979h2.448l2.26,7.979a1.1,1.1,0,0,0,1.232.755l.836-.161a.869.869,0,0,0,.689-1.113l-2.112-7.459h10.884a1.8,1.8,0,0,0,1.8-1.8v-19.8a1.8,1.8,0,0,0-1.8-1.8Zm-1.62,19.9H623.679V257.8h26.785Zm0,0" fill="#f1c518"/>
      <path id="Path_278845" data-name="Path 278845" d="M628.229,274.509a1.393,1.393,0,0,0,1.393-1.393,1.312,1.312,0,0,0-.081-.389c1.776-1.438,4.921-3.961,6.352-5.069a1.261,1.261,0,0,0,1.451.081c.926.784,2.488,2.112,3.6,3.058a1.457,1.457,0,0,0-.051.235,1.4,1.4,0,0,0,2.794,0,1.316,1.316,0,0,0-.08-.381l3.6-3.248a1.351,1.351,0,0,0,.631.175,1.393,1.393,0,1,0-1.385-1.393,1.376,1.376,0,0,0,.1.52c-1,.9-2.561,2.3-3.521,3.177a1.391,1.391,0,0,0-.741-.243,1.373,1.373,0,0,0-.858.323c-.916-.784-2.4-2.046-3.462-2.942a1.276,1.276,0,0,0,.1-.476,1.389,1.389,0,1,0-2.779,0,1.29,1.29,0,0,0,.094.476L629,271.986a1.382,1.382,0,1,0-.769,2.523Zm0,0" transform="translate(-1.396 -2.755)" fill="#f1c518"/>
    </g>
  </g>
</svg>
