<svg xmlns="http://www.w3.org/2000/svg" width="35" height="35.002" viewBox="0 0 35 35.002">
  <g id="Group_221490" data-name="Group 221490" transform="translate(-1097.473 -2972.998)">
    <rect id="Rectangle_24140" data-name="Rectangle 24140" width="35" height="35" transform="translate(1097.473 2972.999)" fill="none" opacity="0"/>
    <g id="Group_221489" data-name="Group 221489" transform="translate(857.863 2738)">
      <g id="Group_221409" data-name="Group 221409" transform="translate(239.609 234.999)">
        <g id="Group_221408" data-name="Group 221408">
          <g id="Group_221407" data-name="Group 221407">
            <path id="Path_278965" data-name="Path 278965" d="M270.706,238.908a13.356,13.356,0,0,0-19.756,17.932l-1.377,1.379-.207-.207a1.443,1.443,0,0,0-2.043,0l-7.291,7.3a1.448,1.448,0,0,0,0,2.046l1.1,1.108,1.106,1.107a1.443,1.443,0,0,0,2.043,0l7.291-7.3a1.448,1.448,0,0,0,0-2.046l-.154-.154,1.377-1.379a13.358,13.358,0,0,0,17.906-19.785Zm-2.2,16.7a10.244,10.244,0,1,1,0-14.494A10.235,10.235,0,0,1,268.5,255.608Z" transform="translate(-239.609 -234.999)" fill="#315e8a"/>
          </g>
        </g>
      </g>
    </g>
  </g>
</svg>
