<svg xmlns="http://www.w3.org/2000/svg" width="35" height="35" viewBox="0 0 35 35">
  <g id="Group_221485" data-name="Group 221485" transform="translate(-1044.473 -2752)">
    <rect id="Rectangle_24137" data-name="Rectangle 24137" width="35" height="35" transform="translate(1044.473 2751.999)" fill="none" opacity="0"/>
    <g id="admin" transform="translate(1018.727 2751.999)">
      <circle id="Ellipse_9720" data-name="Ellipse 9720" cx="4.808" cy="4.808" r="4.808" transform="translate(38.355 11.089)" fill="#315e8a"/>
      <path id="Path_278982" data-name="Path 278982" d="M129.688,333.472a7.52,7.52,0,0,0-1.188,4.061v4.6h17.327v-4.6A7.533,7.533,0,0,0,138.294,330h-2.26A7.5,7.5,0,0,0,129.688,333.472Z" transform="translate(-94 -307.129)" fill="#315e8a"/>
      <path id="Path_278983" data-name="Path 278983" d="M58.688,18.725V12.463l-3.786-.9a12.433,12.433,0,0,0-.608-1.465l2.04-3.315L51.906,2.353l-3.315,2.04a12.428,12.428,0,0,0-1.464-.608L46.225,0H39.963l-.9,3.786a12.428,12.428,0,0,0-1.464.608l-3.315-2.04L29.853,6.782l2.04,3.315a12.434,12.434,0,0,0-.608,1.465l-3.786.9v6.263l3.786.9a12.434,12.434,0,0,0,.608,1.465l-2.05,3.331,3.071,2.941a9.628,9.628,0,0,1,6-6.053,6.887,6.887,0,1,1,8.508,0,9.621,9.621,0,0,1,6.027,6.154h0l2.875-3.081-2.025-3.291a12.433,12.433,0,0,0,.608-1.465Z" fill="#315e8a"/>
    </g>
  </g>
</svg>
