<svg xmlns="http://www.w3.org/2000/svg" width="35" height="35" viewBox="0 0 35 35">
  <g id="Group_221484" data-name="Group 221484" transform="translate(-986.473 -2670)">
    <rect id="Rectangle_24136" data-name="Rectangle 24136" width="35" height="35" transform="translate(986.473 2669.999)" fill="none" opacity="0"/>
    <g id="Group_221483" data-name="Group 221483" transform="translate(625.006 2539.564)">
      <path id="Path_278850" data-name="Path 278850" d="M389.75,150.4a4.142,4.142,0,0,0-1.21-2.529,2.084,2.084,0,0,0-1.583-.536v3.072h-.734v-3.367a2.855,2.855,0,0,0-1.358-1.481,3.288,3.288,0,0,0-1.84-.132v3.47H382.3v-3.9a2.5,2.5,0,0,0-1.855-.871,2.3,2.3,0,0,0-1.373.409L379,147.876h-.732l.02-6.044a5.833,5.833,0,1,0-3.725-.081v10.261s-1.893-4.063-3.491-4.6a2.622,2.622,0,0,0-2.6.425,58.369,58.369,0,0,1,3.154,7.114c.858,2.407,1.113,5.2,1.87,6.579,1.928,3.528,4.386,3.894,7.349,3.894s6.982.28,8.052-2.186.858-12.835.858-12.835Zm-16.524-14.132A3.326,3.326,0,1,1,378.3,139.1l.007-2.15s-.432-2.243-1.819-2.243-1.928,1.922-1.928,1.922v2.3a3.3,3.3,0,0,1-1.335-2.655Zm0,0" fill="#315e8a"/>
    </g>
  </g>
</svg>
