<svg xmlns="http://www.w3.org/2000/svg" width="141.171" height="119.998" viewBox="0 0 141.171 119.998">
  <g id="undraw_selecting_re_5ff6" transform="translate(0 -0.001)">
    <path id="Path_279036" data-name="Path 279036" d="M656.557,694.437l.14-3.141a10.145,10.145,0,0,1,4.732-1.2c-2.273,1.858-1.989,5.44-3.529,7.938a6.1,6.1,0,0,1-4.475,2.82l-1.9,1.164a10.225,10.225,0,0,1,2.155-8.286,9.886,9.886,0,0,1,1.815-1.687C655.949,693.25,656.557,694.437,656.557,694.437Z" transform="translate(-570.63 -582.668)" fill="#f2f2f2"/>
    <path id="Path_279037" data-name="Path 279037" d="M467.345,750.919a.306.306,0,0,1-.307.307H384.453a.307.307,0,1,1,0-.614h82.586a.306.306,0,0,1,.307.307Z" transform="translate(-356.202 -631.227)" fill="#ccc"/>
    <path id="Path_279038" data-name="Path 279038" d="M788.5,201.015H755.571a3.843,3.843,0,0,1-3.839-3.839V179.239a3.843,3.843,0,0,1,3.839-3.838H788.5a3.843,3.843,0,0,1,3.839,3.838v17.937A3.843,3.843,0,0,1,788.5,201.015Z" transform="translate(-651.172 -169.648)" fill="#f2f2f2"/>
    <path id="Path_279039" data-name="Path 279039" d="M533.986,201.015H501.053a3.843,3.843,0,0,1-3.839-3.839V179.239a3.843,3.843,0,0,1,3.839-3.838h32.934a3.843,3.843,0,0,1,3.839,3.838v17.937A3.843,3.843,0,0,1,533.986,201.015Z" transform="translate(-446.934 -169.648)" fill="#f2f2f2"/>
    <path id="Path_279040" data-name="Path 279040" d="M279.467,201.015H246.534a3.843,3.843,0,0,1-3.839-3.839V179.239a3.843,3.843,0,0,1,3.839-3.838h32.933a3.843,3.843,0,0,1,3.839,3.838v17.937A3.843,3.843,0,0,1,279.467,201.015Z" transform="translate(-242.695 -169.648)" fill="#f2f2f2"/>
    <path id="Path_279041" data-name="Path 279041" d="M532.939,200.225H500.005a4.1,4.1,0,0,1-4.1-4.1V178.192a4.1,4.1,0,0,1,4.1-4.1h32.933a4.1,4.1,0,0,1,4.1,4.1v17.937a4.1,4.1,0,0,1-4.1,4.1Zm-32.934-25.614a3.585,3.585,0,0,0-3.581,3.581v17.937a3.585,3.585,0,0,0,3.581,3.581h32.933a3.585,3.585,0,0,0,3.581-3.581V178.192a3.585,3.585,0,0,0-3.581-3.581Z" transform="translate(-445.887 -168.6)" fill="#f1c518"/>
    <path id="Path_339" data-name="Path 339" d="M327.834,154.943H327.7V151.29a2.114,2.114,0,0,0-2.114-2.114h-7.738a2.114,2.114,0,0,0-2.114,2.114v20.037a2.114,2.114,0,0,0,2.114,2.114h7.738a2.114,2.114,0,0,0,2.114-2.114V157.543h.133Z" transform="translate(-301.306 -148.604)" fill="#e6e6e6"/>
    <path id="Path_340" data-name="Path 340" d="M329.022,152.649v20.32a1.6,1.6,0,0,1-1.6,1.6h-7.9a1.6,1.6,0,0,1-1.6-1.6v-20.32a1.6,1.6,0,0,1,1.6-1.6h.958a.762.762,0,0,0,.705,1.049h4.5a.762.762,0,0,0,.705-1.049h1.026a1.6,1.6,0,0,1,1.6,1.6Z" transform="translate(-303.059 -150.104)" fill="#fff"/>
    <path id="Path_279042" data-name="Path 279042" d="M331.2,184.024h-7.293a.99.99,0,0,1-.989-.989v-10.26a4.523,4.523,0,0,1,4.518-4.518H331.2a.99.99,0,0,1,.989.989v13.788A.99.99,0,0,1,331.2,184.024Z" transform="translate(-307.071 -163.916)" fill="#f2f2f2"/>
    <circle id="Ellipse_7" data-name="Ellipse 7" cx="0.525" cy="0.525" r="0.525" transform="translate(15.876 21.528)" fill="#e6e6e6"/>
    <path id="Path_279043" data-name="Path 279043" d="M589.319,218.647h-5.8a.283.283,0,0,0-.092.014.308.308,0,0,0-.217.295v9.161h6.418v-9.161a.309.309,0,0,0-.31-.309Zm-2.195,4.52a.672.672,0,0,1-.139.411.685.685,0,0,1-1.231-.411V222.1a.685.685,0,1,1,1.37,0Z" transform="translate(-515.943 -204.351)" fill="#2f2e41"/>
    <path id="Path_279044" data-name="Path 279044" d="M583.112,265.1v.883a.173.173,0,0,0,.172.173H589.4a.174.174,0,0,0,.172-.173V265.1Z" transform="translate(-515.863 -241.627)" fill="#3f3d56"/>
    <path id="Path_279045" data-name="Path 279045" d="M558.786,146.282H534a.8.8,0,0,0-.8.8v16.726a.8.8,0,0,0,.8.8h24.787a.8.8,0,0,0,.8-.8V147.085A.8.8,0,0,0,558.786,146.282Z" transform="translate(-475.808 -146.282)" fill="#3f3d56"/>
    <path id="Path_279046" data-name="Path 279046" d="M560.938,149.221H536.565a.43.43,0,0,0-.43.431v16.312a.43.43,0,0,0,.43.43h24.373a.43.43,0,0,0,.43-.43V149.652a.43.43,0,0,0-.429-.431Z" transform="translate(-478.166 -148.64)" fill="#f1c518"/>
    <path id="Path_279047" data-name="Path 279047" d="M577.933,265.174l-.225-1.069a.267.267,0,0,0-.166-.194.258.258,0,0,0-.095-.018H563.4a.259.259,0,0,0-.095.018.267.267,0,0,0-.166.194l-.225,1.069a.267.267,0,0,0,.261.322h14.5a.263.263,0,0,0,.207-.1A.267.267,0,0,0,577.933,265.174Z" transform="translate(-499.647 -240.659)" fill="#2f2e41"/>
    <rect id="Rectangle_24155" data-name="Rectangle 24155" width="0.447" height="0.268" rx="0.134" transform="translate(63.852 23.427)" fill="#3f3d56"/>
    <rect id="Rectangle_24156" data-name="Rectangle 24156" width="0.447" height="0.268" rx="0.134" transform="translate(64.745 23.427)" fill="#3f3d56"/>
    <rect id="Rectangle_24157" data-name="Rectangle 24157" width="0.447" height="0.268" rx="0.134" transform="translate(65.638 23.427)" fill="#3f3d56"/>
    <rect id="Rectangle_24158" data-name="Rectangle 24158" width="0.447" height="0.268" rx="0.134" transform="translate(66.531 23.427)" fill="#3f3d56"/>
    <rect id="Rectangle_24159" data-name="Rectangle 24159" width="0.447" height="0.268" rx="0.134" transform="translate(67.425 23.427)" fill="#3f3d56"/>
    <rect id="Rectangle_24160" data-name="Rectangle 24160" width="0.447" height="0.268" rx="0.134" transform="translate(68.318 23.427)" fill="#3f3d56"/>
    <rect id="Rectangle_24161" data-name="Rectangle 24161" width="0.447" height="0.268" rx="0.134" transform="translate(69.211 23.427)" fill="#3f3d56"/>
    <rect id="Rectangle_24162" data-name="Rectangle 24162" width="0.447" height="0.268" rx="0.134" transform="translate(70.104 23.427)" fill="#3f3d56"/>
    <rect id="Rectangle_24163" data-name="Rectangle 24163" width="0.447" height="0.268" rx="0.134" transform="translate(70.997 23.427)" fill="#3f3d56"/>
    <rect id="Rectangle_24164" data-name="Rectangle 24164" width="0.447" height="0.268" rx="0.134" transform="translate(71.891 23.427)" fill="#3f3d56"/>
    <rect id="Rectangle_24165" data-name="Rectangle 24165" width="0.447" height="0.268" rx="0.134" transform="translate(72.784 23.427)" fill="#3f3d56"/>
    <rect id="Rectangle_24166" data-name="Rectangle 24166" width="0.447" height="0.268" rx="0.134" transform="translate(73.677 23.427)" fill="#3f3d56"/>
    <rect id="Rectangle_24167" data-name="Rectangle 24167" width="0.447" height="0.268" rx="0.134" transform="translate(74.57 23.427)" fill="#3f3d56"/>
    <rect id="Rectangle_24168" data-name="Rectangle 24168" width="0.447" height="0.268" rx="0.134" transform="translate(75.463 23.427)" fill="#3f3d56"/>
    <rect id="Rectangle_24169" data-name="Rectangle 24169" width="0.447" height="0.268" rx="0.134" transform="translate(76.357 23.427)" fill="#3f3d56"/>
    <rect id="Rectangle_24170" data-name="Rectangle 24170" width="0.447" height="0.268" rx="0.134" transform="translate(77.25 23.427)" fill="#3f3d56"/>
    <rect id="Rectangle_24171" data-name="Rectangle 24171" width="0.447" height="0.268" rx="0.134" transform="translate(63.841 23.874)" fill="#3f3d56"/>
    <rect id="Rectangle_24172" data-name="Rectangle 24172" width="0.447" height="0.268" rx="0.134" transform="translate(64.734 23.874)" fill="#3f3d56"/>
    <rect id="Rectangle_24173" data-name="Rectangle 24173" width="0.447" height="0.268" rx="0.134" transform="translate(65.628 23.874)" fill="#3f3d56"/>
    <rect id="Rectangle_24174" data-name="Rectangle 24174" width="0.447" height="0.268" rx="0.134" transform="translate(66.521 23.874)" fill="#3f3d56"/>
    <rect id="Rectangle_24175" data-name="Rectangle 24175" width="0.447" height="0.268" rx="0.134" transform="translate(67.414 23.874)" fill="#3f3d56"/>
    <rect id="Rectangle_24176" data-name="Rectangle 24176" width="0.447" height="0.268" rx="0.134" transform="translate(68.307 23.874)" fill="#3f3d56"/>
    <rect id="Rectangle_24177" data-name="Rectangle 24177" width="0.447" height="0.268" rx="0.134" transform="translate(69.201 23.874)" fill="#3f3d56"/>
    <rect id="Rectangle_24178" data-name="Rectangle 24178" width="0.447" height="0.268" rx="0.134" transform="translate(70.094 23.874)" fill="#3f3d56"/>
    <rect id="Rectangle_24179" data-name="Rectangle 24179" width="0.447" height="0.268" rx="0.134" transform="translate(70.987 23.874)" fill="#3f3d56"/>
    <rect id="Rectangle_24180" data-name="Rectangle 24180" width="0.447" height="0.268" rx="0.134" transform="translate(71.88 23.874)" fill="#3f3d56"/>
    <rect id="Rectangle_24181" data-name="Rectangle 24181" width="0.447" height="0.268" rx="0.134" transform="translate(72.773 23.874)" fill="#3f3d56"/>
    <rect id="Rectangle_24182" data-name="Rectangle 24182" width="0.447" height="0.268" rx="0.134" transform="translate(73.667 23.874)" fill="#3f3d56"/>
    <rect id="Rectangle_24183" data-name="Rectangle 24183" width="0.447" height="0.268" rx="0.134" transform="translate(74.56 23.874)" fill="#3f3d56"/>
    <rect id="Rectangle_24184" data-name="Rectangle 24184" width="0.447" height="0.268" rx="0.134" transform="translate(75.453 23.874)" fill="#3f3d56"/>
    <rect id="Rectangle_24185" data-name="Rectangle 24185" width="0.447" height="0.268" rx="0.134" transform="translate(76.346 23.874)" fill="#3f3d56"/>
    <rect id="Rectangle_24186" data-name="Rectangle 24186" width="0.447" height="0.268" rx="0.134" transform="translate(77.239 23.874)" fill="#3f3d56"/>
    <rect id="Rectangle_24187" data-name="Rectangle 24187" width="3.573" height="0.268" rx="0.134" transform="translate(68.129 24.409)" fill="#3f3d56"/>
    <path id="Path_279048" data-name="Path 279048" d="M562.481,159.858H539.676a.091.091,0,1,1,0-.181h22.805a.091.091,0,0,1,0,.181Z" transform="translate(-480.935 -157.03)" fill="#3f3d56"/>
    <ellipse id="Ellipse_9736" data-name="Ellipse 9736" cx="0.531" cy="0.543" rx="0.531" ry="0.543" transform="translate(59.762 1.097)" fill="#3f3d56"/>
    <ellipse id="Ellipse_9737" data-name="Ellipse 9737" cx="0.531" cy="0.543" rx="0.531" ry="0.543" transform="translate(61.598 1.097)" fill="#3f3d56"/>
    <ellipse id="Ellipse_9738" data-name="Ellipse 9738" cx="0.531" cy="0.543" rx="0.531" ry="0.543" transform="translate(63.434 1.097)" fill="#3f3d56"/>
    <path id="Path_279049" data-name="Path 279049" d="M644.2,152.512h-1.3a.1.1,0,0,0,0,.2h1.3a.1.1,0,1,0,0-.2Z" transform="translate(-563.759 -151.281)" fill="#3f3d56"/>
    <path id="Path_279050" data-name="Path 279050" d="M644.2,154.389h-1.3a.1.1,0,0,0,0,.2h1.3a.1.1,0,0,0,0-.2Z" transform="translate(-563.759 -152.787)" fill="#3f3d56"/>
    <path id="Path_279051" data-name="Path 279051" d="M644.2,156.265h-1.3a.1.1,0,0,0,0,.2h1.3a.1.1,0,0,0,0-.2Z" transform="translate(-563.759 -154.293)" fill="#3f3d56"/>
    <path id="Path_279052" data-name="Path 279052" d="M827.156,208.1H810.107a1.006,1.006,0,0,0-1,1v10.614a1.006,1.006,0,0,0,1,1h17.048a1.006,1.006,0,0,0,1-1V209.109A1.006,1.006,0,0,0,827.156,208.1Z" transform="translate(-697.209 -195.891)" fill="#f2f2f2"/>
    <path id="Path_279053" data-name="Path 279053" d="M827.156,208.1H810.107a1.006,1.006,0,0,0-1,1v10.614a1.006,1.006,0,0,0,1,1h17.048a1.006,1.006,0,0,0,1-1V209.109A1.006,1.006,0,0,0,827.156,208.1Zm.33,7.624a4.13,4.13,0,0,1-4.06,4.114c-1.73.023.957.031-1.129.031-4.771,0-9.745-.046-11.6-.075a.936.936,0,0,1-.917-.932v-9.757a.331.331,0,0,1,.33-.33h17.048a.331.331,0,0,1,.33.33Z" transform="translate(-697.209 -195.891)" fill="#e6e6e6"/>
    <path id="Path_279054" data-name="Path 279054" d="M826.69,177.165H813.7a.558.558,0,0,0-.525.37l-2.006,5.628a.557.557,0,0,0,.524.744l17.42.031h0a.557.557,0,0,0,.512-.777l-.03.013.03-.013L827.2,177.5A.557.557,0,0,0,826.69,177.165Z" transform="translate(-698.843 -171.064)" fill="#e6e6e6"/>
    <path id="Path_279055" data-name="Path 279055" d="M829.673,205.875a.559.559,0,0,1-.045.22l-2.425,4.356a.559.559,0,0,1-.512.337H813.7a.559.559,0,0,1-.525-.37l-2.006-4.325a.557.557,0,0,1,.338-.712.548.548,0,0,1,.186-.033l2.128,0h.869l11.429-.02h.869l2.127,0h0A.557.557,0,0,1,829.673,205.875Z" transform="translate(-698.842 -193.655)" fill="#e6e6e6"/>
    <path id="Path_279056" data-name="Path 279056" d="M818.764,248.407c.258,0,3.795.216,3.795.474s-3.537.459-3.795.459a.466.466,0,1,1,0-.933Z" transform="translate(-704.587 -228.232)" fill="#e6e6e6"/>
    <path id="Path_279057" data-name="Path 279057" d="M836.785,159.833H825.833a1.108,1.108,0,0,0-1.107,1.107v13.349h12.868a.551.551,0,0,0,.3-.087V160.94A1.108,1.108,0,0,0,836.785,159.833Z" transform="translate(-709.746 -157.156)" fill="#f2f2f2"/>
    <path id="Path_279058" data-name="Path 279058" d="M836.132,164.377h-6a1.009,1.009,0,0,0-1.008,1.008v12.55h11.429V168.8A4.424,4.424,0,0,0,836.132,164.377Z" transform="translate(-713.273 -160.802)" fill="#fff"/>
    <path id="Path_279059" data-name="Path 279059" d="M845.516,227.367h-7.535a.246.246,0,0,0,0,.491h7.535a.246.246,0,1,0,0-.491Z" transform="translate(-720.186 -211.348)" fill="#e4e4e4"/>
    <path id="Path_279060" data-name="Path 279060" d="M845.515,222.45H837.98a.246.246,0,1,0,0,.492h7.535a.246.246,0,1,0,0-.492Z" transform="translate(-720.185 -207.403)" fill="#e4e4e4"/>
    <path id="Path_279061" data-name="Path 279061" d="M841.246,217.536H837.98a.246.246,0,0,0,0,.491h3.266a.246.246,0,1,0,0-.491Z" transform="translate(-720.185 -203.459)" fill="#e4e4e4"/>
    <path id="Path_279062" data-name="Path 279062" d="M845.515,207.241H837.98a.246.246,0,1,0,0,.492h7.535a.246.246,0,1,0,0-.492Z" transform="translate(-720.185 -195.198)" fill="#e4e4e4"/>
    <path id="Path_279063" data-name="Path 279063" d="M845.516,202.327h-7.535a.246.246,0,0,0,0,.491h7.535a.246.246,0,1,0,0-.491Z" transform="translate(-720.186 -191.255)" fill="#e4e4e4"/>
    <path id="Path_279064" data-name="Path 279064" d="M841.245,197.41h-3.266a.246.246,0,0,0,0,.492h3.266a.246.246,0,1,0,0-.492Z" transform="translate(-720.184 -187.309)" fill="#e4e4e4"/>
    <path id="Path_279065" data-name="Path 279065" d="M845.515,187.115H837.98a.246.246,0,1,0,0,.492h7.534a.246.246,0,1,0,0-.492Z" transform="translate(-720.185 -179.048)" fill="#e4e4e4"/>
    <path id="Path_279066" data-name="Path 279066" d="M845.515,182.2H837.98a.246.246,0,1,0,0,.492h7.534a.246.246,0,1,0,0-.492Z" transform="translate(-720.185 -175.105)" fill="#e4e4e4"/>
    <path id="Path_279067" data-name="Path 279067" d="M841.245,177.285h-3.266a.246.246,0,0,0,0,.492h3.266a.246.246,0,1,0,0-.492Z" transform="translate(-720.184 -171.16)" fill="#e4e4e4"/>
    <path id="Path_279068" data-name="Path 279068" d="M636.814,263.483a1.844,1.844,0,0,0,1.009,2.642l.011,6.553,2.84-1.88-.446-5.935a1.854,1.854,0,0,0-3.414-1.38Z" transform="translate(-558.769 -239.558)" fill="#a0616a"/>
    <path id="Path_279069" data-name="Path 279069" d="M295.464,550.417l2.068.881,4.384-7.558-3.053-1.3Z" transform="translate(-237.095 -435.28)" fill="#a0616a"/>
    <path id="Path_279070" data-name="Path 279070" d="M381.982,557.5h2.248l1.07-8.672h-3.318Z" transform="translate(-306.522 -440.41)" fill="#a0616a"/>
    <path id="Path_279071" data-name="Path 279071" d="M624.278,735.706h6.914v-.088a2.691,2.691,0,0,0-2.691-2.691h0l-1.263-.958-2.356.958h-.6Z" transform="translate(-548.896 -616.267)" fill="#2f2e41"/>
    <path id="Path_279072" data-name="Path 279072" d="M531.792,726.322l6.36,2.71.034-.08a2.691,2.691,0,0,0-1.42-3.531h0l-.786-1.377L533.437,724l-.555-.237Z" transform="translate(-474.681 -609.684)" fill="#2f2e41"/>
    <path id="Path_279073" data-name="Path 279073" d="M561.442,473.379l3.417,20.806-.93,3.1,1.22,2.2-1.792,19.284.727,1.6-2.032,1.253h-4.135l-.219-17.458-1.022-2.563v-1.413L554.6,489.54l-.222,13.22-.664,1.281-5.948,15.569h-4.637l.359-2.763h0c-.831-.421,1.247-1.65,1.447-2.56l-.683-1.536.683-2.9,1.573-8.071L544.9,492.21l.576-6.159-.3-2.107.023-.681s.793-.306.036-1.069c-1.048-5.941.241-7.23.241-7.23l5.16-3.02Z" transform="translate(-483.776 -407.609)" fill="#2f2e41"/>
    <circle id="ab6171fa-7d69-4734-b81c-8dff60f9761b" cx="4.686" cy="4.686" r="4.686" transform="translate(64.659 28.997)" fill="#a0616a"/>
    <path id="Path_279074" data-name="Path 279074" d="M537.407,264.318a1.844,1.844,0,0,1-2.012,1.987l-2.723,5.961-1.807-2.887,2.863-5.218a1.854,1.854,0,0,1,3.679.157Z" transform="translate(-473.938 -239.624)" fill="#a0616a"/>
    <path id="Path_279075" data-name="Path 279075" d="M542.224,351.907l3.906-1.866a.443.443,0,0,0,.11-.075l2.727-2.529a.442.442,0,0,1,.3-.118l4.9-.037a.442.442,0,0,1,.354.173l1.491,1.939a.443.443,0,0,0,.208.149l4.064,1.381a.442.442,0,0,1,.3.44l-.73,15.1a.44.44,0,0,0,.035.2l.349.815a.441.441,0,0,1-.1.495c-.1.1-.22.211-.3.294-.151.167.171,1.475.219,1.666a.433.433,0,0,1,.009.049l.18,1.353a.442.442,0,0,1-.181.418h0a.442.442,0,0,0-.08.646l.4.467a.442.442,0,0,1,.1.227l.095.71a.442.442,0,0,1-.53.491c-2.455-.53-11.594-2.215-14.946,1.2a.442.442,0,0,1-.76-.343,9.189,9.189,0,0,1,.139-1.1l.327-2.072a.438.438,0,0,0,0-.145l-.3-1.715a.443.443,0,0,0-.123-.237l-.1-.1a.442.442,0,0,1,0-.626l.391-.391a.442.442,0,0,0,.126-.372l-.52-3.847c0-.008,0-.015,0-.023l-2.3-12.138A.443.443,0,0,1,542.224,351.907Z" transform="translate(-482.85 -307.575)" fill="#3f3d56"/>
    <path id="Path_279076" data-name="Path 279076" d="M587.409,338.808l-.06-.133h.023Z" transform="translate(-519.263 -300.668)" fill="#2f2e41"/>
    <path id="Path_279077" data-name="Path 279077" d="M380.334,166.342l4.875-6.732,2.466-3.7-2.285-11.051-3.291,2.528.259,6.162-4.406,6.218Z" transform="translate(-303.287 -116.239)" fill="#3f3d56"/>
    <path id="Path_279078" data-name="Path 279078" d="M570.554,285.914a2.635,2.635,0,0,0-.459-1.078,1.29,1.29,0,0,0-1.921-.058,1.414,1.414,0,0,0,.062-.663,3.594,3.594,0,0,1-1.085.323l.832-.868-4.14.38a1.821,1.821,0,0,0-1.2.419c-.314.325-.331,1.017.065,1.2a1.97,1.97,0,0,0-2.194.848,4.723,4.723,0,0,0-.74,2.575,4.949,4.949,0,0,0,.9,3.326,20.888,20.888,0,0,0,1.645,1.442l.016.016a4.663,4.663,0,0,0,4.513,1.257c.089-.025.178-.052.268-.077a1.086,1.086,0,0,0,1.283-.523,3.284,3.284,0,0,0,.372-1.673,13.734,13.734,0,0,0-.14-2.28c-.124-.85-.236-1.938.437-2.365.524-.332,1.175,0,1.7.321A8.754,8.754,0,0,0,570.554,285.914Z" transform="translate(-497.129 -256.447)" fill="#2f2e41"/>
    <path id="Path_279079" data-name="Path 279079" d="M270.058,159.875l-3.122-.225-5.419-6.635-4.023-5.766.926-2.344,5.548-9.427,2.908,2.33-2.776,9.119,5.5,5.5Z" transform="translate(-206.626 -108.714)" fill="#3f3d56"/>
    <circle id="Ellipse_9739" data-name="Ellipse 9739" cx="5.091" cy="5.091" r="5.091" transform="translate(85.293 0.046)" fill="#f1c518"/>
    <path id="Path_279080" data-name="Path 279080" d="M688.762,164.173a.566.566,0,0,1-.453-.227l-1.389-1.852a.566.566,0,0,1,.906-.68l.909,1.212,2.334-3.5a.566.566,0,0,1,.942.628l-2.778,4.167a.566.566,0,0,1-.455.252Z" transform="translate(-599.073 -156.385)" fill="#fff"/>
  </g>
</svg>
