<svg id="Available_on_the_App_Store__black__SVG" data-name="Available_on_the_App_Store_(black)_SVG" xmlns="http://www.w3.org/2000/svg" xmlns:xlink="http://www.w3.org/1999/xlink" width="202.446" height="60" viewBox="0 0 202.446 60">
  <defs>
    <linearGradient id="linear-gradient" x1="0.5" y1="0.023" x2="0.5" y2="0.924" gradientUnits="objectBoundingBox">
      <stop offset="0" stop-color="#1a1a1a" stop-opacity="0.102"/>
      <stop offset="0.123" stop-color="#212121" stop-opacity="0.149"/>
      <stop offset="0.308" stop-color="#353535" stop-opacity="0.227"/>
      <stop offset="0.532" stop-color="#575757" stop-opacity="0.318"/>
      <stop offset="0.783" stop-color="#858585" stop-opacity="0.42"/>
      <stop offset="1" stop-color="#b3b3b3" stop-opacity="0.51"/>
    </linearGradient>
  </defs>
  <path id="Path_270352" data-name="Path 270352" d="M200.658,52.471a5.746,5.746,0,0,1-5.753,5.747H6.65A5.754,5.754,0,0,1,.89,52.471V6.644A5.761,5.761,0,0,1,6.65.89H194.9a5.753,5.753,0,0,1,5.753,5.754l0,45.827Z" transform="translate(0.445 0.445)" fill="#fff"/>
  <path id="Path_270353" data-name="Path 270353" d="M195.351,60H7.1A7.1,7.1,0,0,1,0,52.917V7.091A7.1,7.1,0,0,1,7.1,0H195.349a7.1,7.1,0,0,1,7.1,7.091V52.917A7.1,7.1,0,0,1,195.351,60Z" transform="translate(0)" fill="#a6a6a6"/>
  <path id="Path_270354" data-name="Path 270354" d="M200.658,52.471a5.746,5.746,0,0,1-5.753,5.747H6.65A5.754,5.754,0,0,1,.89,52.471V6.644A5.761,5.761,0,0,1,6.65.89H194.9a5.753,5.753,0,0,1,5.753,5.754l0,45.827Z" transform="translate(0.445 0.445)"/>
  <path id="Path_270355" data-name="Path 270355" d="M38.8,23.494a8.7,8.7,0,0,1,4.143-7.3A8.908,8.908,0,0,0,35.93,12.4c-2.951-.311-5.814,1.766-7.318,1.766-1.533,0-3.849-1.736-6.344-1.685a9.341,9.341,0,0,0-7.862,4.8c-3.4,5.886-.864,14.536,2.393,19.294,1.629,2.332,3.533,4.932,6.026,4.84,2.438-.1,3.349-1.553,6.291-1.553,2.915,0,3.771,1.553,6.312,1.494,2.617-.041,4.264-2.341,5.837-4.692a19.234,19.234,0,0,0,2.669-5.436A8.415,8.415,0,0,1,38.8,23.494Z" transform="translate(6.401 6.191)" fill="#fff"/>
  <path id="Path_270356" data-name="Path 270356" d="M28.84,12.352A8.561,8.561,0,0,0,30.8,6.217a8.721,8.721,0,0,0-5.639,2.917,8.147,8.147,0,0,0-2.011,5.909A7.2,7.2,0,0,0,28.84,12.352Z" transform="translate(11.563 3.111)" fill="#fff"/>
  <path id="Path_270357" data-name="Path 270357" d="M163.828,0H62.993l39.5,60h61.34a7.1,7.1,0,0,0,7.1-7.088V7.091A7.1,7.1,0,0,0,163.828,0Z" transform="translate(31.523)" fill="url(#linear-gradient)"/>
  <g id="Group_216291" data-name="Group 216291" transform="translate(63.663 27.006)">
    <path id="Path_270358" data-name="Path 270358" d="M59.287,38.163H55.88L54.013,32.3H47.525l-1.778,5.865H42.43L48.859,18.2h3.97Zm-5.837-8.326-1.688-5.214q-.268-.8-1.007-3.762H50.7q-.3,1.274-.948,3.762l-1.659,5.214Z" transform="translate(-42.43 -17.9)" fill="#fff"/>
    <path id="Path_270359" data-name="Path 270359" d="M69.286,29.029a8.153,8.153,0,0,1-2,5.805,5.851,5.851,0,0,1-4.438,1.9,4.443,4.443,0,0,1-4.111-2.042v7.555h-3.2v-15.5q0-2.307-.119-4.732h2.813l.179,2.282h.06a5.691,5.691,0,0,1,9.109-.566A7.962,7.962,0,0,1,69.286,29.029Zm-3.259.117a5.936,5.936,0,0,0-.948-3.467,3.277,3.277,0,0,0-2.785-1.421,3.327,3.327,0,0,0-2.147.785,3.64,3.64,0,0,0-1.259,2.06,4.177,4.177,0,0,0-.149.974v2.4a3.852,3.852,0,0,0,.963,2.653,3.2,3.2,0,0,0,2.5,1.082,3.278,3.278,0,0,0,2.813-1.392A6.128,6.128,0,0,0,66.027,29.146Z" transform="translate(-35.928 -16.142)" fill="#fff"/>
    <path id="Path_270360" data-name="Path 270360" d="M80.324,29.029a8.153,8.153,0,0,1-2,5.805,5.854,5.854,0,0,1-4.44,1.9,4.443,4.443,0,0,1-4.111-2.042v7.555h-3.2v-15.5q0-2.307-.119-4.732h2.813l.179,2.282h.06a5.692,5.692,0,0,1,9.111-.566A7.97,7.97,0,0,1,80.324,29.029Zm-3.26.117a5.936,5.936,0,0,0-.95-3.467,3.272,3.272,0,0,0-2.782-1.421,3.34,3.34,0,0,0-2.15.785,3.638,3.638,0,0,0-1.257,2.06,4.274,4.274,0,0,0-.15.974v2.4a3.865,3.865,0,0,0,.962,2.653,3.2,3.2,0,0,0,2.506,1.082,3.275,3.275,0,0,0,2.813-1.392A6.128,6.128,0,0,0,77.063,29.146Z" transform="translate(-30.405 -16.142)" fill="#fff"/>
    <path id="Path_270361" data-name="Path 270361" d="M92.17,32.661A5.334,5.334,0,0,1,90.4,36.81a7.867,7.867,0,0,1-5.439,1.748,9.494,9.494,0,0,1-5.17-1.244l.74-2.666a8.9,8.9,0,0,0,4.621,1.245,4.36,4.36,0,0,0,2.813-.815A2.661,2.661,0,0,0,88.97,32.9a2.788,2.788,0,0,0-.831-2.045,7.706,7.706,0,0,0-2.755-1.539q-5.244-1.956-5.245-5.72A5.05,5.05,0,0,1,81.99,19.57,7.321,7.321,0,0,1,86.893,18a9.689,9.689,0,0,1,4.533.948l-.8,2.608a7.925,7.925,0,0,0-3.837-.918,3.9,3.9,0,0,0-2.647.83,2.374,2.374,0,0,0-.8,1.809,2.445,2.445,0,0,0,.92,1.955,10.362,10.362,0,0,0,2.9,1.539A9.837,9.837,0,0,1,90.951,29.2,5.06,5.06,0,0,1,92.17,32.661Z" transform="translate(-23.737 -17.999)" fill="#fff"/>
    <path id="Path_270362" data-name="Path 270362" d="M98.031,25.506H94.505V32.5q0,2.667,1.867,2.665a5.619,5.619,0,0,0,1.421-.149l.089,2.429a7.247,7.247,0,0,1-2.488.354,3.834,3.834,0,0,1-2.963-1.157,5.673,5.673,0,0,1-1.067-3.882V25.5h-2.1V23.1h2.1V20.463l3.142-.948V23.1h3.526Z" transform="translate(-18.994 -17.24)" fill="#fff"/>
    <path id="Path_270363" data-name="Path 270363" d="M110.392,29.086a7.9,7.9,0,0,1-1.9,5.451,6.76,6.76,0,0,1-5.272,2.192,6.444,6.444,0,0,1-5.052-2.1,7.659,7.659,0,0,1-1.882-5.3,7.834,7.834,0,0,1,1.94-5.48,6.725,6.725,0,0,1,5.23-2.134,6.579,6.579,0,0,1,5.094,2.1A7.559,7.559,0,0,1,110.392,29.086Zm-3.316.074a6.447,6.447,0,0,0-.857-3.4,3.166,3.166,0,0,0-2.875-1.715,3.212,3.212,0,0,0-2.933,1.715,6.554,6.554,0,0,0-.858,3.457,6.428,6.428,0,0,0,.858,3.4,3.281,3.281,0,0,0,5.781-.029A6.473,6.473,0,0,0,107.076,29.16Z" transform="translate(-15.478 -16.14)" fill="#fff"/>
    <path id="Path_270364" data-name="Path 270364" d="M115.192,24.82a5.567,5.567,0,0,0-1.008-.089,3.019,3.019,0,0,0-2.608,1.275,4.8,4.8,0,0,0-.8,2.843v7.555h-3.2V26.541q0-2.487-.093-4.533h2.786l.117,2.755h.089a4.939,4.939,0,0,1,1.6-2.282,3.868,3.868,0,0,1,2.312-.771,5.136,5.136,0,0,1,.8.059l0,3.052Z" transform="translate(-9.875 -16.142)" fill="#fff"/>
    <path id="Path_270365" data-name="Path 270365" d="M126.425,28.532a7.5,7.5,0,0,1-.117,1.451h-9.6a4.176,4.176,0,0,0,1.392,3.262,4.761,4.761,0,0,0,3.139,1.005,10.614,10.614,0,0,0,3.883-.68l.5,2.219a12,12,0,0,1-4.827.89,7,7,0,0,1-5.26-1.969,7.278,7.278,0,0,1-1.91-5.287A8.247,8.247,0,0,1,115.408,24a6.131,6.131,0,0,1,5.034-2.309A5.365,5.365,0,0,1,125.155,24,7.771,7.771,0,0,1,126.425,28.532Zm-3.05-.83a4.331,4.331,0,0,0-.621-2.459,2.793,2.793,0,0,0-2.548-1.335,3.033,3.033,0,0,0-2.546,1.3,4.779,4.779,0,0,0-.947,2.488l6.662,0Z" transform="translate(-6.801 -16.149)" fill="#fff"/>
  </g>
  <g id="Group_216292" data-name="Group 216292" transform="translate(64.854 9.832)">
    <path id="Path_270366" data-name="Path 270366" d="M51.511,16.706H49.835l-.917-2.882H45.73l-.875,2.882H43.224l3.16-9.814h1.951Zm-2.869-4.092-.83-2.563c-.087-.263-.248-.873-.5-1.849h-.03c-.1.422-.248,1.034-.467,1.849l-.815,2.563Z" transform="translate(-43.224 -6.383)" fill="#fff"/>
    <path id="Path_270367" data-name="Path 270367" d="M56.281,8.717,53.6,15.793H52.073L49.48,8.717h1.689l1.209,3.742c.2.626.378,1.223.509,1.79h.044c.117-.509.291-1.106.509-1.79l1.194-3.742h1.647Z" transform="translate(-40.093 -5.47)" fill="#fff"/>
    <path id="Path_270368" data-name="Path 270368" d="M59.282,15.841l-.117-.815h-.044A2.413,2.413,0,0,1,57.054,16a2.059,2.059,0,0,1-2.17-2.083c0-1.746,1.514-2.65,4.135-2.65v-.131c0-.932-.5-1.4-1.47-1.4a3.3,3.3,0,0,0-1.849.525l-.32-1.034a4.53,4.53,0,0,1,2.432-.612c1.849,0,2.782.975,2.782,2.927v2.606a10.509,10.509,0,0,0,.1,1.689l-1.415,0Zm-.219-3.524c-1.748,0-2.621.423-2.621,1.427a1,1,0,0,0,1.077,1.106,1.5,1.5,0,0,0,1.544-1.44V12.317Z" transform="translate(-37.389 -5.519)" fill="#fff"/>
    <path id="Path_270369" data-name="Path 270369" d="M61.335,8.567a.94.94,0,1,1,.99-.947A.924.924,0,0,1,61.335,8.567Zm.816,8.242H60.579V9.732h1.572Z" transform="translate(-34.627 -6.485)" fill="#fff"/>
    <path id="Path_270370" data-name="Path 270370" d="M65,16.876H63.43V6.553H65Z" transform="translate(-33.113 -6.553)" fill="#fff"/>
    <path id="Path_270371" data-name="Path 270371" d="M70.4,15.842l-.117-.815h-.044A2.413,2.413,0,0,1,68.171,16,2.059,2.059,0,0,1,66,13.92c0-1.746,1.514-2.65,4.135-2.65V11.14c0-.932-.5-1.4-1.47-1.4a3.3,3.3,0,0,0-1.849.525L66.5,9.231a4.53,4.53,0,0,1,2.432-.612c1.849,0,2.782.975,2.782,2.927v2.606a10.9,10.9,0,0,0,.1,1.689Zm-.219-3.524c-1.748,0-2.621.423-2.621,1.427a1,1,0,0,0,1.077,1.106,1.5,1.5,0,0,0,1.544-1.44Z" transform="translate(-31.826 -5.519)" fill="#fff"/>
    <path id="Path_270372" data-name="Path 270372" d="M75.282,17.036a2.4,2.4,0,0,1-2.225-1.253h-.032l-.09,1.092H71.6c.044-.567.059-1.209.059-1.907V6.553h1.574v4.282h.03a2.427,2.427,0,0,1,2.257-1.179c1.7,0,2.9,1.457,2.9,3.581C78.413,15.434,77.087,17.036,75.282,17.036Zm-.32-6.146a1.809,1.809,0,0,0-1.733,1.879v1.238a1.733,1.733,0,0,0,1.706,1.776c1.178,0,1.879-.96,1.879-2.489C76.812,11.867,76.083,10.891,74.962,10.891Z" transform="translate(-29.027 -6.553)" fill="#fff"/>
    <path id="Path_270373" data-name="Path 270373" d="M79.26,16.876H77.689V6.553H79.26Z" transform="translate(-25.977 -6.553)" fill="#fff"/>
    <path id="Path_270374" data-name="Path 270374" d="M86.521,12.687H81.8a2.031,2.031,0,0,0,2.228,2.1,5.308,5.308,0,0,0,1.907-.335l.245,1.092a5.9,5.9,0,0,1-2.372.437,3.285,3.285,0,0,1-3.524-3.566c0-2.17,1.341-3.8,3.347-3.8,1.8,0,2.942,1.34,2.942,3.364A2.961,2.961,0,0,1,86.521,12.687Zm-1.442-1.121c0-1.092-.554-1.864-1.559-1.864A1.867,1.867,0,0,0,81.8,11.566Z" transform="translate(-24.679 -5.524)" fill="#fff"/>
    <path id="Path_270375" data-name="Path 270375" d="M91.929,16a3.368,3.368,0,0,1-3.407-3.64A3.447,3.447,0,0,1,92.048,8.62a3.342,3.342,0,0,1,3.407,3.626A3.468,3.468,0,0,1,91.929,16Zm.06-6.233c-1.136,0-1.864,1.062-1.864,2.548,0,1.457.743,2.519,1.849,2.519s1.847-1.136,1.847-2.549C93.823,10.847,93.1,9.769,91.989,9.769Z" transform="translate(-20.556 -5.519)" fill="#fff"/>
    <path id="Path_270376" data-name="Path 270376" d="M100.845,15.842H99.274V11.779c0-1.251-.48-1.879-1.427-1.879a1.634,1.634,0,0,0-1.574,1.733v4.209H94.7V10.789c0-.626-.017-1.3-.059-2.024h1.383L96.1,9.857h.044a2.539,2.539,0,0,1,2.242-1.238c1.484,0,2.459,1.136,2.459,2.984v4.239Z" transform="translate(-17.493 -5.519)" fill="#fff"/>
    <path id="Path_270377" data-name="Path 270377" d="M107.07,10.484h-1.73V13.92q0,1.312.915,1.311a3.112,3.112,0,0,0,.7-.074L107,16.352a3.5,3.5,0,0,1-1.221.176c-1.239,0-1.979-.684-1.979-2.476V10.484h-1.032V9.3H103.8v-1.3l1.542-.467V9.3h1.73Z" transform="translate(-13.429 -6.058)" fill="#fff"/>
    <path id="Path_270378" data-name="Path 270378" d="M113.234,16.876H111.66V12.843c0-1.266-.48-1.907-1.427-1.907a1.54,1.54,0,0,0-1.571,1.674v4.266h-1.574V6.553h1.574V10.8h.03a2.381,2.381,0,0,1,2.126-1.151c1.5,0,2.416,1.164,2.416,3.014Z" transform="translate(-11.266 -6.553)" fill="#fff"/>
    <path id="Path_270379" data-name="Path 270379" d="M118.619,12.687H113.9a2.029,2.029,0,0,0,2.227,2.1,5.3,5.3,0,0,0,1.907-.335l.246,1.092a5.907,5.907,0,0,1-2.374.437,3.285,3.285,0,0,1-3.524-3.566c0-2.17,1.341-3.8,3.347-3.8,1.805,0,2.942,1.34,2.942,3.364A3.04,3.04,0,0,1,118.619,12.687Zm-1.442-1.121c0-1.092-.552-1.864-1.557-1.864a1.865,1.865,0,0,0-1.719,1.864Z" transform="translate(-8.616 -5.524)" fill="#fff"/>
  </g>
</svg>
