<svg xmlns="http://www.w3.org/2000/svg" viewBox="0 0 27.39 30"><defs><style>.cls-1{fill:#f0c51c;}</style></defs><g id="Layer_2" data-name="Layer 2"><g id="Layer_1-2" data-name="Layer 1"><path id="Path_275431" data-name="Path 275431" class="cls-1" d="M12.52,0A3.75,3.75,0,0,1,13,.38q7,7,14,14c.49.5.49.8,0,1.29l-14,14a1.22,1.22,0,0,1-.91.38H.89a1.74,1.74,0,0,1-.32,0A.64.64,0,0,1,0,29.27.69.69,0,0,1,.13,29a3.45,3.45,0,0,1,.26-.28L13.81,15.26a3.45,3.45,0,0,1,.28-.23c-.11-.13-.2-.21-.27-.29L.33,1.26C.09,1-.1.75.06.41A1.69,1.69,0,0,1,.45,0Z"/></g></g></svg>