<svg xmlns="http://www.w3.org/2000/svg" viewBox="0 0 59.22 38.52"><defs><style>.cls-1{fill:#fff;}</style></defs><g id="Layer_2" data-name="Layer 2"><g id="Layer_1-2" data-name="Layer 1"><path id="Path_11101" data-name="Path 11101" class="cls-1" d="M16.08,0a5.26,5.26,0,0,1,.65.49q9,9,18,17.94c.63.63.63,1,0,1.65q-9,9-18,18a1.54,1.54,0,0,1-1.16.49H1.15a3,3,0,0,1-.42,0A.84.84,0,0,1,0,37.58a.94.94,0,0,1,.16-.4q.15-.18.33-.36L17.74,19.6a4.07,4.07,0,0,1,.36-.3l-.36-.38L.43,1.62C.11,1.31-.13,1,.08.53A2.52,2.52,0,0,1,.58,0Z"/><path id="Path_11102" data-name="Path 11102" class="cls-1" d="M40.14,0a5.26,5.26,0,0,1,.65.49q9,9,18,17.94c.63.63.63,1,0,1.65q-9,9-17.95,18a1.54,1.54,0,0,1-1.16.49H25.2a2.84,2.84,0,0,1-.41,0,.84.84,0,0,1-.72-.92.83.83,0,0,1,.16-.4q.15-.18.33-.36L41.79,19.6a4.33,4.33,0,0,1,.37-.3l-.36-.38L24.48,1.62c-.31-.31-.55-.65-.34-1.09a2.52,2.52,0,0,1,.5-.53Z"/></g></g></svg>