<svg id="Google_Play_Store_badge_EN" xmlns="http://www.w3.org/2000/svg" xmlns:xlink="http://www.w3.org/1999/xlink" width="203.334" height="60" viewBox="0 0 203.334 60">
  <defs>
    <linearGradient id="linear-gradient" x1="2.472" y1="1.035" x2="2.361" y2="1.005" gradientUnits="objectBoundingBox">
      <stop offset="0" stop-color="#00a0ff"/>
      <stop offset="0.007" stop-color="#00a1ff"/>
      <stop offset="0.26" stop-color="#00beff"/>
      <stop offset="0.512" stop-color="#00d2ff"/>
      <stop offset="0.76" stop-color="#00dfff"/>
      <stop offset="1" stop-color="#00e3ff"/>
    </linearGradient>
    <linearGradient id="linear-gradient-2" x1="1.95" y1="1.879" x2="1.69" y2="1.879" gradientUnits="objectBoundingBox">
      <stop offset="0" stop-color="#ffe000"/>
      <stop offset="0.409" stop-color="#ffbd00"/>
      <stop offset="0.775" stop-color="orange"/>
      <stop offset="1" stop-color="#ff9c00"/>
    </linearGradient>
    <linearGradient id="linear-gradient-3" x1="1.926" y1="0.946" x2="1.835" y2="0.793" gradientUnits="objectBoundingBox">
      <stop offset="0" stop-color="#ff3a44"/>
      <stop offset="1" stop-color="#c31162"/>
    </linearGradient>
    <linearGradient id="linear-gradient-4" x1="1.856" y1="2.093" x2="1.897" y2="2.025" gradientUnits="objectBoundingBox">
      <stop offset="0" stop-color="#32a071"/>
      <stop offset="0.068" stop-color="#2da771"/>
      <stop offset="0.476" stop-color="#15cf74"/>
      <stop offset="0.801" stop-color="#06e775"/>
      <stop offset="1" stop-color="#00f076"/>
    </linearGradient>
  </defs>
  <path id="Path_270380" data-name="Path 270380" d="M195.8,60H7.534A7.538,7.538,0,0,1,0,52.5V7.5A7.528,7.528,0,0,1,7.534,0H195.8a7.53,7.53,0,0,1,7.534,7.5v45A7.54,7.54,0,0,1,195.8,60Z" transform="translate(0)" fill-rule="evenodd"/>
  <path id="Path_270381" data-name="Path 270381" d="M195.8,1.2a6.333,6.333,0,0,1,6.333,6.3v45a6.321,6.321,0,0,1-6.333,6.3H7.534A6.333,6.333,0,0,1,1.2,52.5V7.5A6.321,6.321,0,0,1,7.534,1.2Zm0-1.2H7.534A7.538,7.538,0,0,0,0,7.5v45A7.528,7.528,0,0,0,7.534,60H195.8a7.53,7.53,0,0,0,7.534-7.5V7.5A7.54,7.54,0,0,0,195.8,0Z" transform="translate(0)" fill="#a6a6a6" fill-rule="evenodd"/>
  <path id="Path_270382" data-name="Path 270382" d="M1699.536,281a4.565,4.565,0,0,1-3.408-1.41,4.8,4.8,0,0,1-1.377-3.441,4.7,4.7,0,0,1,1.377-3.438,4.551,4.551,0,0,1,3.4-1.41,4.613,4.613,0,0,1,3.408,1.41,4.982,4.982,0,0,1,0,6.875A4.527,4.527,0,0,1,1699.536,281Zm-40.4,0a4.734,4.734,0,0,1-3.423-1.392,4.848,4.848,0,0,1,3.423-8.3,4.77,4.77,0,0,1,1.912.4,3.866,3.866,0,0,1,1.455,1.04l.09.108-1.014.995-.105-.123a2.88,2.88,0,0,0-2.352-1.014,3.252,3.252,0,0,0-2.346.958,3.636,3.636,0,0,0,0,4.983,3.429,3.429,0,0,0,4.754,0,2.589,2.589,0,0,0,.688-1.56h-3.25v-1.4h4.646l.019.127a5.165,5.165,0,0,1,.067.7,4.212,4.212,0,0,1-1.16,3.1A4.527,4.527,0,0,1,1659.133,281Zm53.72-.2h-1.433l-4.388-7.021.038,1.264V280.8h-1.433v-9.3h1.635l.045.071,4.126,6.613-.037-1.261V271.5h1.448Zm-24.082,0h-1.452v-7.9H1684.8v-1.4h6.482v1.4h-2.517v7.9Zm-5.151,0h-1.448v-9.3h1.448Zm-8.136,0h-1.448v-7.9h-2.517v-1.4H1678v1.4h-2.518Zm-4.882-.015h-5.551V271.5h5.551v1.4h-4.1v2.551h3.7v1.384h-3.7v2.551h4.1Zm26.589-2.158a3.2,3.2,0,0,0,2.345.973,3.122,3.122,0,0,0,2.345-.973,3.686,3.686,0,0,0,0-4.953,3.21,3.21,0,0,0-2.346-.973,3.108,3.108,0,0,0-2.341.973,3.691,3.691,0,0,0-.008,4.953Z" transform="translate(-1592.418 -261.152)" fill="#fff"/>
  <path id="Path_270383" data-name="Path 270383" d="M1687.3,690.085a6.382,6.382,0,1,0,6.4,6.382A6.282,6.282,0,0,0,1687.3,690.085Zm0,10.234a3.878,3.878,0,1,1,3.6-3.868A3.693,3.693,0,0,1,1687.3,700.319Zm-13.964-10.234a6.382,6.382,0,1,0,6.4,6.382A6.282,6.282,0,0,0,1673.337,690.085Zm0,10.234a3.878,3.878,0,1,1,3.6-3.868A3.693,3.693,0,0,1,1673.337,700.319Zm-16.615-8.285v2.7h6.483a5.694,5.694,0,0,1-1.467,3.4,6.615,6.615,0,0,1-5,1.982,7.2,7.2,0,0,1,0-14.4,6.919,6.919,0,0,1,4.881,1.934l1.916-1.915a9.419,9.419,0,0,0-6.782-2.734,9.9,9.9,0,1,0,0,19.8,9.064,9.064,0,0,0,6.917-2.783,8.961,8.961,0,0,0,2.349-6.333,8.329,8.329,0,0,0-.15-1.683h-9.15S1656.721,692.034,1656.721,692.034Zm67.964,2.1a5.931,5.931,0,0,0-5.465-4.066,6.063,6.063,0,0,0-6.015,6.382,6.237,6.237,0,0,0,6.333,6.382,6.334,6.334,0,0,0,5.316-2.832l-2.166-1.451a3.629,3.629,0,0,1-3.135,1.766,3.259,3.259,0,0,1-3.1-1.934l8.532-3.535S1724.685,694.136,1724.685,694.136Zm-8.7,2.132a3.5,3.5,0,0,1,3.333-3.718,2.46,2.46,0,0,1,2.368,1.35Zm-6.931,6.183h2.8V683.7h-2.8Zm-4.6-10.949h-.1a4.42,4.42,0,0,0-3.366-1.433,6.381,6.381,0,0,0,0,12.752,4.408,4.408,0,0,0,3.366-1.451h.1v.917c0,2.435-1.3,3.748-3.4,3.748a3.538,3.538,0,0,1-3.217-2.267l-2.435,1.017a6.092,6.092,0,0,0,5.649,3.767c3.284,0,6.067-1.934,6.067-6.651v-11.45h-2.648V691.5Zm-3.217,8.817a3.88,3.88,0,0,1,0-7.732,3.587,3.587,0,0,1,3.4,3.883A3.543,3.543,0,0,1,1701.235,700.319ZM1737.8,683.7h-6.7v18.748h2.8v-7.1h3.9a5.833,5.833,0,1,0,0-11.648Zm.082,9.03H1733.9V686.3h3.984a3.218,3.218,0,1,1,0,6.434Zm17.3-2.682a5.277,5.277,0,0,0-5,2.865l2.484,1.032a2.664,2.664,0,0,1,2.551-1.384,2.706,2.706,0,0,1,2.952,2.416v.2a6.278,6.278,0,0,0-2.918-.718c-2.682,0-5.4,1.466-5.4,4.216,0,2.518,2.2,4.134,4.65,4.134a3.944,3.944,0,0,0,3.565-1.833h.1v1.451h2.7v-7.182C1760.868,691.9,1758.385,690.051,1755.186,690.051Zm-.352,10.268c-.917,0-2.2-.449-2.2-1.6,0-1.451,1.6-2,2.966-2a4.863,4.863,0,0,1,2.551.632A3.373,3.373,0,0,1,1754.835,700.319Zm15.886-9.868-3.217,8.132h-.1l-3.333-8.132h-3.015l5,11.368-2.85,6.318h2.918l7.695-17.686Zm-25.219,12h2.8V683.7h-2.8Z" transform="translate(-1585.102 -657.451)" fill="#fff" fill-rule="evenodd"/>
  <path id="Path_270384" data-name="Path 270384" d="M400.785,299.5a3.038,3.038,0,0,0-.685,2.117v33.168a2.892,2.892,0,0,0,.7,2.1l.116.1L419.5,318.4v-.415L400.9,299.4Z" transform="translate(-385.134 -288.201)" fill-rule="evenodd" fill="url(#linear-gradient)"/>
  <path id="Path_270385" data-name="Path 270385" d="M924.5,643.33l-6.2-6.2V636.7l6.2-6.2.135.082,7.332,4.167c2.1,1.182,2.1,3.135,0,4.332l-7.332,4.167Z" transform="translate(-883.95 -606.915)" fill-rule="evenodd" fill="url(#linear-gradient-2)"/>
  <path id="Path_270386" data-name="Path 270386" d="M443.432,808.333,437.1,802l-18.7,18.7c.685.733,1.833.816,3.116.1l21.916-12.468" transform="translate(-402.749 -772)" fill-rule="evenodd" fill="url(#linear-gradient-3)"/>
  <path id="Path_270387" data-name="Path 270387" d="M443.432,299.431l-21.916-12.449c-1.283-.733-2.435-.632-3.116.1l18.7,18.681Z" transform="translate(-402.749 -275.764)" fill-rule="evenodd" fill="url(#linear-gradient-4)"/>
  <path id="Path_270388" data-name="Path 270388" d="M443.683,967.7l-21.767,12.367a2.47,2.47,0,0,1-3,.015l-.116.116.116.1a2.476,2.476,0,0,0,3-.015l21.916-12.449Z" transform="translate(-403.134 -931.502)" fill-rule="evenodd" opacity="0.2"/>
  <path id="Path_270389" data-name="Path 270389" d="M1090.985,803.949,1083.5,808.2l.135.135,7.332-4.167a2.628,2.628,0,0,0,1.567-2.166A2.7,2.7,0,0,1,1090.985,803.949Z" transform="translate(-1042.97 -772)" fill-rule="evenodd" opacity="0.12"/>
  <path id="Path_270390" data-name="Path 270390" d="M403.9,287.031l29.248,16.616a2.757,2.757,0,0,1,1.567,1.949,2.627,2.627,0,0,0-1.567-2.166L403.9,286.814c-2.1-1.2-3.8-.2-3.8,2.2v.217C400.1,286.829,401.8,285.845,403.9,287.031Z" transform="translate(-385.134 -275.596)" fill="#fff" fill-rule="evenodd" opacity="0.25"/>
</svg>
