<svg xmlns="http://www.w3.org/2000/svg" width="138" height="84" viewBox="0 0 138 84">
  <g id="Group_219005" data-name="Group 219005" transform="translate(-1129.097 11849.612)">
    <path id="Path_11101" data-name="Path 11101" d="M467.661,218.656a5.366,5.366,0,0,1,.656.486q8.983,8.967,17.955,17.944c.631.632.634,1.023.008,1.648q-8.975,8.974-17.947,17.951a1.526,1.526,0,0,1-1.162.49q-7.221-.017-14.442-.007a2.764,2.764,0,0,1-.413-.014.826.826,0,0,1-.561-1.314,2.943,2.943,0,0,1,.329-.359q8.616-8.616,17.235-17.228c.1-.1.228-.191.362-.3-.154-.16-.253-.269-.357-.373q-8.656-8.655-17.315-17.307c-.313-.312-.559-.65-.346-1.092a2.341,2.341,0,0,1,.5-.524Z" transform="translate(755.579 -12068.166)" fill="#fff"/>
    <path id="Path_11102" data-name="Path 11102" d="M530.994,218.656a5.375,5.375,0,0,1,.656.486q8.982,8.967,17.955,17.944c.631.632.634,1.023.008,1.648q-8.975,8.974-17.947,17.951a1.526,1.526,0,0,1-1.163.49q-7.221-.017-14.442-.007a2.766,2.766,0,0,1-.413-.014.826.826,0,0,1-.561-1.314,2.929,2.929,0,0,1,.329-.359q8.616-8.616,17.235-17.228c.1-.1.228-.191.362-.3-.153-.16-.253-.269-.357-.373q-8.656-8.655-17.315-17.307c-.313-.312-.558-.65-.346-1.092a2.339,2.339,0,0,1,.5-.524Z" transform="translate(716.306 -12068.166)" fill="#fff"/>
    <path id="Path_11103" data-name="Path 11103" d="M253.391,371.091a12.337,12.337,0,0,1-5.291-4.119,10.832,10.832,0,0,1-2-6.35h8.581a5.542,5.542,0,0,0,1.745,3.891,6.18,6.18,0,0,0,4.319,1.43,6.641,6.641,0,0,0,4.4-1.345,4.37,4.37,0,0,0,1.6-3.518,4.067,4.067,0,0,0-1.088-2.918,7.612,7.612,0,0,0-2.717-1.8,45.433,45.433,0,0,0-4.491-1.459,48.1,48.1,0,0,1-6.322-2.26,11.064,11.064,0,0,1-4.176-3.375,9.618,9.618,0,0,1-1.744-6.035,10.782,10.782,0,0,1,1.774-6.178,11.276,11.276,0,0,1,4.977-4.034,18.118,18.118,0,0,1,7.322-1.4,15.887,15.887,0,0,1,10.04,3A11.136,11.136,0,0,1,274.588,343h-8.81a4.582,4.582,0,0,0-1.745-3.4,6.581,6.581,0,0,0-4.319-1.345,5.559,5.559,0,0,0-3.747,1.2,4.345,4.345,0,0,0-1.4,3.489,3.6,3.6,0,0,0,1.059,2.66,8.02,8.02,0,0,0,2.631,1.716q1.573.658,4.433,1.516a46.725,46.725,0,0,1,6.35,2.289,11.416,11.416,0,0,1,4.233,3.433,9.538,9.538,0,0,1,1.773,6.006,11.3,11.3,0,0,1-1.658,5.95,11.716,11.716,0,0,1-4.863,4.376,16.588,16.588,0,0,1-7.609,1.631,18.969,18.969,0,0,1-7.523-1.43" transform="translate(882.999 -12138.134)" fill="#fff"/>
    <path id="Path_11104" data-name="Path 11104" d="M353.68,333.124l-13.5,26.03v13.9H332.17v-13.9l-13.558-26.03h9.038l8.581,18.249,8.525-18.249Z" transform="translate(838.034 -12139.07)" fill="#fff"/>
    <path id="Path_11105" data-name="Path 11105" d="M451.544,372.963h-8.01l-18.134-27.4v27.4H417.39V332.975H425.4l18.134,27.459V332.975h8.01Z" transform="translate(776.781 -12138.977)" fill="#fff"/>
    <path id="Path_11106" data-name="Path 11106" d="M542.219,335.585a17.594,17.594,0,0,1,7.38,7.008,20.889,20.889,0,0,1,2.6,10.555,20.573,20.573,0,0,1-2.6,10.5,17.693,17.693,0,0,1-7.38,6.951,23.847,23.847,0,0,1-11.07,2.46H517.19V333.125h13.959a23.86,23.86,0,0,1,11.07,2.46m-1.631,27.231q3.432-3.432,3.432-9.668t-3.432-9.754q-3.432-3.518-9.725-3.518H525.2v26.373h5.664q6.292,0,9.725-3.432" transform="translate(714.896 -12139.07)" fill="#fff"/>
    <path id="Path_11107" data-name="Path 11107" d="M391.651,238.073a18.709,18.709,0,0,1-1.712,7.861c-.045.1-.092.2-.14.293,0,0,0,0,0,0a19.066,19.066,0,0,1-10.633,9.883,19.781,19.781,0,0,1-10.458.776,17.491,17.491,0,0,1-4.061-1.244l13.793-21.207-5.515-3.588-13.8,21.224q-.323-.294-.632-.605a19.544,19.544,0,0,1-3.9-5.537,19.07,19.07,0,0,1-.5-14.592c.026-.076.052-.151.081-.227a19.034,19.034,0,0,1,10.666-10.967,19.449,19.449,0,0,1,12.826-.52c.021.007.043.012.066.019a17.792,17.792,0,0,1,2.455.882,18.714,18.714,0,0,1,6.125,4.278,19.724,19.724,0,0,1,3.85,5.83,18.6,18.6,0,0,1,1.5,7.436" transform="translate(816.791 -12068.243)" fill="#f1c518"/>
    <path id="Path_11108" data-name="Path 11108" d="M271.63,231.26a6.123,6.123,0,0,0-2.5-2.316,8.165,8.165,0,0,0-3.744-.808,7.95,7.95,0,0,0-6.275,2.586,10.1,10.1,0,0,0-2.289,6.949q0,4.9,2.451,7.461t7.137,2.559a8.142,8.142,0,0,0,7.918-5.01H263.711v-7.595h19.715v10.235a19.329,19.329,0,0,1-3.636,5.656,18.633,18.633,0,0,1-6.06,4.336,19.648,19.648,0,0,1-8.349,1.7,20.359,20.359,0,0,1-10.1-2.451,17.033,17.033,0,0,1-6.787-6.841,22.136,22.136,0,0,1,0-20.038,17.093,17.093,0,0,1,6.76-6.841,20.215,20.215,0,0,1,10.073-2.451,19.472,19.472,0,0,1,11.85,3.448A14.631,14.631,0,0,1,283,231.26Z" transform="translate(883 -12067.998)" fill="#fff"/>
  </g>
</svg>
