<svg xmlns="http://www.w3.org/2000/svg" xmlns:xlink="http://www.w3.org/1999/xlink" width="379" height="412" viewBox="0 0 379 412">
  <defs>
    <linearGradient id="linear-gradient" x1="0.5" x2="0.5" y2="1" gradientUnits="objectBoundingBox">
      <stop offset="0" stop-color="#ffb300"/>
      <stop offset="1" stop-color="#ff813a"/>
    </linearGradient>
    <linearGradient id="linear-gradient-2" x1="0.5" x2="0.5" y2="1" gradientUnits="objectBoundingBox">
      <stop offset="0" stop-color="#d84727"/>
      <stop offset="0.656" stop-color="#ff3c88"/>
      <stop offset="1" stop-color="#ef7b45"/>
    </linearGradient>
    <linearGradient id="linear-gradient-3" x1="0.5" x2="0.5" y2="1" gradientUnits="objectBoundingBox">
      <stop offset="0" stop-color="#ae23e6"/>
      <stop offset="0.158" stop-color="#a025d8"/>
      <stop offset="0.453" stop-color="#7e2ab4"/>
      <stop offset="0.633" stop-color="#672e9b"/>
      <stop offset="0.701" stop-color="#632c96"/>
      <stop offset="0.771" stop-color="#59298a"/>
      <stop offset="0.841" stop-color="#492276"/>
      <stop offset="0.912" stop-color="#321a5a"/>
      <stop offset="0.982" stop-color="#140f35"/>
      <stop offset="1" stop-color="#0c0c2b"/>
    </linearGradient>
    <linearGradient id="linear-gradient-5" x1="0.5" y1="0" x2="0.5" y2="1" xlink:href="#linear-gradient-2"/>
    <linearGradient id="linear-gradient-9" x1="0.5" x2="0.5" y2="1" gradientUnits="objectBoundingBox">
      <stop offset="0" stop-color="#0c0c2b"/>
      <stop offset="0.164" stop-color="#1271ff"/>
      <stop offset="0.616" stop-color="#00e0ff"/>
      <stop offset="0.661" stop-color="#00dbfa"/>
      <stop offset="0.714" stop-color="#01cdec"/>
      <stop offset="0.77" stop-color="#02b5d4"/>
      <stop offset="0.829" stop-color="#0494b3"/>
      <stop offset="0.891" stop-color="#066a89"/>
      <stop offset="0.953" stop-color="#093756"/>
      <stop offset="1" stop-color="#0c0c2b"/>
    </linearGradient>
    <linearGradient id="linear-gradient-10" x1="0.5" x2="0.5" y2="1" gradientUnits="objectBoundingBox">
      <stop offset="0" stop-color="#045bba"/>
      <stop offset="0.233" stop-color="#f9c80e"/>
      <stop offset="0.82" stop-color="#ff3c88"/>
      <stop offset="1" stop-color="#0070ff"/>
    </linearGradient>
    <linearGradient id="linear-gradient-11" x1="1.781" y1="-0.447" x2="1.781" y2="0.004" gradientUnits="objectBoundingBox">
      <stop offset="0" stop-color="#1d222e"/>
      <stop offset="0.164" stop-color="#1271ff"/>
      <stop offset="0.616" stop-color="#00e0ff"/>
      <stop offset="0.661" stop-color="#00dbfa"/>
      <stop offset="0.714" stop-color="#01cdec"/>
      <stop offset="0.77" stop-color="#02b5d4"/>
      <stop offset="0.829" stop-color="#0494b3"/>
      <stop offset="0.891" stop-color="#066a89"/>
      <stop offset="0.953" stop-color="#093756"/>
      <stop offset="1" stop-color="#0c0c2b"/>
    </linearGradient>
    <linearGradient id="linear-gradient-12" x1="0.5" x2="0.5" y2="1" gradientUnits="objectBoundingBox">
      <stop offset="0" stop-color="#0c0c2b"/>
      <stop offset="0.232" stop-color="#ffb300"/>
      <stop offset="0.415" stop-color="#ffb001"/>
      <stop offset="0.498" stop-color="#ffa906"/>
      <stop offset="0.561" stop-color="#ff9c0f"/>
      <stop offset="0.613" stop-color="#ff8a1c"/>
      <stop offset="0.66" stop-color="#ff732d"/>
      <stop offset="0.701" stop-color="#ff5641"/>
      <stop offset="0.731" stop-color="#ff3c54"/>
      <stop offset="1" stop-color="#0c0c2b"/>
    </linearGradient>
    <linearGradient id="linear-gradient-13" x1="0.5" x2="0.5" y2="1" gradientUnits="objectBoundingBox">
      <stop offset="0" stop-color="#0c0c2b"/>
      <stop offset="0.232" stop-color="#ffb300"/>
      <stop offset="0.656" stop-color="#ff3c88"/>
      <stop offset="1" stop-color="#0c0c2b"/>
    </linearGradient>
    <linearGradient id="linear-gradient-14" x1="-5.69" y1="5.731" x2="-5.69" y2="6.272" gradientUnits="objectBoundingBox">
      <stop offset="0" stop-color="#1d222e"/>
      <stop offset="0.164" stop-color="#1271ff"/>
      <stop offset="0.616" stop-color="#00e0ff"/>
      <stop offset="0.661" stop-color="#00dbfa"/>
      <stop offset="0.714" stop-color="#01cdec"/>
      <stop offset="0.77" stop-color="#02b5d4"/>
      <stop offset="0.829" stop-color="#0494b3"/>
      <stop offset="0.891" stop-color="#066a89"/>
      <stop offset="0.953" stop-color="#093756"/>
      <stop offset="1" stop-color="#0c1222"/>
    </linearGradient>
    <linearGradient id="linear-gradient-15" x1="0.5" y1="-0.076" x2="0.5" y2="1.06" gradientUnits="objectBoundingBox">
      <stop offset="0" stop-color="#0c0c2b"/>
      <stop offset="0.042" stop-color="#34115a"/>
      <stop offset="0.086" stop-color="#591784"/>
      <stop offset="0.132" stop-color="#781ba7"/>
      <stop offset="0.177" stop-color="#8f1ec3"/>
      <stop offset="0.223" stop-color="#a021d6"/>
      <stop offset="0.27" stop-color="#aa22e2"/>
      <stop offset="0.318" stop-color="#ae23e6"/>
      <stop offset="0.38" stop-color="#a025d8"/>
      <stop offset="0.497" stop-color="#7e2ab4"/>
      <stop offset="0.568" stop-color="#672e9b"/>
      <stop offset="0.649" stop-color="#632c96"/>
      <stop offset="0.731" stop-color="#59298a"/>
      <stop offset="0.813" stop-color="#492276"/>
      <stop offset="0.896" stop-color="#321a5a"/>
      <stop offset="0.978" stop-color="#140f35"/>
      <stop offset="1" stop-color="#0c0c2b"/>
    </linearGradient>
    <linearGradient id="linear-gradient-16" x1="-2.134" y1="1.345" x2="-2.134" y2="1.428" xlink:href="#linear-gradient-14"/>
    <linearGradient id="linear-gradient-17" x1="0.5" y1="0.081" x2="0.5" y2="1.02" gradientUnits="objectBoundingBox">
      <stop offset="0" stop-color="#e7e7f2"/>
      <stop offset="0.234" stop-color="#e2e2ef"/>
      <stop offset="0.471" stop-color="#d6d6e9"/>
      <stop offset="0.709" stop-color="#c2c2df"/>
      <stop offset="0.947" stop-color="#a6a6d1"/>
      <stop offset="1" stop-color="#9f9fce"/>
    </linearGradient>
    <linearGradient id="linear-gradient-18" x1="0.5" x2="0.5" y2="1" gradientUnits="objectBoundingBox">
      <stop offset="0" stop-color="#1271ff"/>
      <stop offset="0.017" stop-color="#217bfe"/>
      <stop offset="0.078" stop-color="#559dfb"/>
      <stop offset="0.139" stop-color="#80baf9"/>
      <stop offset="0.197" stop-color="#a1d0f8"/>
      <stop offset="0.253" stop-color="#b9e0f6"/>
      <stop offset="0.304" stop-color="#c8e9f6"/>
      <stop offset="0.347" stop-color="#cdedf6"/>
      <stop offset="0.51" stop-color="#00e0ff"/>
      <stop offset="0.599" stop-color="#00dbff"/>
      <stop offset="0.693" stop-color="#02cfff"/>
      <stop offset="0.79" stop-color="#06b9ff"/>
      <stop offset="0.888" stop-color="#0a9cff"/>
      <stop offset="0.987" stop-color="#1176ff"/>
      <stop offset="1" stop-color="#1271ff"/>
    </linearGradient>
    <linearGradient id="linear-gradient-19" y1="0.5" x2="1" y2="0.5" gradientUnits="objectBoundingBox">
      <stop offset="0" stop-color="#bcbcdb"/>
      <stop offset="0.085" stop-color="#c6c6e2"/>
      <stop offset="0.192" stop-color="#dadaf2"/>
      <stop offset="0.635" stop-color="#adadd6"/>
    </linearGradient>
    <linearGradient id="linear-gradient-20" x1="-0.356" y1="0.809" x2="0.55" y2="0.319" xlink:href="#linear-gradient-2"/>
    <linearGradient id="linear-gradient-21" x1="-19.163" y1="-1.595" x2="-19.163" y2="-1.378" xlink:href="#linear-gradient-14"/>
    <linearGradient id="linear-gradient-22" y1="0.5" x2="1" y2="0.5" gradientUnits="objectBoundingBox">
      <stop offset="0" stop-color="#bcbcdb"/>
      <stop offset="0.085" stop-color="#c6c6e2"/>
      <stop offset="0.192" stop-color="#dadaf2"/>
      <stop offset="1" stop-color="#adadd6"/>
    </linearGradient>
    <linearGradient id="linear-gradient-23" x1="0.505" y1="0.752" x2="1.314" y2="0.149" gradientUnits="objectBoundingBox">
      <stop offset="0" stop-color="#d84727"/>
      <stop offset="0.433" stop-color="#f9c80e"/>
      <stop offset="1" stop-color="#ef7b45"/>
    </linearGradient>
    <linearGradient id="linear-gradient-24" x1="-2.32" y1="3.832" x2="-2.32" y2="4.068" xlink:href="#linear-gradient-14"/>
    <linearGradient id="linear-gradient-25" x1="2.854" y1="2.008" x2="2.854" y2="4.766" gradientUnits="objectBoundingBox">
      <stop offset="0" stop-color="#1d222e"/>
      <stop offset="0.232" stop-color="#ffb300"/>
      <stop offset="0.656" stop-color="#ff3c88"/>
      <stop offset="1" stop-color="#0c1222"/>
    </linearGradient>
    <linearGradient id="linear-gradient-26" x1="0.827" y1="0.034" x2="0.293" y2="0.943" xlink:href="#linear-gradient-2"/>
    <linearGradient id="linear-gradient-27" x1="0.5" x2="0.5" y2="1" gradientUnits="objectBoundingBox">
      <stop offset="0" stop-color="#f9c80e"/>
      <stop offset="0.656" stop-color="#ff3c88"/>
      <stop offset="1" stop-color="#0c0c2b"/>
    </linearGradient>
    <linearGradient id="linear-gradient-29" x1="0.5" x2="0.5" y2="1" gradientUnits="objectBoundingBox">
      <stop offset="0" stop-color="#672e9b"/>
      <stop offset="1" stop-color="#401f6b"/>
    </linearGradient>
    <linearGradient id="linear-gradient-30" x1="-0.16" y1="-0.332" x2="0.909" y2="1.159" xlink:href="#linear-gradient-9"/>
    <linearGradient id="linear-gradient-31" x1="0.5" y1="0" x2="0.5" y2="1" xlink:href="#linear-gradient-27"/>
    <linearGradient id="linear-gradient-32" x1="-13.222" y1="-1.554" x2="-13.222" y2="-1.342" xlink:href="#linear-gradient-14"/>
    <linearGradient id="linear-gradient-33" x1="-0.153" y1="-0.314" x2="0.959" y2="1.243" xlink:href="#linear-gradient-9"/>
    <linearGradient id="linear-gradient-35" x1="0.5" y1="0" x2="0.5" y2="1" xlink:href="#linear-gradient-27"/>
    <linearGradient id="linear-gradient-37" x1="-0.134" y1="-0.347" x2="1.024" y2="1.249" xlink:href="#linear-gradient-9"/>
    <linearGradient id="linear-gradient-39" x1="-1.92" y1="4.537" x2="-1.92" y2="4.746" xlink:href="#linear-gradient-14"/>
    <linearGradient id="linear-gradient-40" x1="0.329" y1="0.869" x2="1.251" y2="0.077" xlink:href="#linear-gradient-23"/>
    <linearGradient id="linear-gradient-47" x1="0.5" y1="0" x2="0.5" y2="1" xlink:href="#linear-gradient-12"/>
    <linearGradient id="linear-gradient-48" x1="0.5" y1="0" x2="0.5" y2="1" xlink:href="#linear-gradient-12"/>
    <linearGradient id="linear-gradient-50" x1="-0.137" y1="0.5" x2="0.406" y2="0.5" xlink:href="#linear-gradient-19"/>
    <linearGradient id="linear-gradient-51" x1="0.5" y1="1" x2="0.5" gradientUnits="objectBoundingBox">
      <stop offset="0" stop-color="#5230aa"/>
      <stop offset="0.202" stop-color="#4934ab"/>
      <stop offset="0.527" stop-color="#3141b0"/>
      <stop offset="0.933" stop-color="#0b57b8"/>
      <stop offset="1" stop-color="#045bba"/>
    </linearGradient>
    <linearGradient id="linear-gradient-52" x1="0.5" x2="0.5" y2="1" gradientUnits="objectBoundingBox">
      <stop offset="0" stop-color="#c6c6e5"/>
      <stop offset="0.047" stop-color="#cfcfe8"/>
      <stop offset="0.144" stop-color="#dde"/>
      <stop offset="0.267" stop-color="#e4e4f1"/>
      <stop offset="0.51" stop-color="#e7e7f2"/>
      <stop offset="0.746" stop-color="#e4e4f1"/>
      <stop offset="0.863" stop-color="#dde"/>
      <stop offset="0.954" stop-color="#cfcfe8"/>
      <stop offset="1" stop-color="#c6c6e5"/>
    </linearGradient>
    <linearGradient id="linear-gradient-53" x1="0.5" y1="-0.007" x2="0.5" y2="2.241" xlink:href="#linear-gradient-9"/>
    <linearGradient id="linear-gradient-54" x1="0.5" y1="-1.364" x2="0.5" y2="1.112" xlink:href="#linear-gradient-9"/>
    <linearGradient id="linear-gradient-56" x1="0.5" y1="-0.047" x2="0.5" y2="1.136" xlink:href="#linear-gradient-9"/>
    <linearGradient id="linear-gradient-59" x1="0.5" y1="-0.047" x2="0.5" y2="1.002" xlink:href="#linear-gradient-9"/>
    <linearGradient id="linear-gradient-60" x1="0.5" x2="0.5" y2="1" gradientUnits="objectBoundingBox">
      <stop offset="0" stop-color="#672e9b"/>
      <stop offset="0.248" stop-color="#f9c80e"/>
      <stop offset="0.856" stop-color="#ff3c54"/>
      <stop offset="1" stop-color="#672e9b"/>
    </linearGradient>
    <linearGradient id="linear-gradient-65" x1="0.018" y1="0.011" x2="0.982" y2="0.989" gradientUnits="objectBoundingBox">
      <stop offset="0" stop-color="#2c2c4f"/>
      <stop offset="0.233" stop-color="#59598b"/>
      <stop offset="0.281" stop-color="#515181"/>
      <stop offset="0.425" stop-color="#41416b"/>
      <stop offset="0.581" stop-color="#35355b"/>
      <stop offset="0.758" stop-color="#2e2e51"/>
      <stop offset="1" stop-color="#2c2c4f"/>
    </linearGradient>
    <linearGradient id="linear-gradient-66" x1="0.5" y1="-0.044" x2="0.5" y2="1.169" xlink:href="#linear-gradient-9"/>
    <linearGradient id="linear-gradient-67" x1="0.289" y1="-0.501" x2="0.683" y2="1.549" xlink:href="#linear-gradient-51"/>
    <linearGradient id="linear-gradient-68" x1="0.309" y1="-0.132" x2="0.712" y2="1.354" xlink:href="#linear-gradient-51"/>
    <linearGradient id="linear-gradient-70" x1="150.774" y1="6.243" x2="150.774" y2="8.022" xlink:href="#linear-gradient-25"/>
    <linearGradient id="linear-gradient-71" x1="63.517" y1="12.394" x2="63.517" y2="15.64" xlink:href="#linear-gradient-25"/>
    <linearGradient id="linear-gradient-72" x1="26.6" y1="3.563" x2="26.6" y2="4.377" xlink:href="#linear-gradient-25"/>
    <linearGradient id="linear-gradient-73" x1="14.511" y1="4.107" x2="14.511" y2="4.293" xlink:href="#linear-gradient-14"/>
    <linearGradient id="linear-gradient-75" x1="39.386" y1="7.796" x2="39.386" y2="8.114" xlink:href="#linear-gradient-14"/>
    <linearGradient id="linear-gradient-76" x1="31.332" y1="6.548" x2="31.332" y2="8.139" xlink:href="#linear-gradient-25"/>
    <linearGradient id="linear-gradient-77" x1="50.328" y1="5.411" x2="50.328" y2="6.531" xlink:href="#linear-gradient-25"/>
    <linearGradient id="linear-gradient-78" x1="42.829" y1="7.366" x2="42.829" y2="7.663" xlink:href="#linear-gradient-14"/>
    <linearGradient id="linear-gradient-79" x1="0.5" x2="0.5" y2="1" gradientUnits="objectBoundingBox">
      <stop offset="0" stop-color="#672e9b"/>
      <stop offset="0.368" stop-color="#ea3546"/>
      <stop offset="1" stop-color="#672e9b"/>
    </linearGradient>
    <linearGradient id="linear-gradient-80" x1="19.247" y1="5.506" x2="19.247" y2="7.083" xlink:href="#linear-gradient-25"/>
    <linearGradient id="linear-gradient-81" x1="51.9" y1="5.133" x2="51.9" y2="6.183" xlink:href="#linear-gradient-25"/>
    <linearGradient id="linear-gradient-82" x1="-0.005" y1="0.008" x2="1.005" y2="0.992" gradientUnits="objectBoundingBox">
      <stop offset="0" stop-color="#ffb300"/>
      <stop offset="0.321" stop-color="#ffb102"/>
      <stop offset="0.485" stop-color="#ffaa0a"/>
      <stop offset="0.613" stop-color="#ff9e17"/>
      <stop offset="0.723" stop-color="#ff8e2a"/>
      <stop offset="0.821" stop-color="#ff7842"/>
      <stop offset="0.91" stop-color="#ff5e60"/>
      <stop offset="0.992" stop-color="#ff3f84"/>
      <stop offset="1" stop-color="#ff3c88"/>
    </linearGradient>
    <linearGradient id="linear-gradient-83" x1="47.188" y1="8.227" x2="47.188" y2="8.564" xlink:href="#linear-gradient-14"/>
    <linearGradient id="linear-gradient-84" x1="53.462" y1="5.689" x2="53.462" y2="6.879" xlink:href="#linear-gradient-25"/>
    <linearGradient id="linear-gradient-85" x1="53.11" y1="9.909" x2="53.11" y2="10.325" xlink:href="#linear-gradient-14"/>
    <linearGradient id="linear-gradient-86" x1="49.769" y1="2.287" x2="49.769" y2="2.782" xlink:href="#linear-gradient-25"/>
    <linearGradient id="linear-gradient-88" x1="0.5" y1="0" x2="0.5" y2="0.997" xlink:href="#linear-gradient-52"/>
  </defs>
  <g id="Group_221122" data-name="Group 221122" transform="translate(-379.975 -80.802)">
    <g id="Group_219383" data-name="Group 219383" transform="translate(381.472 360.558)">
      <rect id="Rectangle_23864" data-name="Rectangle 23864" width="5.694" height="10.05" transform="translate(337.695 90.052)" fill="#00abff"/>
      <rect id="Rectangle_23865" data-name="Rectangle 23865" width="5.694" height="11.476" transform="translate(337.695 78.576)" fill="url(#linear-gradient)"/>
      <path id="Path_275432" data-name="Path 275432" d="M677.347,432.089a21.481,21.481,0,0,0,18.213,10.05h12.283v4.584a6.031,6.031,0,0,1-6.036,6.032H556.62V448.4a24.147,24.147,0,1,0,0-48.295V385.09A12.768,12.768,0,0,1,569.4,372.33H707.843v48.283H674.022A21.328,21.328,0,0,0,677.347,432.089Z" transform="translate(-370.148 -342.037)" fill="#c6c6e5"/>
      <path id="Path_275433" data-name="Path 275433" d="M700.57,428.519v10.05H688.287a21.481,21.481,0,0,1-18.213-10.05Z" transform="translate(-362.875 -338.468)" fill="#8888bf"/>
      <path id="Path_275434" data-name="Path 275434" d="M700.77,417.729V429.2h-30.5a21.327,21.327,0,0,1-3.325-11.475Z" transform="translate(-363.076 -339.153)" fill="url(#linear-gradient-2)"/>
      <path id="Path_275435" data-name="Path 275435" d="M707.843,348.513v25.627H569.4A12.768,12.768,0,0,0,556.62,386.9V356.607a12.765,12.765,0,0,1,12.767-12.76H703.175A4.663,4.663,0,0,1,707.843,348.513Z" transform="translate(-370.148 -343.847)" fill="#9f9fce"/>
      <path id="Path_275436" data-name="Path 275436" d="M704.388,447.951v15.925a5.6,5.6,0,0,1-5.6,5.6H544.146a52.34,52.34,0,0,1-28.693-21.526H704.388Z" transform="translate(-372.787 -337.233)" fill="#9f9fce"/>
      <path id="Path_275437" data-name="Path 275437" d="M556.983,407.315a14.71,14.71,0,1,1-6.024,28.137v-5.727a9.773,9.773,0,1,0,0-15.4v-5.714A14.5,14.5,0,0,1,556.983,407.315Z" transform="translate(-370.511 -339.815)" fill="#9f9fce"/>
      <path id="Path_275438" data-name="Path 275438" d="M556.983,411.957a9.773,9.773,0,1,1-6.024,17.473v-15.4A9.756,9.756,0,0,1,556.983,411.957Z" transform="translate(-370.511 -339.52)" fill="url(#linear-gradient-3)"/>
      <path id="Path_275439" data-name="Path 275439" d="M551.482,429.647v5.727a14.709,14.709,0,0,1,0-26.84v5.714a9.762,9.762,0,0,0,0,15.4Z" transform="translate(-371.035 -339.737)" fill="url(#linear-gradient)"/>
      <path id="Path_275440" data-name="Path 275440" d="M551.185,413.907v15.4a9.762,9.762,0,0,1,0-15.4Z" transform="translate(-370.738 -339.396)" fill="url(#linear-gradient-5)"/>
      <path id="Path_275441" data-name="Path 275441" d="M548.931,469.477h-86.6A21.532,21.532,0,0,1,440.8,447.951h79.443A52.34,52.34,0,0,0,548.931,469.477Z" transform="translate(-377.573 -337.233)" fill="#c6c6e5"/>
      <path id="Path_275442" data-name="Path 275442" d="M550.147,440.089v4.006H381.382V419.906a45.731,45.731,0,0,0,20.713-38.221V381.6H498.95v17.909h24.013a6.655,6.655,0,0,0,6.65-6.646,18.007,18.007,0,0,0,15.725-9.213,11.255,11.255,0,0,1,4.81,9.238v14.339a24.123,24.123,0,0,0,0,32.86Z" transform="translate(-381.382 -341.448)" fill="#9f9fce"/>
      <path id="Path_275443" data-name="Path 275443" d="M536.407,383.652a18.007,18.007,0,0,1-15.725,9.213v-6.527a11.488,11.488,0,0,0,9.3-4.736A11.176,11.176,0,0,1,536.407,383.652Z" transform="translate(-372.452 -341.448)" fill="#00abff"/>
      <path id="Path_275444" data-name="Path 275444" d="M532.855,375.952a11.48,11.48,0,0,1-2.18,6.74h-9.3v4.736a11.487,11.487,0,0,1-9.3-4.736,11.334,11.334,0,0,1-1.9-4.219,11.107,11.107,0,0,1-.283-2.521,11.482,11.482,0,0,1,22.964,0Z" transform="translate(-373.144 -342.536)" fill="url(#linear-gradient-2)"/>
      <path id="Path_275445" data-name="Path 275445" d="M529.924,381.6h.06a11.488,11.488,0,0,1-9.3,4.736V381.6Z" transform="translate(-372.452 -341.448)" fill="#672e9b"/>
      <path id="Path_275446" data-name="Path 275446" d="M521.688,386.339v6.527a17.994,17.994,0,0,1-16.7-11.263h7.4A11.487,11.487,0,0,0,521.688,386.339Z" transform="translate(-373.458 -341.448)" fill="url(#linear-gradient)"/>
      <path id="Path_275447" data-name="Path 275447" d="M522.529,392.866a6.655,6.655,0,0,1-6.65,6.646H491.867V381.6h13.958A17.994,17.994,0,0,0,522.529,392.866Z" transform="translate(-374.299 -341.448)" fill="#c6c6e5"/>
      <path id="Path_275448" data-name="Path 275448" d="M513.228,381.855H491.867v-4.219h19.462A11.334,11.334,0,0,0,513.228,381.855Z" transform="translate(-374.299 -341.7)" fill="#00abff"/>
      <path id="Path_275449" data-name="Path 275449" d="M402.095,381.6v.082a45.731,45.731,0,0,1-20.713,38.221V392.89A11.289,11.289,0,0,1,392.664,381.6Z" transform="translate(-381.382 -341.448)" fill="url(#linear-gradient)"/>
    </g>
    <g id="Group_219387" data-name="Group 219387" transform="translate(379.975 80.802)">
      <path id="Path_275450" data-name="Path 275450" d="M592.7,330.5a15.219,15.219,0,0,1-11.117,4.807h-.589l-.012-.095a15.43,15.43,0,0,0,9.584-4.831,11.547,11.547,0,0,0,2.134-4.807Z" transform="translate(-367.089 -65.251)" fill="url(#linear-gradient-9)"/>
      <path id="Path_275451" data-name="Path 275451" d="M597.95,183.6a15.6,15.6,0,0,1,14.618-10.156h4.42A15.6,15.6,0,0,0,602.37,183.6l-12.354,33.191a13.147,13.147,0,0,0,1.544,12.124l5.317,7.635V403.8h-4.421V236.546l-5.316-7.635a13.165,13.165,0,0,1-1.544-12.124Z" transform="translate(-366.846 -74.917)" fill="url(#linear-gradient-10)"/>
      <path id="Path_275452" data-name="Path 275452" d="M581.443,334.736v13.408a8.183,8.183,0,0,1-6.767,8.035,2.187,2.187,0,0,1-.718-.412,8.164,8.164,0,0,0,5.233-7.623V334.736h.59a15.141,15.141,0,0,0,1.65-.095Z" transform="translate(-367.54 -64.675)" fill="url(#linear-gradient-11)"/>
      <path id="Path_275453" data-name="Path 275453" d="M572.827,366.549a2.382,2.382,0,0,1-2.382-2.38V331.816l9.03-14.869V203.06a29.635,29.635,0,0,1,29.636-29.62h2.8a29.635,29.635,0,0,0-29.6,29.62V316.946L573.3,331.816v32.354a2.312,2.312,0,0,0,.884,1.839,2.188,2.188,0,0,0,.718.412,6.88,6.88,0,0,1-1.4.13Z" transform="translate(-367.765 -74.917)" fill="url(#linear-gradient-12)"/>
      <path id="Path_275454" data-name="Path 275454" d="M722.306,287.529a24.536,24.536,0,0,0,3.313-.06,19.386,19.386,0,0,1-11.753,2.723A18.79,18.79,0,0,0,722.306,287.529Z" transform="translate(-358.571 -67.672)" fill="#0c0c2b"/>
      <path id="Path_275455" data-name="Path 275455" d="M682.713,270.53a105.568,105.568,0,0,1-7.1-9.6v-.012c-.53-.777-1.037-1.578-1.544-2.392a8.772,8.772,0,0,0,3.584-.966s12.731,18.4,25.911,25.72a48.242,48.242,0,0,0,21.289,6.15,18.79,18.79,0,0,1-8.44,2.663C706.409,291.443,694.255,284.527,682.713,270.53Z" transform="translate(-361.122 -69.573)" fill="url(#linear-gradient-13)"/>
      <path id="Path_275456" data-name="Path 275456" d="M718.857,243.863l-14.618-12.584a4.618,4.618,0,0,0,.754-2.58c10.374,8.777,21.267,17.979,21.267,17.979l-.413-.023A11.616,11.616,0,0,1,718.857,243.863Z" transform="translate(-359.188 -71.406)" fill="url(#linear-gradient-14)"/>
      <path id="Path_275457" data-name="Path 275457" d="M706.711,231.865l-1.344-1.132a4.674,4.674,0,0,0-1.874-5.42l-2.122-1.39-7.085-4.607-2.1-1.367a4.707,4.707,0,0,0-2.841-.754l-1.061-.9-6.1-25.944a4.34,4.34,0,0,0-.165-.531l5.316-7.882a22.75,22.75,0,0,0,1.745-3.076,33.826,33.826,0,0,1,10.68,11.57c9.513,16.955,23.389,41.791,29.353,53.115,9.514,18.039,11.458,38.268-2.688,49.6a18.655,18.655,0,0,1-1.792,1.273,48.243,48.243,0,0,1-21.289-6.15c-13.18-7.317-25.911-25.72-25.911-25.72,5.882-2.793,11.588-10.922,13.144-13.078a4.694,4.694,0,0,0,6.472-1.367l8.9-13.667,14.618,12.584a11.616,11.616,0,0,0,6.991,2.792l.413.023S717.085,240.642,706.711,231.865Z" transform="translate(-360.906 -74.572)" fill="#1d222e"/>
      <path id="Path_275458" data-name="Path 275458" d="M699.547,223.831a3.184,3.184,0,0,1,.919,4.395l-6.472,9.932a3.167,3.167,0,0,1-4.385.932l-7.085-4.619a3.16,3.16,0,0,1-.931-4.383l6.484-9.932a3.163,3.163,0,0,1,4.385-.931Z" transform="translate(-360.673 -72.041)" fill="url(#linear-gradient-15)"/>
      <path id="Path_275459" data-name="Path 275459" d="M699.066,190.532a33.826,33.826,0,0,0-10.68-11.57c.248-.518.471-1.049.672-1.578a33.94,33.94,0,0,1,13.263,13.148c9.513,16.955,23.388,41.791,29.353,53.115,9.513,18.039,11.458,38.268-2.688,49.6a15.766,15.766,0,0,1-1.733,1.213,24.544,24.544,0,0,1-3.313.06,18.655,18.655,0,0,0,1.792-1.273c14.146-11.334,12.2-31.563,2.688-49.6C722.455,232.324,708.579,207.487,699.066,190.532Z" transform="translate(-360.204 -74.666)" fill="url(#linear-gradient-16)"/>
      <path id="Path_275460" data-name="Path 275460" d="M703.577,223.024l-2.122-1.39-7.085-4.607-2.1-1.367a4.707,4.707,0,0,0-2.841-.754,4.6,4.6,0,0,0-2.735,1.108,4.311,4.311,0,0,0-.9,1.012l-8.913,13.667a4.686,4.686,0,0,0,1.367,6.468l11.306,7.364a4.69,4.69,0,0,0,6.472-1.367l8.912-13.667a5.014,5.014,0,0,0,.507-1.049A4.674,4.674,0,0,0,703.577,223.024Zm-2.794,5.443-6.472,9.932a3.167,3.167,0,0,1-4.385.932l-7.085-4.619a3.16,3.16,0,0,1-.931-4.383l6.484-9.932a3.163,3.163,0,0,1,4.385-.931l7.085,4.606A3.184,3.184,0,0,1,700.783,228.468Z" transform="translate(-360.99 -72.283)" fill="url(#linear-gradient-17)"/>
      <path id="Path_275461" data-name="Path 275461" d="M691.392,311.649V398.26h-7.1V311.649c0-19.512-8.77-32.082-8.77-41.638v-9.285a105.576,105.576,0,0,0,7.1,9.6C682.8,279.837,691.392,292.35,691.392,311.649Z" transform="translate(-361.029 -69.371)" fill="url(#linear-gradient-18)"/>
      <path id="Path_275462" data-name="Path 275462" d="M688.81,243.718a4.69,4.69,0,0,0,6.472-1.367l8.912-13.667a4.988,4.988,0,0,0,.507-1.049l1.344,1.132a4.619,4.619,0,0,1-.754,2.58l-8.9,13.667a4.694,4.694,0,0,1-6.472,1.367l-2.063-1.343C688.255,244.483,688.573,244.036,688.81,243.718Z" transform="translate(-360.238 -71.474)" fill="#1d222e"/>
      <path id="Path_275463" data-name="Path 275463" d="M689.247,244.517c-2.876,3.912-9.808,12.737-15.973,12.737-.118,0-.212-.012-.318-.012h-.012a5.021,5.021,0,0,1-4.385-2.557l-1.78-3.123a5.035,5.035,0,0,1,.106-5.161l.117-.177a10.4,10.4,0,0,0,2.571-.883h.012c5.564-2.7,9.313-9.509,9.313-9.509L690.2,243.2C689.967,243.515,689.648,243.963,689.247,244.517Z" transform="translate(-361.632 -70.953)" fill="url(#linear-gradient-19)"/>
      <path id="Path_275464" data-name="Path 275464" d="M689.49,243.2l-11.306-7.364s-.338.612-.953,1.533l11.09,7.222c.037.024.079.037.116.061l.1-.132C688.936,243.963,689.254,243.515,689.49,243.2Z" transform="translate(-360.919 -70.953)" fill="#e7e7f2" style="mix-blend-mode: multiply;isolation: isolate"/>
      <path id="Path_275465" data-name="Path 275465" d="M689.13,180.737a22.757,22.757,0,0,1-1.745,3.076l-5.316,7.882a7.188,7.188,0,0,0-3.749-4.336l-1.544-.742c2.829-4.195,4.6-6.821,4.6-6.821a22.9,22.9,0,0,0-4.055-30.174l.105-.165L681.2,152a22.894,22.894,0,0,1,8.605,27.158C689.6,179.688,689.378,180.219,689.13,180.737Z" transform="translate(-360.948 -76.44)" fill="url(#linear-gradient-20)"/>
      <path id="Path_275466" data-name="Path 275466" d="M678.63,149.945a22.9,22.9,0,0,1,4.055,30.174s-1.769,2.627-4.6,6.821l-7.438-3.605.872-1.425a4.974,4.974,0,0,0-2.169-4.713L657.929,169.5a3.658,3.658,0,0,1-.991-5.077l13.05-19.335a3.432,3.432,0,0,1,.672-.754l8.075,5.443Z" transform="translate(-362.26 -76.766)" fill="#ef7b45"/>
      <rect id="Rectangle_23866" data-name="Rectangle 23866" width="4.786" height="44.737" transform="translate(311.466 331.693)" fill="url(#linear-gradient-21)"/>
      <rect id="Rectangle_23867" data-name="Rectangle 23867" width="4.786" height="2.804" transform="translate(311.466 328.888)" fill="#1d222e"/>
      <path id="Path_275467" data-name="Path 275467" d="M644.686,439.3a4.425,4.425,0,0,1,.754.258l5.481,2.522a15.736,15.736,0,0,0,6.72,1.438c2.216-.023,4.42-.048,6.247-.071v.048H674.9a7.681,7.681,0,0,1,4.538,1.472l-17.753,4.807a19.346,19.346,0,0,1-7.628.5l-9.631-1.3,4.456,3.652a9.206,9.206,0,0,0,9.042,1.533l22.54-8.319a5.854,5.854,0,0,1,.66.754l1.191,1.579v11.146H645.287l-12.614-13.786,6.165-1.979,2.052-2.816A3.734,3.734,0,0,1,644.686,439.3Z" transform="translate(-363.776 -58.032)" fill="#672e9b"/>
      <path id="Path_275468" data-name="Path 275468" d="M630.759,252.589a22.831,22.831,0,0,0,16.728-9.979s2.017-2.993,5.188-7.682c.553-.825,1.143-1.721,1.779-2.651.366,1.273.7,2.7,1.037,4.3.095.436.2.859.319,1.249,2.993,10.168,13.827,8.624,13.827,8.624l-.117.177a5.035,5.035,0,0,0-.106,5.161l1.78,3.123a5.021,5.021,0,0,0,4.385,2.557h.012c.531.907,1.073,1.79,1.627,2.662.507.814,1.014,1.614,1.544,2.392v9.3c0,9.556,8.77,22.127,8.77,41.638v86.611H625.018V252.46A21.778,21.778,0,0,0,630.759,252.589Z" transform="translate(-364.266 -71.179)" fill="#0070ff"/>
      <path id="Path_275469" data-name="Path 275469" d="M672.862,256.735c6.165,0,13.1-8.825,15.973-12.737l2.063,1.343c-1.556,2.156-7.261,10.285-13.144,13.078a8.772,8.772,0,0,1-3.584.966c-.554-.872-1.1-1.755-1.627-2.662C672.65,256.723,672.744,256.735,672.862,256.735Z" transform="translate(-361.22 -70.434)" fill="#1d222e"/>
      <rect id="Rectangle_23868" data-name="Rectangle 23868" width="29.955" height="2.804" transform="translate(281.511 328.888)" fill="#1d222e"/>
      <path id="Path_275470" data-name="Path 275470" d="M673.019,443.695H662.008v-.048c1.84-.023,3.277-.047,3.962-.082a4.814,4.814,0,0,0,4.185-2.863,6.71,6.71,0,0,1,2.062-2.64,6.906,6.906,0,0,1,3.066-1.378l2.865-.519a1.941,1.941,0,0,1,2.287,1.909v10.3l-1.191-1.579a5.861,5.861,0,0,0-.66-.754,6.534,6.534,0,0,0-1.026-.872A7.681,7.681,0,0,0,673.019,443.695Z" transform="translate(-361.895 -58.228)" fill="url(#linear-gradient-22)"/>
      <path id="Path_275471" data-name="Path 275471" d="M662.052,175.34l-8.594-5.786a3.682,3.682,0,0,1-1.521-2.226v-1.6a3.419,3.419,0,0,1,.531-1.249l13.05-19.335a3.646,3.646,0,0,1,5.068-.99l.354.236a3.431,3.431,0,0,0-.672.754l-13.05,19.335a3.658,3.658,0,0,0,.991,5.077l11.423,7.695a4.974,4.974,0,0,1,2.169,4.713l-.871,1.425-3.855-1.861a4.935,4.935,0,0,0-2.193-4.276Z" transform="translate(-362.541 -76.817)" fill="url(#linear-gradient-23)"/>
      <path id="Path_275472" data-name="Path 275472" d="M679.756,445.5l-22.54,8.319a9.206,9.206,0,0,1-9.042-1.533l-4.456-3.652,9.631,1.3a19.346,19.346,0,0,0,7.628-.5l17.753-4.807A6.531,6.531,0,0,1,679.756,445.5Z" transform="translate(-363.068 -57.688)" fill="#f9c80e"/>
      <path id="Path_275473" data-name="Path 275473" d="M675.489,185.593l-15.147-7.329a8.168,8.168,0,0,0-1.344-.518,7.59,7.59,0,0,0-1.132-.306,10.314,10.314,0,0,1,6.52.824l2.31,1.12,3.855,1.861,7.438,3.605,1.544.742a7.188,7.188,0,0,1,3.749,4.336,4.341,4.341,0,0,1,.165.531l6.1,25.944,1.061.9a4.6,4.6,0,0,0-2.735,1.108c-1.179-.99-2.37-2-2.37-2l-6.107-25.944A7.255,7.255,0,0,0,675.489,185.593Z" transform="translate(-362.161 -74.675)" fill="url(#linear-gradient-24)"/>
      <path id="Path_275474" data-name="Path 275474" d="M667.782,246.347s-10.834,1.544-13.827-8.624l2.44-3.817c.165,5.548,3.9,8.341,6.507,9.8,2.523,1.413,7.143,1.731,7.451,1.756A10.4,10.4,0,0,1,667.782,246.347Z" transform="translate(-362.411 -71.075)" fill="url(#linear-gradient-25)"/>
      <path id="Path_275475" data-name="Path 275475" d="M638.919,224.444c-8.311-4.819-8.559-11.5-6.248-14.893,3.289-.295,7.969-.507,10.928-.613a9.573,9.573,0,0,1,5.234,1.32l11.765,6.9c.425-.648.884-1.343,1.367-2.061l-11.918-7a9.719,9.719,0,0,0-5.234-1.32c-2.122.083-5.14.213-7.886.389a6.7,6.7,0,0,1,1.332-6.3,1.956,1.956,0,0,1,.247-.07c3.124-.649,7.592-1.391,10.692-1.886a9.628,9.628,0,0,1,6.6,1.332l11.328,7.046c.46-.684.909-1.367,1.369-2.062l-11.483-7.139a9.75,9.75,0,0,0-6.6-1.332c-2.322.365-5.411.884-8.134,1.39h-.012a7.379,7.379,0,0,1,.872-7.141c3.018-.754,8.252-1.731,11.8-2.356a9.559,9.559,0,0,1,6.815,1.332l11.883,7.481c.483-.706.931-1.4,1.367-2.061l-12.036-7.577a9.627,9.627,0,0,0-6.813-1.332c-2.877.507-6.873,1.25-9.891,1.921a6.343,6.343,0,0,1,3.088-5.49,108.787,108.787,0,0,1,10.527-4.9,7.677,7.677,0,0,1,.814-.306,8.171,8.171,0,0,1,1.344.518l15.147,7.329a7.255,7.255,0,0,1,3.9,4.867l6.107,25.944s1.191,1.014,2.37,2a4.311,4.311,0,0,0-.9,1.012l-8.913,13.667a4.686,4.686,0,0,0,1.368,6.468s-3.749,6.81-9.313,9.509H671.8c-.308-.024-4.928-.342-7.451-1.756-2.6-1.461-6.342-4.254-6.507-9.8l-2.44,3.817c-.118-.389-.225-.813-.319-1.249-.342-1.6-.672-3.028-1.037-4.3-2.192-7.906-5.08-10.1-13.239-13.738l-.165-.118c-.707,1.06-1.261,1.885-1.626,2.415C638.977,224.35,638.954,224.4,638.919,224.444Z" transform="translate(-363.856 -74.645)" fill="#1d222e"/>
      <path id="Path_275476" data-name="Path 275476" d="M656.32,178.294c-1.674.707-3.619,1.531-5.434,2.357.2-1.06.353-1.9.353-1.9a6.519,6.519,0,0,1,6.413-5.313h4.467l2.829,1.909a4.935,4.935,0,0,1,2.193,4.276l-2.31-1.12a10.345,10.345,0,0,0-8.512-.212Z" transform="translate(-362.608 -74.917)" fill="#0070ff"/>
      <path id="Path_275477" data-name="Path 275477" d="M652.972,235.232c-3.171,4.689-5.188,7.682-5.188,7.682a17.9,17.9,0,0,1-27.078,6.2l-.33-.223a22.893,22.893,0,0,0,21.384-9.98s3.454-5.078,7.734-11.417A20.635,20.635,0,0,1,652.972,235.232Z" transform="translate(-364.564 -71.483)" fill="url(#linear-gradient-26)"/>
      <path id="Path_275478" data-name="Path 275478" d="M648.329,228.015c-2.063-2.592-5.023-4.23-9.773-6.35.365-.531.919-1.355,1.626-2.415l.165.118c8.159,3.64,11.047,5.831,13.239,13.738-.636.931-1.226,1.826-1.779,2.651A20.635,20.635,0,0,0,648.329,228.015Z" transform="translate(-363.399 -72.006)" fill="#d84727"/>
      <path id="Path_275479" data-name="Path 275479" d="M646.275,182.942c1.143-.684,3.041-1.6,5.1-2.545,1.815-.825,3.76-1.65,5.434-2.357a10.218,10.218,0,0,1,1.992-.613,7.59,7.59,0,0,1,1.132.306,7.68,7.68,0,0,0-.814.306,108.791,108.791,0,0,0-10.527,4.9,6.343,6.343,0,0,0-3.088,5.49c-.872.189-1.65.378-2.311.542A6.431,6.431,0,0,1,646.275,182.942Z" transform="translate(-363.102 -74.663)" fill="url(#linear-gradient-27)"/>
      <path id="Path_275480" data-name="Path 275480" d="M644.794,392.681v44.69l-4.432-3.016V392.681Z" transform="translate(-363.283 -60.988)" fill="url(#linear-gradient-12)"/>
      <rect id="Rectangle_23869" data-name="Rectangle 23869" width="4.433" height="2.804" transform="translate(277.078 328.888)" fill="#0c0c2b"/>
      <path id="Path_275481" data-name="Path 275481" d="M634.4,445.159l12.614,13.785H605.7l.436-3.181.095-.649a6.315,6.315,0,0,1,.212-.942,5.571,5.571,0,0,1,.506-1.143h18.768a2.22,2.22,0,0,0,1.757-3.581L626.2,447.8Z" transform="translate(-365.505 -57.654)" fill="url(#linear-gradient-29)"/>
      <path id="Path_275482" data-name="Path 275482" d="M642.63,190.49c-.212.06-.425.118-.613.166a5.447,5.447,0,0,0-2.6,1.59l-.048-.023a5.967,5.967,0,0,1,2.546-3.169,5.292,5.292,0,0,1,1.32-.554c.07-.023.142-.035.212-.058.661-.165,1.439-.353,2.311-.542,3.018-.671,7.013-1.413,9.891-1.921a9.627,9.627,0,0,1,6.813,1.332l12.036,7.577c-.436.659-.884,1.355-1.367,2.061l-11.883-7.481a9.559,9.559,0,0,0-6.815-1.332C650.882,188.759,645.648,189.736,642.63,190.49Z" transform="translate(-363.347 -74.13)" fill="url(#linear-gradient-30)"/>
      <path id="Path_275483" data-name="Path 275483" d="M640.75,436.688a1.614,1.614,0,0,0-.389-.236v-2.1l4.433,3.016v-44.69h29.955v44.736h4.786v1.508l-2.865.519a6.906,6.906,0,0,0-3.066,1.378,6.71,6.71,0,0,0-2.062,2.64,4.814,4.814,0,0,1-4.185,2.863c-.684.035-2.122.058-3.962.082s-4.031.048-6.247.071a15.736,15.736,0,0,1-6.72-1.438l-5.481-2.522a4.42,4.42,0,0,0-.754-.258,2.082,2.082,0,0,0-.225-3.122Z" transform="translate(-363.283 -60.988)" fill="#1d222e"/>
      <path id="Path_275484" data-name="Path 275484" d="M639.7,197.753a6.988,6.988,0,0,1-.306-5.809l.048.023a5.447,5.447,0,0,1,2.6-1.59c.188-.048.4-.106.613-.166a7.379,7.379,0,0,0-.872,7.141C641.055,197.494,640.348,197.624,639.7,197.753Z" transform="translate(-363.376 -73.851)" fill="url(#linear-gradient-31)"/>
      <rect id="Rectangle_23870" data-name="Rectangle 23870" width="4.032" height="2.804" transform="translate(273.047 328.888)" fill="#1d222e"/>
      <path id="Path_275485" data-name="Path 275485" d="M629.1,190.181H614.652a4.1,4.1,0,0,1-4.032-4.854l1.179-6.233a6.467,6.467,0,0,1,2.6-4.088l11.765,2.309v-6.6l3.82-2.627,2.169,2.78h9.984v2.911h18.1a6.519,6.519,0,0,0-6.413,5.313s-.153.837-.353,1.9c-2.063.942-3.962,1.861-5.1,2.545a6.431,6.431,0,0,0-3.077,6.032c-.07.023-.142.035-.212.058a5.292,5.292,0,0,0-1.32.554Z" transform="translate(-365.194 -75.257)" fill="#1d222e"/>
      <path id="Path_275486" data-name="Path 275486" d="M640.534,221.844c4.75,2.121,7.709,3.759,9.773,6.35-4.28,6.339-7.734,11.417-7.734,11.417a22.893,22.893,0,0,1-21.384,9.98l-11.871-8a3.658,3.658,0,0,1-.991-5.077l13.05-19.335a3.435,3.435,0,0,1,.673-.754l11.081,7.457a4.979,4.979,0,0,0,6.661-.989,2.884,2.884,0,0,0,.27-.353s.13-.189.378-.554C640.474,221.938,640.5,221.891,640.534,221.844Z" transform="translate(-365.377 -72.186)" fill="#ef7b45"/>
      <path id="Path_275487" data-name="Path 275487" d="M640.6,436.452a2.19,2.19,0,0,0-2.57.518l-1.461,1.626V392.681H640.6v43.771Z" transform="translate(-363.526 -60.988)" fill="url(#linear-gradient-32)"/>
      <path id="Path_275488" data-name="Path 275488" d="M638.06,199.737a6.366,6.366,0,0,0-3.537,2.132,6.5,6.5,0,0,1,4.986-4.348c.153-.035.307-.07.471-.105.649-.13,1.356-.259,2.087-.4h.012c2.723-.506,5.812-1.025,8.134-1.39a9.75,9.75,0,0,1,6.6,1.332L668.3,204.1c-.46.7-.909,1.378-1.368,2.062L655.6,199.113a9.628,9.628,0,0,0-6.6-1.332c-3.1.495-7.568,1.237-10.692,1.886A1.952,1.952,0,0,0,638.06,199.737Z" transform="translate(-363.657 -73.514)" fill="url(#linear-gradient-33)"/>
      <path id="Path_275489" data-name="Path 275489" d="M634.535,438.4l2.17-2.4,1.461-1.626a2.19,2.19,0,0,1,2.57-.518,1.612,1.612,0,0,1,.389.236l3.218,2.45a2.082,2.082,0,0,1,.225,3.123,3.734,3.734,0,0,0-3.8,1.437l-2.052,2.816-4.208-5.491Z" transform="translate(-363.658 -58.386)" fill="url(#linear-gradient-22)"/>
      <path id="Path_275490" data-name="Path 275490" d="M638.05,390.044v2.8h-24.52v-2.8h24.52Z" transform="translate(-365.003 -61.156)" fill="#1d222e"/>
      <path id="Path_275491" data-name="Path 275491" d="M638.086,199.485a6.7,6.7,0,0,0-1.332,6.3c-.778.047-1.545.095-2.252.153a5.975,5.975,0,0,1,.047-4.324A6.366,6.366,0,0,1,638.086,199.485Z" transform="translate(-363.683 -73.262)" fill="url(#linear-gradient-35)"/>
      <rect id="Rectangle_23871" data-name="Rectangle 23871" width="1.827" height="24.389" transform="translate(269.758 71.224)" fill="url(#linear-gradient-12)"/>
      <path id="Path_275492" data-name="Path 275492" d="M634.028,441.794a.7.7,0,1,1-.695.7v-.058l-2.311-2.262.023-.024.779-.448,2.145,2.1Z" transform="translate(-363.882 -58.001)" fill="#dadaf2"/>
      <path id="Path_275493" data-name="Path 275493" d="M632.784,207.816c-.094.012-.188.012-.27.023a4.328,4.328,0,0,0-2.865,1.626,5.209,5.209,0,0,1,4.079-3.782c.342-.036.695-.06,1.061-.095.707-.058,1.474-.106,2.252-.153,2.747-.177,5.764-.306,7.886-.389a9.719,9.719,0,0,1,5.234,1.32l11.918,7c-.483.718-.943,1.413-1.367,2.061l-11.765-6.9a9.573,9.573,0,0,0-5.234-1.32C640.753,207.308,636.073,207.521,632.784,207.816Z" transform="translate(-363.97 -72.909)" fill="url(#linear-gradient-37)"/>
      <path id="Path_275494" data-name="Path 275494" d="M638.411,223.45c-8.595-4.218-10.092-10.262-8.735-14.15a4.328,4.328,0,0,1,2.865-1.626c.082-.012.177-.012.27-.023-2.31,3.393-2.062,10.074,6.248,14.893-.248.365-.378.554-.378.554A2.884,2.884,0,0,1,638.411,223.45Z" transform="translate(-363.996 -72.743)" fill="url(#linear-gradient-27)"/>
      <path id="Path_275495" data-name="Path 275495" d="M650.581,149.933c0-12.006-9.195-22.221-21.054-22.964.565-.035,1.131-.059,1.709-.047,12.378.165,22.139,10.651,22.139,23.011v16.848a3.5,3.5,0,0,0,0,1.6v1.625a3.475,3.475,0,0,1-3.477,3.476H647.1a3.476,3.476,0,0,0,3.478-3.476Z" transform="translate(-363.977 -77.872)" fill="url(#linear-gradient-39)"/>
      <path id="Path_275496" data-name="Path 275496" d="M630.817,444.486a.707.707,0,0,1-.7-.707.4.4,0,0,1,.012-.117l-1.969-1.921.826-.448,1.827,1.791a.7.7,0,1,1,0,1.4Z" transform="translate(-364.065 -57.9)" fill="#dadaf2"/>
      <path id="Path_275497" data-name="Path 275497" d="M627.9,127.178a18.06,18.06,0,0,1,1.969-.212c11.859.742,21.054,10.958,21.054,22.964v20.076a3.476,3.476,0,0,1-3.478,3.476H635.9V149.093h-8.429a19.3,19.3,0,0,0,1.721-8,19.5,19.5,0,0,0-4.986-13.031A21.722,21.722,0,0,1,627.9,127.178Z" transform="translate(-364.318 -77.869)" fill="#1d222e"/>
      <path id="Path_275498" data-name="Path 275498" d="M632.9,440.484c-.707.388-1.449.8-2.215,1.225l-.826.448c-.719.4-1.474.8-2.24,1.2l-.813.436c-.743.388-1.509.777-2.287,1.166l-.837.413c-.26.13-.518.259-.79.389l-9.466-1.273,4.4,3.617c-2.287,1-4.668,1.956-7.108,2.828l-9.03-9.874,6.154-1.979,2.062-2.815a3.7,3.7,0,0,1,3.785-1.438,4.318,4.318,0,0,1,.754.248l5.493,2.521a15.692,15.692,0,0,0,6.708,1.45c3.489-.035,6.99-.083,8.97-.118-.6.341-1.238.707-1.909,1.084l-.779.448Z" transform="translate(-365.762 -58.316)" fill="#672e9b"/>
      <path id="Path_275499" data-name="Path 275499" d="M629.048,168.089l-3.82,2.627v-2.627Z" transform="translate(-364.253 -75.257)" fill="#1d222e"/>
      <path id="Path_275500" data-name="Path 275500" d="M627.7,444.4a.681.681,0,0,1,.613.684.7.7,0,0,1-1.4,0,.918.918,0,0,1,.025-.189l-1.639-1.613.813-.436Z" transform="translate(-364.249 -57.801)" fill="#dadaf2"/>
      <path id="Path_275501" data-name="Path 275501" d="M625.714,169.38h-3.406c-2.335-3.063-3.8-7.364-4.656-11.653a19.485,19.485,0,0,0,10.244-9.956h6.6V172.16H631.7l-2.169-2.78Z" transform="translate(-364.739 -76.547)" fill="#1d222e"/>
      <path id="Path_275502" data-name="Path 275502" d="M626.09,171.517H615.256a3.475,3.475,0,0,1-3.477-3.476v-9.508a18.544,18.544,0,0,0,3.9-.648c.9,4.017,2.31,7.976,4.5,10.851h5.906v2.78Z" transform="translate(-365.115 -75.905)" fill="#1d222e"/>
      <path id="Path_275503" data-name="Path 275503" d="M625.937,176.974l-11.765-2.309a6.461,6.461,0,0,1,3.8-1.225h7.969Z" transform="translate(-364.962 -74.917)" fill="#1d222e"/>
      <path id="Path_275504" data-name="Path 275504" d="M624.587,445.7a.7.7,0,1,1-.884.672.621.621,0,0,1,.047-.248l-1.391-1.367.837-.413Z" transform="translate(-364.437 -57.706)" fill="#dadaf2"/>
      <path id="Path_275505" data-name="Path 275505" d="M611.755,121.959a19.527,19.527,0,0,1,14.476,6.421,22.31,22.31,0,0,0-11.871,9.25h-21.7a19.484,19.484,0,0,1,19.1-15.67Z" transform="translate(-366.341 -78.187)" fill="#ef7b45"/>
      <path id="Path_275506" data-name="Path 275506" d="M635.5,438.136l.023-.023q-.495.282-1.026.6c-.6.341-1.238.707-1.909,1.085l2.145,2.1h.059a.7.7,0,1,1-.695.7v-.058l-2.311-2.263c-.707.389-1.449.8-2.215,1.226l1.827,1.791a.7.7,0,1,1-.7.695.4.4,0,0,1,.012-.117l-1.969-1.921c-.719.4-1.474.8-2.24,1.2L628.1,444.7a.681.681,0,0,1,.613.684.7.7,0,0,1-1.4,0,.918.918,0,0,1,.025-.189l-1.639-1.613c-.743.388-1.509.777-2.287,1.166L624.8,446.1a.7.7,0,1,1-.884.672.62.62,0,0,1,.047-.248l-1.391-1.367c-.26.13-.518.259-.79.389-.884.424-1.792.859-2.711,1.284l1.544.907a5.873,5.873,0,0,0,4.173.66c.188-.048.377-.095.553-.153l8.205-2.64,6.165-1.979Z" transform="translate(-364.648 -58.102)" fill="#8242c6"/>
      <path id="Path_275507" data-name="Path 275507" d="M622.187,445.18c-.884.424-1.792.859-2.711,1.284-.779.366-1.569.719-2.358,1.06l-4.4-3.617Z" transform="translate(-365.055 -57.734)" fill="#f9c80e"/>
      <path id="Path_275508" data-name="Path 275508" d="M609.6,241.642l11.871,8,.33.223a22.76,22.76,0,0,0,10.351,3.782,21.778,21.778,0,0,1-5.741-.13,22.919,22.919,0,0,1-9.36-3.652l-12.2-8.224a3.657,3.657,0,0,1-.99-5.077l13.05-19.335a3.691,3.691,0,0,1,2.157-1.508,3.641,3.641,0,0,1,2.911.518l.354.236a3.435,3.435,0,0,0-.673.754l-13.05,19.335A3.658,3.658,0,0,0,609.6,241.642Z" transform="translate(-365.663 -72.237)" fill="url(#linear-gradient-40)"/>
      <path id="Path_275509" data-name="Path 275509" d="M621.027,217.939a3.641,3.641,0,0,0-2.911-.518,11.567,11.567,0,0,1,.483-1.614s6.46-17.343,10.021-26.946h14.653a5.967,5.967,0,0,0-2.546,3.169,6.988,6.988,0,0,0,.306,5.809c-.165.035-.318.07-.471.105a6.5,6.5,0,0,0-4.986,4.348,5.975,5.975,0,0,0-.047,4.324c-.366.035-.719.058-1.061.095a5.209,5.209,0,0,0-4.079,3.782c-1.357,3.888.141,9.932,8.735,14.15a4.979,4.979,0,0,1-6.661.989l-11.081-7.457Z" transform="translate(-364.709 -73.937)" fill="#0070ff"/>
      <path id="Path_275510" data-name="Path 275510" d="M619.949,168.785c-2.193-2.875-3.607-6.834-4.5-10.851a17.718,17.718,0,0,0,2.346-.8c.86,4.289,2.322,8.59,4.656,11.653Z" transform="translate(-364.88 -75.953)" fill="url(#linear-gradient-12)"/>
      <path id="Path_275511" data-name="Path 275511" d="M616.748,148.824a59.476,59.476,0,0,0,1.12,8.836,17.72,17.72,0,0,1-2.346.8,59.523,59.523,0,0,1-1.261-9.638Z" transform="translate(-364.956 -76.481)" fill="#d84727"/>
      <path id="Path_275512" data-name="Path 275512" d="M614.216,147.771h13.9a19.485,19.485,0,0,1-10.244,9.956,59.476,59.476,0,0,1-1.12-8.836h-2.487C614.24,148.5,614.216,148.137,614.216,147.771Z" transform="translate(-364.959 -76.547)" fill="#1d222e"/>
      <path id="Path_275513" data-name="Path 275513" d="M602.1,183.6a15.6,15.6,0,0,1,14.618-10.156h2.865a6.524,6.524,0,0,0-6.4,5.313l-1.179,6.233a4.1,4.1,0,0,0,4.032,4.854h14.453c-3.561,9.6-10.021,26.946-10.021,26.946a11.576,11.576,0,0,0-.483,1.614,3.691,3.691,0,0,0-2.157,1.508l-13.05,19.335a3.657,3.657,0,0,0,.99,5.077l12.2,8.224a22.92,22.92,0,0,0,9.36,3.652V403.8H596.611V236.546l-5.317-7.635a13.148,13.148,0,0,1-1.544-12.124Z" transform="translate(-366.58 -74.917)" fill="#045bba"/>
      <path id="Path_275514" data-name="Path 275514" d="M613.774,392.681v39.246l-4.067-1.909V392.681Z" transform="translate(-365.248 -60.988)" fill="url(#linear-gradient-12)"/>
      <rect id="Rectangle_23872" data-name="Rectangle 23872" width="4.067" height="2.804" transform="translate(244.459 328.888)" fill="#1d222e"/>
      <path id="Path_275515" data-name="Path 275515" d="M592.68,136.693h21.7a21.961,21.961,0,0,0-1.922,3.782H592.314A19.926,19.926,0,0,1,592.68,136.693Z" transform="translate(-366.363 -77.251)" fill="#672e9b"/>
      <path id="Path_275516" data-name="Path 275516" d="M610.1,429.6c.013,0,.013,0,.025.012l3.218,2.45a2.083,2.083,0,0,1,.224,3.123,3.7,3.7,0,0,0-3.785,1.438l-2.062,2.815-4.208-5.5.023-.023,3.631-4.03A2.182,2.182,0,0,1,610.1,429.6Z" transform="translate(-365.645 -58.671)" fill="url(#linear-gradient-22)"/>
      <path id="Path_275517" data-name="Path 275517" d="M630.121,141.027A19.5,19.5,0,0,0,625.135,128a22.31,22.31,0,0,0-11.871,9.25,21.97,21.97,0,0,0-1.922,3.782,20.543,20.543,0,0,0-1.131,3.782,22.33,22.33,0,0,0-.448,4.466v11.181c.295.012.6.023.9.023.425,0,.836-.012,1.249-.047a18.544,18.544,0,0,0,3.9-.648,59.523,59.523,0,0,1-1.261-9.638c-.023-.389-.048-.754-.048-1.12h13.9A19.3,19.3,0,0,0,630.121,141.027Z" transform="translate(-365.244 -77.804)" fill="#045bba"/>
      <path id="Path_275518" data-name="Path 275518" d="M612.449,140.249h.012a20.534,20.534,0,0,0-1.131,3.782H592.68a19.926,19.926,0,0,1-.366-3.782Z" transform="translate(-366.363 -77.025)" fill="#d84727"/>
      <path id="Path_275519" data-name="Path 275519" d="M609.707,430.018l4.068,1.909V392.681H638.3V438.6l-2.17,2.4q-.495.282-1.026.6c-1.98.035-5.481.083-8.97.118a15.692,15.692,0,0,1-6.708-1.45l-5.493-2.521a4.318,4.318,0,0,0-.754-.248,2.083,2.083,0,0,0-.224-3.123l-3.218-2.45c-.012-.012-.012-.012-.024-.012Z" transform="translate(-365.248 -60.988)" fill="#1d222e"/>
      <path id="Path_275520" data-name="Path 275520" d="M592.658,143.8h18.649a22.33,22.33,0,0,0-.448,4.466v11.181a19.272,19.272,0,0,1-10.151-3.416A19.469,19.469,0,0,1,592.658,143.8Z" transform="translate(-366.341 -76.799)" fill="#f9c80e"/>
      <path id="Path_275521" data-name="Path 275521" d="M609.763,158.518c.295.012.6.023.9.023.425,0,.836-.012,1.249-.047V168a3.475,3.475,0,0,0,3.478,3.476H613.24A3.475,3.475,0,0,1,609.763,168v-9.485Z" transform="translate(-365.244 -75.866)" fill="url(#linear-gradient-12)"/>
      <path id="Path_275522" data-name="Path 275522" d="M603.417,440.683l9.03,9.874c-.118.047-.248.083-.366.13a5.789,5.789,0,0,0-3.148,2.627,5.578,5.578,0,0,0-.506,1.143H574.7l.53-3.829a5.786,5.786,0,0,1,.719-2.086h18.768a2.221,2.221,0,0,0,1.757-3.582l-1.274-1.638Z" transform="translate(-367.492 -57.939)" fill="url(#linear-gradient-29)"/>
      <path id="Path_275523" data-name="Path 275523" d="M610.693,162.138A22.789,22.789,0,0,1,595.25,155.3h5.293a19.271,19.271,0,0,0,10.151,3.416Z" transform="translate(-366.175 -76.069)" fill="#d84727"/>
      <path id="Path_275524" data-name="Path 275524" d="M610.385,450.2c2.44-.872,4.821-1.826,7.108-2.828.79-.341,1.579-.695,2.358-1.06l1.544.907a5.874,5.874,0,0,0,4.173.66c.188-.048.377-.095.553-.153l1.274,1.65a2.22,2.22,0,0,1-1.757,3.581H606.871a5.789,5.789,0,0,1,3.148-2.627C610.137,450.282,610.267,450.246,610.385,450.2Z" transform="translate(-365.43 -57.581)" fill="#672e9b"/>
      <path id="Path_275525" data-name="Path 275525" d="M574.724,453.634H608.44a6.315,6.315,0,0,0-.212.942l-.095.649H574.724l-.225-.036.213-1.555Z" transform="translate(-367.505 -57.116)" fill="#f9c80e"/>
      <path id="Path_275526" data-name="Path 275526" d="M605.5,459.676l.212-1.555h78.347V459.7H605.71Z" transform="translate(-365.518 -56.831)" fill="#f9c80e"/>
      <path id="Path_275527" data-name="Path 275527" d="M605.723,459.606H684.07v5.6H616.427c-8.2,0-11.14-4.006-11.14-4.006l.106-.766.118-.849Z" transform="translate(-365.531 -56.738)" fill="url(#linear-gradient-22)"/>
      <path id="Path_275528" data-name="Path 275528" d="M595.25,125.6a22.9,22.9,0,0,1,34.506,2.1,21.723,21.723,0,0,0-3.69.884,19.5,19.5,0,0,0-25.523-2.98Z" transform="translate(-366.175 -78.391)" fill="#6fceef"/>
      <path id="Path_275529" data-name="Path 275529" d="M603.031,437.308a.695.695,0,1,1-.7.694v-.058l-2.31-2.262.023-.023.778-.448,2.146,2.1Z" transform="translate(-365.869 -58.286)" fill="#dadaf2"/>
      <path id="Path_275530" data-name="Path 275530" d="M611.745,173.44a29.635,29.635,0,0,0-29.6,29.62V316.946l-9.018,14.869v32.354a2.312,2.312,0,0,0,.884,1.839,8.164,8.164,0,0,0,5.233-7.623V344.977h.59a15.142,15.142,0,0,0,1.65-.095,15.435,15.435,0,0,0,9.584-4.831,11.547,11.547,0,0,0,2.134-4.807v-98.7l-5.316-7.635a13.165,13.165,0,0,1-1.544-12.124L598.7,183.6a15.6,15.6,0,0,1,14.618-10.156Z" transform="translate(-367.593 -74.917)" fill="#1d222e"/>
      <path id="Path_275531" data-name="Path 275531" d="M599.135,439.174l-1.969-1.921.825-.448,1.827,1.791a.7.7,0,1,1-.695.7A.4.4,0,0,1,599.135,439.174Z" transform="translate(-366.052 -58.185)" fill="#dadaf2"/>
      <path id="Path_275532" data-name="Path 275532" d="M596.7,439.912a.681.681,0,0,1,.614.684.7.7,0,0,1-1.4,0,.913.913,0,0,1,.023-.188l-1.639-1.614.814-.436Z" transform="translate(-366.236 -58.086)" fill="#dadaf2"/>
      <path id="Path_275533" data-name="Path 275533" d="M586.975,117.328h8.063a29.552,29.552,0,0,0-12.566,20.6h-5.246A34.639,34.639,0,0,1,586.975,117.328Z" transform="translate(-367.33 -78.481)" fill="#f9c80e"/>
      <path id="Path_275534" data-name="Path 275534" d="M595.038,164.4h-8.063a34.672,34.672,0,0,1-9.749-20.6h5.246A29.552,29.552,0,0,0,595.038,164.4Z" transform="translate(-367.33 -76.799)" fill="#ef7b45"/>
      <path id="Path_275535" data-name="Path 275535" d="M592.753,441.643l-1.391-1.368.836-.412,1.392,1.355a.707.707,0,0,1,.518.671.736.736,0,0,1-.306.589.76.76,0,0,1-.389.118.709.709,0,0,1-.707-.707A.616.616,0,0,1,592.753,441.643Z" transform="translate(-366.424 -57.991)" fill="#dadaf2"/>
      <path id="Path_275536" data-name="Path 275536" d="M582.171,136.693h11.175a19.921,19.921,0,0,0-.366,3.782H581.923A28.4,28.4,0,0,1,582.171,136.693Z" transform="translate(-367.029 -77.251)" fill="#6fceef"/>
      <path id="Path_275537" data-name="Path 275537" d="M593.346,144.031H582.171a28.4,28.4,0,0,1-.248-3.782H592.98A19.921,19.921,0,0,0,593.346,144.031Z" transform="translate(-367.029 -77.025)" fill="#672e9b"/>
      <path id="Path_275538" data-name="Path 275538" d="M592.25,349.287v32.908a4.633,4.633,0,0,1-4.267-2.828,4.554,4.554,0,0,0,2.134-3.877v-26.2Z" transform="translate(-366.641 -63.745)" fill="#1d222e"/>
      <path id="Path_275539" data-name="Path 275539" d="M604.5,433.65l.023-.023c-.9.518-1.887,1.084-2.936,1.685l2.146,2.1h.059a.7.7,0,1,1-.7.694v-.058l-2.31-2.262.023-.023c-.708.4-1.462.824-2.24,1.249L600.4,438.8a.7.7,0,1,1-.695.7.4.4,0,0,1,.012-.118l-1.969-1.921c-.719.4-1.474.8-2.24,1.2l1.591,1.555a.681.681,0,0,1,.614.684.7.7,0,0,1-1.4,0,.914.914,0,0,1,.023-.188l-1.639-1.614c-.742.388-1.509.777-2.287,1.167l1.391,1.355a.706.706,0,0,1,.519.671.735.735,0,0,1-.306.589.76.76,0,0,1-.389.118.709.709,0,0,1-.707-.707.623.623,0,0,1,.047-.248l-1.391-1.367c-1.132.566-2.3,1.12-3.5,1.674v.011l1.545.9a5.792,5.792,0,0,0,4.668.531.106.106,0,0,0,.059-.012l8.217-2.64,6.154-1.979Z" transform="translate(-366.635 -58.387)" fill="#8242c6"/>
      <path id="Path_275540" data-name="Path 275540" d="M590.138,375.49a4.554,4.554,0,0,1-2.133,3.877,4.6,4.6,0,0,1-.366-1.8V349.287h2.5Z" transform="translate(-366.663 -63.745)" fill="url(#linear-gradient-47)"/>
      <path id="Path_275541" data-name="Path 275541" d="M588.047,349.287v26.2a4.609,4.609,0,0,1-1.356,3.276s-.012,0-2.051,1.178a4.625,4.625,0,0,1-3.36-4.454v-26.2Z" transform="translate(-367.07 -63.745)" fill="#1d222e"/>
      <path id="Path_275542" data-name="Path 275542" d="M582.485,144.031h-5.246a33.251,33.251,0,0,1-.213-3.782h5.211A28.4,28.4,0,0,0,582.485,144.031Z" transform="translate(-367.343 -77.025)" fill="#d84727"/>
      <path id="Path_275543" data-name="Path 275543" d="M583.565,380.121a4.633,4.633,0,0,1-4.633-4.631V352.763a8.02,8.02,0,0,0,1.922-3.476h.577v26.2a4.625,4.625,0,0,0,3.36,4.454A4.223,4.223,0,0,1,583.565,380.121Z" transform="translate(-367.221 -63.745)" fill="url(#linear-gradient-48)"/>
      <path id="Path_275544" data-name="Path 275544" d="M581.008,335.017h.589a15.219,15.219,0,0,0,11.117-4.807V350.5H580.738a8.012,8.012,0,0,0,.27-2.074Z" transform="translate(-367.105 -64.957)" fill="#1d222e"/>
      <path id="Path_275545" data-name="Path 275545" d="M579.022,445.842c3.419-1.2,6.732-2.58,9.831-4.017v.012l1.545.894a5.792,5.792,0,0,0,4.668.531.106.106,0,0,0,.059-.012l1.274,1.638a2.22,2.22,0,0,1-1.757,3.582H575.874A5.791,5.791,0,0,1,579.022,445.842Z" transform="translate(-367.417 -57.866)" fill="#672e9b"/>
      <path id="Path_275546" data-name="Path 275546" d="M577.791,144.031h-9.219c-.105-1.249-.165-2.51-.165-3.782h9.172A33.251,33.251,0,0,0,577.791,144.031Z" transform="translate(-367.896 -77.025)" fill="#0070ff"/>
      <path id="Path_275547" data-name="Path 275547" d="M577.179,137.176c.012-.165.036-.318.06-.483h5.246a28.4,28.4,0,0,0-.248,3.782h-5.211v-.53Z" transform="translate(-367.343 -77.251)" fill="#0070ff"/>
      <path id="Path_275548" data-name="Path 275548" d="M577.578,139.945v.53h-9.172c0-1.273.06-2.533.165-3.782h9.219c-.023.165-.048.318-.06.483Z" transform="translate(-367.896 -77.251)" fill="#045bba"/>
      <path id="Path_275549" data-name="Path 275549" d="M567.215,117.328h9.018a43.628,43.628,0,0,0-7.2,20.6h-7.768A51.371,51.371,0,0,1,567.215,117.328Z" transform="translate(-368.353 -78.481)" fill="#f9c80e"/>
      <path id="Path_275550" data-name="Path 275550" d="M569.039,144.031a43.627,43.627,0,0,0,7.2,20.6h-9.018a51.369,51.369,0,0,1-5.953-20.6q-.142-1.873-.142-3.782h7.745C568.874,141.521,568.933,142.782,569.039,144.031Z" transform="translate(-368.362 -77.025)" fill="#ef7b45"/>
      <path id="Path_275551" data-name="Path 275551" d="M585.43,460.717c-8.205,0-11.128-3.995-11.128-3.995l-.012-.012.224-1.614.225.036h33.409l-.436,3.181-.212,1.555-.118.849Z" transform="translate(-367.518 -57.023)" fill="url(#linear-gradient-22)"/>
      <path id="Path_275552" data-name="Path 275552" d="M561.271,136.693h7.768c-.105,1.249-.165,2.509-.165,3.782h-7.745Q561.129,138.565,561.271,136.693Z" transform="translate(-368.362 -77.251)" fill="#0070ff"/>
      <path id="Path_275553" data-name="Path 275553" d="M552.284,136.693h9.561q-.142,1.873-.142,3.782h-9.538C552.166,139.2,552.2,137.942,552.284,136.693Z" transform="translate(-368.937 -77.251)" fill="#6fceef"/>
      <path id="Path_275554" data-name="Path 275554" d="M561.845,144.031h-9.561c-.082-1.249-.118-2.51-.118-3.782H561.7Q561.7,142.157,561.845,144.031Z" transform="translate(-368.937 -77.025)" fill="#d84727"/>
      <path id="Path_275555" data-name="Path 275555" d="M546.256,117.328h11.611a60.655,60.655,0,0,0-4.94,20.6h-10.8A71.369,71.369,0,0,1,546.256,117.328Z" transform="translate(-369.58 -78.481)" fill="#f9c80e"/>
      <path id="Path_275556" data-name="Path 275556" d="M557.867,164.4H546.256a71.369,71.369,0,0,1-4.127-20.6h10.8A60.655,60.655,0,0,0,557.867,164.4Z" transform="translate(-369.58 -76.799)" fill="#ef7b45"/>
      <path id="Path_275557" data-name="Path 275557" d="M552.816,140.475c0,1.272.036,2.533.118,3.782h-10.8q-.105-1.873-.105-3.782t.105-3.782h10.8C552.852,137.942,552.816,139.2,552.816,140.475Z" transform="translate(-369.586 -77.251)" fill="#672e9b"/>
      <path id="Path_275558" data-name="Path 275558" d="M531.372,136.693h11.447q-.105,1.873-.105,3.782H531.372Z" transform="translate(-370.27 -77.251)" fill="#d84727"/>
      <path id="Path_275559" data-name="Path 275559" d="M542.819,144.031H531.372v-3.782h11.341Q542.713,142.157,542.819,144.031Z" transform="translate(-370.27 -77.025)" fill="#f9c80e"/>
      <path id="Path_275560" data-name="Path 275560" d="M534.013,152.65v26.416a1.74,1.74,0,0,1-1.745,1.743h-.9v-29.9h.9A1.741,1.741,0,0,1,534.013,152.65Z" transform="translate(-370.27 -76.348)" fill="#2c2c4f"/>
      <path id="Path_275561" data-name="Path 275561" d="M531.8,140.249v3.782h-7.073v-3.782Z" transform="translate(-370.696 -77.025)" fill="#d84727"/>
      <path id="Path_275562" data-name="Path 275562" d="M524.954,136.693v3.782H521.3c0-1.273-.047-2.533-.153-3.782Z" transform="translate(-370.925 -77.251)" fill="#045bba"/>
      <path id="Path_275563" data-name="Path 275563" d="M525.346,425.717v5.949H496.629c-.094-1.661-1.932-3.723-4.762-5.949h33.479Z" transform="translate(-372.802 -58.889)" fill="url(#linear-gradient-50)"/>
      <path id="Path_275564" data-name="Path 275564" d="M524.54,426.551h-15.2L504.43,415.5l2.888-2.91C516.289,417.5,524.54,423,524.54,426.551Z" transform="translate(-371.997 -59.723)" fill="url(#linear-gradient-51)"/>
      <path id="Path_275565" data-name="Path 275565" d="M521.752,140.475h-7.486c0-1.273-.059-2.533-.165-3.782h7.5C521.705,137.942,521.752,139.2,521.752,140.475Z" transform="translate(-371.377 -77.251)" fill="#672e9b"/>
      <path id="Path_275566" data-name="Path 275566" d="M521.752,140.249h3.654v3.782H514.1c.106-1.249.165-2.51.165-3.782Z" transform="translate(-371.377 -77.025)" fill="#0070ff"/>
      <path id="Path_275567" data-name="Path 275567" d="M514.523,143.8h7.509a49.4,49.4,0,0,1-5.788,19.841h-8.724A42.245,42.245,0,0,0,514.523,143.8Z" transform="translate(-371.799 -76.799)" fill="#00abff"/>
      <path id="Path_275568" data-name="Path 275568" d="M522.02,137.878h-7.5a42.245,42.245,0,0,0-7-19.841h8.724A49.39,49.39,0,0,1,522.02,137.878Z" transform="translate(-371.799 -78.436)" fill="#6fceef"/>
      <path id="Path_275569" data-name="Path 275569" d="M514.734,140.475h-7.721a33.383,33.383,0,0,0-.213-3.782h7.769C514.675,137.942,514.734,139.2,514.734,140.475Z" transform="translate(-371.845 -77.251)" fill="#0070ff"/>
      <path id="Path_275570" data-name="Path 275570" d="M515.474,182.156a19.274,19.274,0,0,0-6.661-14.61h3.148a19.313,19.313,0,0,1,6.66,14.61v103.86a4,4,0,0,1-1.273,2.9L511.784,294v9.238a1.725,1.725,0,0,1-1.721,1.731h-2.3v-.235a1.687,1.687,0,0,0,.884-1.5V294l.023-.012,5.529-5.078a3.954,3.954,0,0,0,1.274-2.9Z" transform="translate(-371.783 -75.291)" fill="url(#linear-gradient-52)"/>
      <path id="Path_275571" data-name="Path 275571" d="M512.664,167.831h-3.148a19.3,19.3,0,0,0-12.731-4.772h3.148a19.235,19.235,0,0,1,12.731,4.772Z" transform="translate(-372.487 -75.576)" fill="#c6c6e5"/>
      <path id="Path_275572" data-name="Path 275572" d="M514.49,288.914l-5.529,5.078-1.319-1.437a8.879,8.879,0,0,0,1.06-4.206V180.188a17.312,17.312,0,0,0-5.446-12.642H509.1a19.274,19.274,0,0,1,6.661,14.61v103.86A3.954,3.954,0,0,1,514.49,288.914Z" transform="translate(-372.072 -75.291)" fill="#c6c6e5"/>
      <path id="Path_275573" data-name="Path 275573" d="M500.408,289.706a8.815,8.815,0,0,0,7.757-4.618l1.319,1.437-.023.012v9.238a1.687,1.687,0,0,1-.884,1.5,1.609,1.609,0,0,1-.848.235H495.08v-7.8h5.328Z" transform="translate(-372.596 -67.824)" fill="#c6c6e5"/>
      <path id="Path_275574" data-name="Path 275574" d="M507.962,299.811v30.563h-3.289V299.811Z" transform="translate(-371.981 -66.888)" fill="url(#linear-gradient-53)"/>
      <path id="Path_275575" data-name="Path 275575" d="M502.117,140.249h5.211a33.4,33.4,0,0,1-.213,3.782h-5.233A30.726,30.726,0,0,0,502.117,140.249Z" transform="translate(-372.16 -77.025)" fill="#0070ff"/>
      <path id="Path_275576" data-name="Path 275576" d="M507.114,296.764h.848V300h-3.289v-3.241Z" transform="translate(-371.981 -67.082)" fill="#1d222e"/>
      <path id="Path_275577" data-name="Path 275577" d="M507.81,137.878h-5.245a29.567,29.567,0,0,0-11.518-19.841h7.721A34.571,34.571,0,0,1,507.81,137.878Z" transform="translate(-372.855 -78.436)" fill="#6fceef"/>
      <path id="Path_275578" data-name="Path 275578" d="M502.577,143.8h5.233a34.571,34.571,0,0,1-9.042,19.841h-7.721A29.581,29.581,0,0,0,502.577,143.8Z" transform="translate(-372.855 -76.799)" fill="#00abff"/>
      <path id="Path_275579" data-name="Path 275579" d="M508.163,357.864a5.08,5.08,0,0,1-5.08,5.078,3.978,3.978,0,0,1-1.545-.306,5.081,5.081,0,0,0,3.336-4.772V335.195h3.289v22.669Z" transform="translate(-372.182 -64.64)" fill="url(#linear-gradient-54)"/>
      <path id="Path_275580" data-name="Path 275580" d="M505.863,299.811v30.563H486.106V302.662h7.356a2.2,2.2,0,0,0,2.193-2.192v-.659Z" transform="translate(-373.171 -66.888)" fill="#1d222e"/>
      <path id="Path_275581" data-name="Path 275581" d="M505.288,300H495.08v-3.241h10.208Z" transform="translate(-372.596 -67.082)" fill="#1d222e"/>
      <path id="Path_275582" data-name="Path 275582" d="M492.249,163.059a17.342,17.342,0,0,1,11.965,4.772h-3.937a17.277,17.277,0,0,0-11.977-4.772Z" transform="translate(-373.031 -75.576)" fill="#c6c6e5"/>
      <path id="Path_275583" data-name="Path 275583" d="M502.281,136.693h5.245a33.383,33.383,0,0,1,.213,3.782H495.784a23.413,23.413,0,0,0-.306-3.782Z" transform="translate(-372.571 -77.251)" fill="#045bba"/>
      <path id="Path_275584" data-name="Path 275584" d="M495.784,140.249h6.743a30.726,30.726,0,0,1-.235,3.782h-6.815A23.413,23.413,0,0,0,495.784,140.249Z" transform="translate(-372.571 -77.025)" fill="#672e9b"/>
      <path id="Path_275585" data-name="Path 275585" d="M502.3,409.916l-2.688,2.827c-.07.083-.13.166-.2.248l-5.517-2.757,2.9-3.052C498.539,408.031,500.4,408.95,502.3,409.916Z" transform="translate(-372.672 -60.067)" fill="#9f9fce"/>
      <path id="Path_275586" data-name="Path 275586" d="M505.2,180.188a17.316,17.316,0,0,0-5.446-12.642H503.7a17.312,17.312,0,0,1,5.446,12.642V288.349a8.806,8.806,0,0,1-8.817,8.824h-3.949a8.821,8.821,0,0,0,8.829-8.824Z" transform="translate(-372.513 -75.291)" fill="url(#linear-gradient-52)"/>
      <path id="Path_275587" data-name="Path 275587" d="M499.279,412.58l2.688-2.827c1.887.966,3.807,1.979,5.694,3.016l-2.888,2.91-.873-.436-4.821-2.415C499.149,412.746,499.209,412.663,499.279,412.58Z" transform="translate(-372.34 -59.904)" fill="#dadaf2"/>
      <path id="Path_275588" data-name="Path 275588" d="M498.08,366.719a4.636,4.636,0,0,1-3.277,1.355,4.5,4.5,0,0,1-1.65-.306,4.608,4.608,0,0,0,2.983-4.335v-24.46h3.3v24.46A4.638,4.638,0,0,1,498.08,366.719Z" transform="translate(-372.72 -64.4)" fill="url(#linear-gradient-56)"/>
      <path id="Path_275589" data-name="Path 275589" d="M503.976,167.831a17.342,17.342,0,0,0-11.965-4.772h5.081a19.3,19.3,0,0,1,12.731,4.772Z" transform="translate(-372.793 -75.576)" fill="#9f9fce"/>
      <path id="Path_275590" data-name="Path 275590" d="M497.1,407.326l-2.9,3.052-5.01-2.5,2.829-2.969C493.524,405.618,495.245,406.432,497.1,407.326Z" transform="translate(-372.974 -60.211)" fill="#dadaf2"/>
      <path id="Path_275591" data-name="Path 275591" d="M501.771,431.444v5.95H411.859v-5.95h89.912Z" transform="translate(-377.931 -58.526)" fill="url(#linear-gradient-19)"/>
      <path id="Path_275592" data-name="Path 275592" d="M497.553,432.278H482.37l-4.916-11.052,2.888-2.91c2.994,1.65,5.917,3.359,8.476,5.043,1.462.954,2.806,1.908,3.973,2.828,2.829,2.226,4.668,4.288,4.762,5.949a.53.53,0,0,1,.013.141Z" transform="translate(-373.726 -59.36)" fill="url(#linear-gradient-51)"/>
      <path id="Path_275593" data-name="Path 275593" d="M493.349,141.566a19.135,19.135,0,0,0-.378-3.794,19.432,19.432,0,0,0-12.991-14.681,5.848,5.848,0,0,0,.094-1.025v-1.46a5.586,5.586,0,0,0-.105-1.085,22.873,22.873,0,0,1,16.5,18.263,23.487,23.487,0,0,1,0,7.564h-3.5A19.018,19.018,0,0,0,493.349,141.566Z" transform="translate(-373.565 -78.342)" fill="#6fceef"/>
      <path id="Path_275594" data-name="Path 275594" d="M495.317,289.43v7.8h-3.938v-7.8Z" transform="translate(-372.833 -67.548)" fill="#9f9fce"/>
      <path id="Path_275595" data-name="Path 275595" d="M489.308,302.856a2.205,2.205,0,0,0,2.2-2.192v-3.9h3.938v3.9a2.2,2.2,0,0,1-2.193,2.192Z" transform="translate(-372.966 -67.082)" fill="#e7e7f2"/>
      <path id="Path_275596" data-name="Path 275596" d="M493.716,140.249a19.02,19.02,0,0,1-.378,3.782h-19.1c.248-1.272.436-2.545.59-3.782Z" transform="translate(-373.932 -77.025)" fill="#d84727"/>
      <path id="Path_275597" data-name="Path 275597" d="M493.3,136.682a19.135,19.135,0,0,1,.378,3.794H474.795c.165-1.32.271-2.592.353-3.782h18.1Z" transform="translate(-373.897 -77.252)" fill="#672e9b"/>
      <path id="Path_275598" data-name="Path 275598" d="M492.295,405.04l-2.829,2.969-4.633-2.321,2.688-2.816C488.593,403.344,490.255,404.086,492.295,405.04Z" transform="translate(-373.253 -60.341)" fill="#9f9fce"/>
      <path id="Path_275599" data-name="Path 275599" d="M487.817,402.908l-2.688,2.816-4.94-2.463v-.942h6.3S486.968,402.531,487.817,402.908Z" transform="translate(-373.551 -60.376)" fill="#dadaf2"/>
      <path id="Path_275600" data-name="Path 275600" d="M490.609,339.39H487.32v28.184a4.615,4.615,0,0,1-1.214,3.133V335.195h19.757v22.669a5.081,5.081,0,0,1-3.336,4.772,4.155,4.155,0,0,1-2.64-3.877V339.213h-3.3v24.46a3.2,3.2,0,1,1-5.977,0V339.39Z" transform="translate(-373.171 -64.64)" fill="#1d222e"/>
      <path id="Path_275601" data-name="Path 275601" d="M486.106,370.456a4.615,4.615,0,0,0,1.214-3.133V339.139h3.289v28.184a4.621,4.621,0,0,1-4.5,4.63Z" transform="translate(-373.171 -64.39)" fill="url(#linear-gradient-59)"/>
      <path id="Path_275602" data-name="Path 275602" d="M486.485,371.864v34.381h-6.3V340.524h6.3v31.34Z" transform="translate(-373.551 -64.302)" fill="url(#linear-gradient-60)"/>
      <path id="Path_275603" data-name="Path 275603" d="M487.428,335.195v5.668h-21.95v-5.668Z" transform="translate(-374.494 -64.64)" fill="#512282"/>
      <path id="Path_275604" data-name="Path 275604" d="M487.428,305.4v24.613h-21.95V305.4Z" transform="translate(-374.494 -66.533)" fill="#672e9b"/>
      <path id="Path_275605" data-name="Path 275605" d="M487.428,305.59h-21.95v-3.1h21.95Z" transform="translate(-374.494 -66.718)" fill="#512282"/>
      <path id="Path_275606" data-name="Path 275606" d="M480.265,120.644v1.46a5.848,5.848,0,0,1-.094,1.025,18.128,18.128,0,0,0-2.912-.719,2.682,2.682,0,0,0,.012-.306v-1.46a5.225,5.225,0,0,0-.282-1.721,20.171,20.171,0,0,1,3.171.636A5.588,5.588,0,0,1,480.265,120.644Z" transform="translate(-373.756 -78.38)" fill="#d84727"/>
      <path id="Path_275607" data-name="Path 275607" d="M475.734,406.245H465.478V340.524h15.655v65.721h-5.4Z" transform="translate(-374.494 -64.302)" fill="#672e9b"/>
      <path id="Path_275608" data-name="Path 275608" d="M480.831,418.676c-1.886-1.037-3.807-2.049-5.694-3.016-1.827-.931-3.619-1.814-5.3-2.639a65.647,65.647,0,0,1,15.56,4.395c5.9,2.356,11.128.754,15.561-4.772l4.821,2.415c-.188.248-.318.413-.318.413-4.22,5.467-9.384,8.294-14.96,8.294-.388,0-.79-.023-1.191-.047C486.748,422.035,483.825,420.326,480.831,418.676Z" transform="translate(-374.215 -59.72)" fill="url(#linear-gradient-22)"/>
      <path id="Path_275609" data-name="Path 275609" d="M475.41,418.406l4.821,2.415c-.188.247-.318.412-.318.412-4.22,5.479-9.384,8.3-14.96,8.3a18.949,18.949,0,0,1-7.073-1.45c-10.987-4.406-17.717-4.937-33.09-4.972a18.829,18.829,0,0,0-4.267-5.185l2.629-.094c17.306,0,24.449.436,36.7,5.348C465.743,425.546,470.978,423.932,475.41,418.406Z" transform="translate(-377.376 -59.39)" fill="url(#linear-gradient-22)"/>
      <path id="Path_275610" data-name="Path 275610" d="M477.767,122.422a18.693,18.693,0,0,0-3.171-.258,19.493,19.493,0,0,0-5.528.8v-3.547a23.056,23.056,0,0,1,5.528-.671,21.4,21.4,0,0,1,2.9.188,5.226,5.226,0,0,1,.282,1.721v1.46A2.675,2.675,0,0,1,477.767,122.422Z" transform="translate(-374.264 -78.391)" fill="#1d222e"/>
      <path id="Path_275611" data-name="Path 275611" d="M497.171,143.8a22.92,22.92,0,0,1-28.1,18.416v-3.547a19.449,19.449,0,0,0,24.6-14.869Z" transform="translate(-374.264 -76.799)" fill="#00abff"/>
      <path id="Path_275612" data-name="Path 275612" d="M465.885,402.319h10.256c-.46.341-7.863,5.691-16.858,6.15a1.389,1.389,0,0,1-.153-.059v-6.092Z" transform="translate(-374.901 -60.376)" fill="#0c0c2b"/>
      <path id="Path_275613" data-name="Path 275613" d="M477.3,119.148a20.17,20.17,0,0,1,3.171.636,5.5,5.5,0,0,0-5.388-4.406H472.1A5.46,5.46,0,0,1,477.3,119.148Zm.27,3.487a5.473,5.473,0,0,1-5.469,5.173h2.983a5.5,5.5,0,0,0,5.4-4.454A18.128,18.128,0,0,0,477.572,122.636Z" transform="translate(-374.069 -78.605)" fill="url(#linear-gradient-9)"/>
      <path id="Path_275614" data-name="Path 275614" d="M475.672,137.3c-.082,1.19-.188,2.462-.353,3.782-.153,1.237-.342,2.51-.59,3.782-.849,4.524-2.334,9.108-4.8,12.336h-3.3c4.3-5.643,5.612-15.446,5.824-21.738v-.048a38.118,38.118,0,0,0-.9-8.353h3.3a38.118,38.118,0,0,1,.9,8.353v.048C475.743,136.056,475.708,136.669,475.672,137.3Z" transform="translate(-374.42 -77.863)" fill="url(#linear-gradient-9)"/>
      <path id="Path_275615" data-name="Path 275615" d="M476.924,420.971l-4.821-2.415c.07-.083.13-.165.2-.248l2.688-2.828c1.887.967,3.808,1.979,5.694,3.016l-2.888,2.91Z" transform="translate(-374.069 -59.54)" fill="#dadaf2"/>
      <path id="Path_275616" data-name="Path 275616" d="M470.762,163.059h18.886a17.277,17.277,0,0,1,11.977,4.772H467.273v-4.772Z" transform="translate(-374.379 -75.576)" fill="#9f9fce"/>
      <path id="Path_275617" data-name="Path 275617" d="M469.819,412.91a1.472,1.472,0,0,1,.2.095c1.686.824,3.478,1.708,5.3,2.639l-2.688,2.828c-.07.083-.13.165-.2.248l-5.517-2.758Z" transform="translate(-374.401 -59.703)" fill="#9f9fce"/>
      <path id="Path_275618" data-name="Path 275618" d="M470.12,413.054l-2.9,3.051-5-2.5,2.818-2.969C466.548,411.346,468.268,412.159,470.12,413.054Z" transform="translate(-374.703 -59.847)" fill="#dadaf2"/>
      <path id="Path_275619" data-name="Path 275619" d="M468.845,87.449a2.027,2.027,0,1,1-2.015,2.027A2.027,2.027,0,0,1,468.845,87.449Z" transform="translate(-374.407 -80.38)" fill="#0c0c2b"/>
      <path id="Path_275620" data-name="Path 275620" d="M533.845,340.505a3.787,3.787,0,0,1-3.784,3.782H393.314a3.787,3.787,0,0,1-3.784-3.782V307.1a19.555,19.555,0,0,1-7.073-8.649v42.051a10.871,10.871,0,0,0,10.857,10.851H530.061a10.864,10.864,0,0,0,10.857-10.851v-192.7h-7.073ZM530.061,80.8H393.314a10.872,10.872,0,0,0-10.857,10.852v103.13l5.328-4.89v-9.237a1.735,1.735,0,0,1,1.733-1.732h.012V91.654a3.788,3.788,0,0,1,3.784-3.783h46.765l2.393,5.444a4.425,4.425,0,0,0,4.055,2.65h30.331a4.425,4.425,0,0,0,4.055-2.65l2.393-5.444h46.754a3.788,3.788,0,0,1,3.784,3.783v52.371h7.073V91.654A10.864,10.864,0,0,0,530.061,80.8ZM467.393,91.925H449.9a2.027,2.027,0,1,1,0-4.054h17.494a2.027,2.027,0,1,1,0,4.054Zm6.861,0a2.027,2.027,0,1,1,2.028-2.027A2.018,2.018,0,0,1,474.254,91.925Z" transform="translate(-379.816 -80.802)" fill="url(#linear-gradient-65)"/>
      <path id="Path_275621" data-name="Path 275621" d="M465.885,340.524v65.721H459.13V340.524Z" transform="translate(-374.901 -64.302)" fill="#512282"/>
      <path id="Path_275622" data-name="Path 275622" d="M465.885,335.195v5.668H459.13v-5.668Z" transform="translate(-374.901 -64.64)" fill="#672e9b"/>
      <path id="Path_275623" data-name="Path 275623" d="M465.885,305.4v24.613H459.13V305.4Z" transform="translate(-374.901 -66.533)" fill="#512282"/>
      <path id="Path_275624" data-name="Path 275624" d="M465.885,302.492v3.1H459.13v-3.1Z" transform="translate(-374.901 -66.718)" fill="#672e9b"/>
      <path id="Path_275625" data-name="Path 275625" d="M465.318,410.769l-2.818,2.969-4.633-2.31,2.676-2.828C461.616,409.072,463.278,409.815,465.318,410.769Z" transform="translate(-374.982 -59.977)" fill="#9f9fce"/>
      <path id="Path_275626" data-name="Path 275626" d="M464.413,155.4v2.627L463,157.066l-2.417-1.661Z" transform="translate(-374.808 -76.062)" fill="#1d222e"/>
      <path id="Path_275627" data-name="Path 275627" d="M463.452,87.449a2.027,2.027,0,1,1,0,4.053H445.958a2.027,2.027,0,1,1,0-4.053Z" transform="translate(-375.875 -80.38)" fill="#0c0c2b"/>
      <path id="Path_275628" data-name="Path 275628" d="M464.281,158.675v1.26a4.3,4.3,0,0,1-1.639,2.2,2.951,2.951,0,0,0,.225-1.143v-4.03l1.414.967Z" transform="translate(-374.676 -75.963)" fill="url(#linear-gradient-66)"/>
      <path id="Path_275629" data-name="Path 275629" d="M481.659,421.878l-.873-.435c-.188.247-.318.412-.318.412-4.22,5.479-9.384,8.294-14.96,8.294a18.947,18.947,0,0,1-7.073-1.449c-10.987-4.406-17.717-4.937-33.09-4.972a28.907,28.907,0,0,1,3.277,9.2h57.953Zm-5.694-2.85-5.517-2.758-5-2.5-4.633-2.31-6.837-3.416h-3.5c-.248.177-8.405,6.186-18.084,6.186s-8.664-6.009-14.311-6.186h-6.224v7.281a14.109,14.109,0,0,1,9.218,3.216l2.629-.094c17.306,0,24.449.436,36.7,5.348C466.3,426.167,471.533,424.553,475.965,419.028Z" transform="translate(-377.931 -60.012)" fill="url(#linear-gradient-67)"/>
      <path id="Path_275630" data-name="Path 275630" d="M507.325,416.151l-.873-.436c-.188.248-.318.413-.318.413-4.22,5.467-9.384,8.294-14.96,8.294-.388,0-.79-.023-1.191-.047,1.462.954,2.806,1.908,3.973,2.828H512.24Zm-5.694-2.851-5.517-2.757-5.01-2.5-4.633-2.321-4.94-2.463-1.886-.942h-3.514c-.46.341-7.863,5.691-16.858,6.15.2.095.6.271,1.179.53,1.073.472,2.735,1.215,4.775,2.169,1.509.707,3.23,1.52,5.081,2.415a1.605,1.605,0,0,1,.2.094,65.707,65.707,0,0,1,15.56,4.4C491.964,420.428,497.2,418.826,501.631,413.3Z" transform="translate(-374.891 -60.376)" fill="url(#linear-gradient-68)"/>
      <path id="Path_275631" data-name="Path 275631" d="M453.328,408.047h6.3a1.381,1.381,0,0,0,.153.059c.2.095.6.271,1.179.53l-2.676,2.828-6.837-3.416Z" transform="translate(-375.394 -60.012)" fill="#dadaf2"/>
      <path id="Path_275632" data-name="Path 275632" d="M459.509,406.245v6.092h-6.3V340.524h6.3Z" transform="translate(-375.28 -64.302)" fill="url(#linear-gradient-60)"/>
      <path id="Path_275633" data-name="Path 275633" d="M461.9,335.195v5.668H415.891v-5.668Z" transform="translate(-377.673 -64.64)" fill="#512282"/>
      <path id="Path_275634" data-name="Path 275634" d="M461.9,305.4v24.613H415.891V305.4Z" transform="translate(-377.673 -66.533)" fill="#672e9b"/>
      <path id="Path_275635" data-name="Path 275635" d="M461.9,302.492v3.1H415.891v-3.1Z" transform="translate(-377.673 -66.718)" fill="#512282"/>
      <path id="Path_275636" data-name="Path 275636" d="M450.692,143.573v18.274a2.949,2.949,0,0,0,.223,1.143,3.91,3.91,0,0,1-1.756-3.064V143.573Z" transform="translate(-375.54 -76.814)" fill="url(#linear-gradient-70)"/>
      <path id="Path_275637" data-name="Path 275637" d="M452,142.477a.812.812,0,0,1-.8.7h-.967a.815.815,0,0,1-.813-.813v-7.635h-2.829a2.775,2.775,0,0,0-1.521.448V124.321a5.21,5.21,0,0,1,5.21-5.208,3.738,3.738,0,0,1,3.737-3.735h19.817a5.46,5.46,0,0,1,5.2,3.77,21.4,21.4,0,0,0-2.9-.188,23.056,23.056,0,0,0-5.528.671v3.547a19.493,19.493,0,0,1,5.528-.8,18.694,18.694,0,0,1,3.171.258,5.472,5.472,0,0,1-5.47,5.173H457.025v5.631a2.17,2.17,0,0,1-2.169,2.169h-1.85Z" transform="translate(-375.802 -78.605)" fill="#1d222e"/>
      <path id="Path_275638" data-name="Path 275638" d="M465.145,162.9c0,2.71-3.584,4.9-7.992,4.9s-7.992-2.192-7.992-4.9v-1.921a3.91,3.91,0,0,0,1.756,3.064,2.949,2.949,0,0,1-.223-1.143V142.43h.248a.812.812,0,0,0,.8-.7l1-6.868h1.85a2.17,2.17,0,0,0,2.169-2.169v-5.631h15.915a38.118,38.118,0,0,1,.9,8.353v.048c-.212,6.292-1.521,16.094-5.824,21.738h-6.437l2.418,1.661v4.03a2.951,2.951,0,0,1-.225,1.143,4.3,4.3,0,0,0,1.639-2.2Z" transform="translate(-375.54 -77.863)" fill="#1d222e"/>
      <path id="Path_275639" data-name="Path 275639" d="M450.217,142.017h.719v2.192h-2.841a2.737,2.737,0,0,1-2.735-2.734v-5.184a2.726,2.726,0,0,1,2.735-2.722H449.4V141.2A.815.815,0,0,0,450.217,142.017Z" transform="translate(-375.783 -77.45)" fill="#1d222e"/>
      <path id="Path_275640" data-name="Path 275640" d="M446.593,143.6h2.829v12.418a4.909,4.909,0,0,1-4.35-4.866V143.14A2.692,2.692,0,0,0,446.593,143.6Z" transform="translate(-375.802 -76.842)" fill="#1d222e"/>
      <path id="Path_275641" data-name="Path 275641" d="M417.708,408.047h32.4c-.248.177-8.405,6.186-18.084,6.186S423.355,408.224,417.708,408.047Z" transform="translate(-377.556 -60.012)" fill="#0c0c2b"/>
      <path id="Path_275642" data-name="Path 275642" d="M447.121,163.059v4.89H429.662l2.958-4.89Z" transform="translate(-376.79 -75.576)" fill="#9f9fce"/>
      <path id="Path_275643" data-name="Path 275643" d="M445.452,141.474a2.737,2.737,0,0,0,2.735,2.734h-1.521a2.692,2.692,0,0,1-1.521-.461,2.746,2.746,0,0,1-1.214-2.214v-5.243a2.705,2.705,0,0,1,2.735-2.722h1.521a2.726,2.726,0,0,0-2.735,2.722Z" transform="translate(-375.875 -77.45)" fill="url(#linear-gradient-71)"/>
      <path id="Path_275644" data-name="Path 275644" d="M452.866,115.378a3.743,3.743,0,0,0-3.737,3.735,5.2,5.2,0,0,0-5.2,5.208v13.125a2.748,2.748,0,0,1,1.214-2.274V124.321a5.21,5.21,0,0,1,5.21-5.208,3.738,3.738,0,0,1,3.737-3.735Zm-7.721,37.538V144.9a2.746,2.746,0,0,1-1.214-2.214v10.227a4.905,4.905,0,0,0,4.9,4.9h.661v-.035A4.909,4.909,0,0,1,445.145,152.916Z" transform="translate(-375.875 -78.605)" fill="url(#linear-gradient-72)"/>
      <path id="Path_275645" data-name="Path 275645" d="M437.076,158.674l-4.173,6.868-2.958,4.89-1.9,3.111v2.639h-2.793v-2.639l9.018-14.869V126.307a2.388,2.388,0,0,0-.59-1.567l-.095-.223a7.965,7.965,0,0,1,1.5-.436l.012-.106a2.357,2.357,0,0,1,1.98,2.332Z" transform="translate(-377.072 -78.059)" fill="url(#linear-gradient-73)"/>
      <path id="Path_275646" data-name="Path 275646" d="M425.344,423.294a28.907,28.907,0,0,1,3.277,9.2H411.859v-17.6a14.109,14.109,0,0,1,9.218,3.216A18.829,18.829,0,0,1,425.344,423.294Z" transform="translate(-377.931 -59.577)" fill="url(#linear-gradient-51)"/>
      <path id="Path_275647" data-name="Path 275647" d="M428.143,105.3v22.728a8.027,8.027,0,0,0-1.922,3.476h-.153V105.3a4.591,4.591,0,0,0-2.322-4.006,4.45,4.45,0,0,1,1.026-.448A4.624,4.624,0,0,1,428.143,105.3Z" transform="translate(-377.169 -79.529)" fill="url(#linear-gradient-75)"/>
      <path id="Path_275648" data-name="Path 275648" d="M435.048,124.083a7.965,7.965,0,0,0-1.5.436,8.159,8.159,0,0,0-5.14,7.587v13.408h-.578a15.943,15.943,0,0,0-2,.13l-.012-.13V132.107a8.135,8.135,0,0,1,2.192-5.55,8.1,8.1,0,0,1,5.977-2.615h.671a2.225,2.225,0,0,1,.4.035Z" transform="translate(-377.036 -78.061)" fill="url(#linear-gradient-76)"/>
      <path id="Path_275649" data-name="Path 275649" d="M436.153,126.275v32.366l-9.018,14.869v2.639H395.906V130h32.1a8.007,8.007,0,0,0-.27,2.074V145.48h-.578a15.269,15.269,0,0,0-15.278,15.258v6.633l1.827-4.642a14.121,14.121,0,0,0,.861-3.605,15.26,15.26,0,0,1,13.18-13.514,15.943,15.943,0,0,1,2-.13h.578V132.072a8.159,8.159,0,0,1,5.14-7.587l.095.223A2.388,2.388,0,0,1,436.153,126.275Z" transform="translate(-378.954 -78.027)" fill="#1d222e"/>
      <path id="Path_275650" data-name="Path 275650" d="M452.763,285.959a20.019,20.019,0,0,1-20.017,20.018H405.455v-2.368h21.809a20.028,20.028,0,0,0,20.03-20.018V189.027l1.1,1.814a30.138,30.138,0,0,1,4.373,15.647Z" transform="translate(-378.342 -73.926)" fill="#9f9fce"/>
      <path id="Path_275651" data-name="Path 275651" d="M426.207,105.27v26.2h-4.632v-26.2a4.619,4.619,0,0,1,2.31-4.006A4.591,4.591,0,0,1,426.207,105.27Z" transform="translate(-377.308 -79.502)" fill="#1d222e"/>
      <path id="Path_275652" data-name="Path 275652" d="M423.8,100.677a4.467,4.467,0,0,1,1.262.177,4.45,4.45,0,0,0-1.026.448,4.619,4.619,0,0,0-2.31,4.006v26.2h-2.558v-26.2a4.626,4.626,0,0,1,4.632-4.631Z" transform="translate(-377.462 -79.539)" fill="url(#linear-gradient-77)"/>
      <path id="Path_275653" data-name="Path 275653" d="M419.427,103.347v28.277H417.6V103.347a4.646,4.646,0,0,0-2.428-4.077,3.948,3.948,0,0,1,.884-.378A4.624,4.624,0,0,1,419.427,103.347Z" transform="translate(-377.719 -79.653)" fill="url(#linear-gradient-78)"/>
      <path id="Path_275654" data-name="Path 275654" d="M453.721,412.337h-37.83V340.524h39.716v71.813Z" transform="translate(-377.673 -64.302)" fill="#672e9b"/>
      <path id="Path_275655" data-name="Path 275655" d="M417.747,103.325V131.6h-4.88V103.325a4.635,4.635,0,0,1,2.44-4.077s0-.012.012,0A4.646,4.646,0,0,1,417.747,103.325Z" transform="translate(-377.866 -79.63)" fill="#1d222e"/>
      <path id="Path_275656" data-name="Path 275656" d="M416.266,340.524v71.813h-6.224V340.524Z" transform="translate(-378.048 -64.302)" fill="url(#linear-gradient-79)"/>
      <path id="Path_275657" data-name="Path 275657" d="M416.266,335.195v5.668h-6.224v-5.668Z" transform="translate(-378.048 -64.64)" fill="#672e9b"/>
      <path id="Path_275658" data-name="Path 275658" d="M416.266,305.4v24.613h-6.224V305.4Z" transform="translate(-378.048 -66.533)" fill="#d84727"/>
      <path id="Path_275659" data-name="Path 275659" d="M416.266,302.492v3.1h-6.224v-3.1Z" transform="translate(-378.048 -66.718)" fill="#672e9b"/>
      <path id="Path_275660" data-name="Path 275660" d="M426.2,144.226h.578l.012.13A15.26,15.26,0,0,0,413.6,157.87a14.12,14.12,0,0,1-.861,3.605l-1.827,4.642v-6.633A15.269,15.269,0,0,1,426.2,144.226Z" transform="translate(-377.991 -76.773)" fill="url(#linear-gradient-80)"/>
      <path id="Path_275661" data-name="Path 275661" d="M411.819,100.082a4.618,4.618,0,0,1,3.277-1.355,4.5,4.5,0,0,1,1.261.177,3.949,3.949,0,0,0-.884.378c-.012-.012-.012,0-.012,0a4.636,4.636,0,0,0-2.44,4.077v28.277h-2.558V103.358A4.609,4.609,0,0,1,411.819,100.082Z" transform="translate(-378.021 -79.663)" fill="url(#linear-gradient-81)"/>
      <path id="Path_275662" data-name="Path 275662" d="M480.642,139.821h18.1l.059-.012a19.43,19.43,0,0,0-12.991-14.681,5.5,5.5,0,0,1-5.4,4.454h-.578a38.114,38.114,0,0,1,.9,8.353v.048C480.713,138.573,480.678,139.185,480.642,139.821Zm43.194,27.405h-8.723a42.245,42.245,0,0,0,7-19.841c.106-1.249.165-2.51.165-3.782h-7.721a33.39,33.39,0,0,1-.213,3.782,34.571,34.571,0,0,1-9.042,19.841h-7.721a29.581,29.581,0,0,0,11.53-19.841H502.3a22.92,22.92,0,0,1-28.1,18.416v-3.547a19.449,19.449,0,0,0,24.6-14.869H479.7c-.849,4.524-2.334,9.108-4.8,12.336h-5.906v3.37a3.29,3.29,0,0,1,3.289,3.286v1.485h34.553a19.405,19.405,0,0,1,19.391,19.382V291.1a4,4,0,0,1-1.273,2.9l-5.564,5.09v9.238a1.725,1.725,0,0,1-1.721,1.731h-2.3v33.8h14.264a3.787,3.787,0,0,0,3.784-3.782v-192.7h-3.8A49.4,49.4,0,0,1,523.836,167.227ZM404.759,316.154a2.2,2.2,0,0,1-2.193-2.192v-3.9h-2.475a19.481,19.481,0,0,1-10.987-3.381v33.4a3.787,3.787,0,0,0,3.784,3.782h18.5V316.154h-6.625Zm124.876-228.7H482.881l-2.393,5.444a4.425,4.425,0,0,1-4.055,2.65H446.1a4.425,4.425,0,0,1-4.055-2.65l-2.393-5.444H392.888a3.788,3.788,0,0,0-3.784,3.783V178.5h4.2V113.783a5.07,5.07,0,0,1,5.081-5.078,4.2,4.2,0,0,1,4.184,4.183v-4.914a4.627,4.627,0,0,1,4.633-4.631,4.506,4.506,0,0,1,1.262.177,4.642,4.642,0,0,1,3.371,4.383v-3.829a4.627,4.627,0,0,1,4.633-4.631,4.5,4.5,0,0,1,1.261.177,4.624,4.624,0,0,1,3.372,4.454v2.074a4.625,4.625,0,0,1,4.632-4.631,4.467,4.467,0,0,1,1.262.177,4.624,4.624,0,0,1,3.371,4.454v22.728a8.1,8.1,0,0,1,5.977-2.615h.671a2.224,2.224,0,0,1,.4.035,2.358,2.358,0,0,1,1.98,2.332v32.366l-4.173,6.868h14.5v-1.485a3.29,3.29,0,0,1,3.289-3.286v-3.5h-.661a4.905,4.905,0,0,1-4.9-4.9V126.1a5.2,5.2,0,0,1,5.2-5.208,3.743,3.743,0,0,1,3.737-3.735h24.025a5.5,5.5,0,0,1,5.388,4.406,22.873,22.873,0,0,1,16.5,18.263h6.8a29.567,29.567,0,0,0-11.518-19.841H505.3a34.571,34.571,0,0,1,9.042,19.841h7.769a42.245,42.245,0,0,0-7-19.841h8.723a49.388,49.388,0,0,1,5.776,19.841h3.807V91.232A3.788,3.788,0,0,0,529.635,87.449Z" transform="translate(-379.39 -80.38)" fill="url(#linear-gradient-82)"/>
      <path id="Path_275663" data-name="Path 275663" d="M410.707,129.825v1.567h-1.439V107.014a4.609,4.609,0,0,0-2.617-4.171v-.012a4.45,4.45,0,0,1,.684-.271,4.642,4.642,0,0,1,3.371,4.383Z" transform="translate(-378.265 -79.42)" fill="url(#linear-gradient-83)"/>
      <path id="Path_275664" data-name="Path 275664" d="M407.885,302.729h-3.937a2.2,2.2,0,0,1-2.193-2.192v-1.768a19.247,19.247,0,0,0,2.994.236h.943v1.531A2.2,2.2,0,0,0,407.885,302.729Z" transform="translate(-378.579 -66.954)" fill="#e7e7f2"/>
      <path id="Path_275665" data-name="Path 275665" d="M406.813,102.827A4.609,4.609,0,0,1,409.429,107v24.377h-5.281V107a4.614,4.614,0,0,1,2.665-4.183Z" transform="translate(-378.425 -79.403)" fill="#1d222e"/>
      <path id="Path_275666" data-name="Path 275666" d="M406.966,102.842a4.614,4.614,0,0,0-2.665,4.183V131.4h-2.546V107.025a4.627,4.627,0,0,1,4.633-4.631,4.506,4.506,0,0,1,1.262.177A4.448,4.448,0,0,0,406.966,102.842Z" transform="translate(-378.579 -79.43)" fill="url(#linear-gradient-84)"/>
      <path id="Path_275667" data-name="Path 275667" d="M403.948,296.764h1.744v2.368h-.943a19.247,19.247,0,0,1-2.994-.236v-2.132Z" transform="translate(-378.579 -67.082)" fill="#c6c6e5"/>
      <path id="Path_275668" data-name="Path 275668" d="M399.236,107.679a4.168,4.168,0,0,1,2.746,3.923v19.464h-1.945V111.6a4.184,4.184,0,0,0-1.827-3.452A4.447,4.447,0,0,1,399.236,107.679Z" transform="translate(-378.806 -79.094)" fill="url(#linear-gradient-85)"/>
      <path id="Path_275669" data-name="Path 275669" d="M400.185,111.574v19.464h-4.279V112.47a5.051,5.051,0,0,1,2.452-4.348A4.184,4.184,0,0,1,400.185,111.574Z" transform="translate(-378.954 -79.066)" fill="#1d222e"/>
      <path id="Path_275670" data-name="Path 275670" d="M398.128,107.435a4.154,4.154,0,0,1,1.439.26,4.447,4.447,0,0,0-1.026.471,5.051,5.051,0,0,0-2.452,4.348v64.719h-3.041V112.513a5.07,5.07,0,0,1,5.08-5.078Z" transform="translate(-379.137 -79.11)" fill="url(#linear-gradient-86)"/>
      <g id="Group_219384" data-name="Group 219384" transform="translate(9.125 6.481)">
        <path id="Path_275671" data-name="Path 275671" d="M529.672,344.49H392.923a4.378,4.378,0,0,1-4.374-4.371V91.267a4.377,4.377,0,0,1,4.374-4.371h47.151l2.547,5.8a3.84,3.84,0,0,0,3.516,2.3h30.331a3.841,3.841,0,0,0,3.516-2.3l2.549-5.8h47.139a4.377,4.377,0,0,1,4.374,4.371V340.119A4.378,4.378,0,0,1,529.672,344.49ZM392.923,88.073a3.2,3.2,0,0,0-3.194,3.194V340.119a3.2,3.2,0,0,0,3.194,3.193H529.672a3.2,3.2,0,0,0,3.195-3.193V91.267a3.2,3.2,0,0,0-3.195-3.194H483.3l-2.238,5.092a5.017,5.017,0,0,1-4.6,3H446.137a5.018,5.018,0,0,1-4.6-3L439.3,88.073Z" transform="translate(-388.55 -86.896)" fill="#0c0c2b"/>
      </g>
      <g id="Group_219385" data-name="Group 219385" transform="translate(1.144 82.712)">
        <path id="Path_275672" data-name="Path 275672" d="M428.222,173.063h.471a1.735,1.735,0,0,1,1.733,1.732v9.237l5.552,5.09a3.915,3.915,0,0,1,1.273,2.9v74.817a6.182,6.182,0,0,1-6.177-6.174V192.02a3.915,3.915,0,0,0-1.273-2.9l-5.553-5.09V174.8a1.735,1.735,0,0,0-1.733-1.732h5.706Z" transform="translate(-378.392 -157.652)" fill="url(#linear-gradient-52)"/>
        <path id="Path_275673" data-name="Path 275673" d="M432.5,168.234h17.459v-6.375a3.289,3.289,0,0,1,3.289-3.286v2.321c0,2.71,3.584,4.9,7.992,4.9s7.993-2.192,7.993-4.9v-2.321a3.289,3.289,0,0,1,3.289,3.286v6.257H506.87a17.316,17.316,0,0,1,5.446,12.642V288.919a8.821,8.821,0,0,1-8.829,8.824H498.17v11.7a2.205,2.205,0,0,1-2.2,2.192H408.931a2.2,2.2,0,0,1-2.193-2.192v-1.531h27.291a20.019,20.019,0,0,0,20.017-20.018V208.423a30.138,30.138,0,0,0-4.373-15.647l-1.1-1.814v94.564a20.028,20.028,0,0,1-20.03,20.018H404.993A19.545,19.545,0,0,1,385.448,286V192.941a3.915,3.915,0,0,1,1.273-2.9l5.552-5.09v-9.237a1.734,1.734,0,0,1,1.722-1.732h30.9a1.735,1.735,0,0,1,1.733,1.732v9.237l5.552,5.09a3.915,3.915,0,0,1,1.273,2.9v68.643a6.182,6.182,0,0,0,6.177,6.174V192.941a3.915,3.915,0,0,0-1.273-2.9l-5.552-5.09v-9.237a1.735,1.735,0,0,0-1.733-1.732H430.6v-2.639Z" transform="translate(-380.768 -158.573)" fill="#c6c6e5"/>
        <path id="Path_275674" data-name="Path 275674" d="M381.05,198.866V192.02a3.915,3.915,0,0,1,1.273-2.9l.225-.2,5.328-4.89V174.8a1.735,1.735,0,0,1,1.733-1.732h4.668a1.734,1.734,0,0,0-1.722,1.732v9.237L387,189.122a3.915,3.915,0,0,0-1.273,2.9v93.056a19.545,19.545,0,0,0,19.546,19.547h-4.668a19.529,19.529,0,0,1-19.557-19.547Z" transform="translate(-381.05 -157.652)" fill="url(#linear-gradient-88)"/>
      </g>
      <path id="Path_275675" data-name="Path 275675" d="M379.975,171.086a1.773,1.773,0,0,1,1.769-1.767h.873V189.16l-.225.2a3.915,3.915,0,0,0-1.273,2.9V199.1a1.771,1.771,0,0,1-1.144-1.65Z" transform="translate(-379.975 -75.178)" fill="#2c2c4f"/>
      <path id="Path_275676" data-name="Path 275676" d="M379.975,138.461a1.773,1.773,0,0,1,1.769-1.768h.873v29.9h-.873a1.773,1.773,0,0,1-1.769-1.768Z" transform="translate(-379.975 -77.251)" fill="#2c2c4f"/>
      <path id="Path_275677" data-name="Path 275677" d="M482.672,431.444h-7.2l-2.717,5.95h25.115v-5.95h-15.2Z" transform="translate(-374.027 -58.526)" fill="url(#linear-gradient-22)"/>
      <path id="Path_275678" data-name="Path 275678" d="M509.647,425.717h-7.2l-2.717,5.949h25.114v-5.949h-15.2Z" transform="translate(-372.298 -58.889)" fill="url(#linear-gradient-22)"/>
      <g id="Group_219386" data-name="Group 219386" transform="translate(320.115 146.38)">
        <path id="Path_275679" data-name="Path 275679" d="M691.346,239.915a3.434,3.434,0,0,1-1.88-.562l-7.086-4.619a3.465,3.465,0,0,1-1.017-4.789l6.485-9.934a3.472,3.472,0,0,1,4.793-1.017l7.087,4.608a3.494,3.494,0,0,1,1,4.8l-6.472,9.932a3.443,3.443,0,0,1-2.19,1.5A3.492,3.492,0,0,1,691.346,239.915Zm-.591-20.889a2.872,2.872,0,0,0-2.414,1.307l-6.485,9.932a2.876,2.876,0,0,0,.845,3.974l7.087,4.619a2.87,2.87,0,0,0,3.977-.844l6.472-9.931a2.9,2.9,0,0,0-.833-3.988l-7.085-4.606A2.857,2.857,0,0,0,690.755,219.026Z" transform="translate(-680.805 -218.437)" fill="#0c0c2b"/>
      </g>
    </g>
    <g id="Group_219388" data-name="Group 219388" transform="translate(703.622 233.857)" style="mix-blend-mode: screen;isolation: isolate">
      <rect id="Rectangle_23873" data-name="Rectangle 23873" width="9.901" height="3.473" rx="0.637" transform="translate(8.352 10.687) rotate(-147.474)" fill="#662d91"/>
      <rect id="Rectangle_23874" data-name="Rectangle 23874" width="6.741" height="2.105" rx="0.637" transform="matrix(-0.843, -0.538, 0.538, -0.843, 9.852, 5.399)" fill="#662d91"/>
    </g>
  </g>
</svg>
